AlegreyaSans-BoldItalic.ufo
<glyph name="exclam" format="2">
  <advance width="286.29"/>
  <unicode hex="0021"/>
  <outline>
    <contour>
      <point x="291" y="672" type="line"/>
      <point x="132" y="661" type="line"/>
      <point x="113" y="639" type="line"/>
      <point x="83" y="261" type="line"/>
      <point x="100" y="243" type="line"/>
      <point x="211" y="259" type="line"/>
      <point x="311" y="649" type="line"/>
    </contour>
    <contour>
      <point x="134" y="190" type="curve" smooth="yes"/>
      <point x="71" y="190"/>
      <point x="32" y="150"/>
      <point x="32" y="86" type="curve" smooth="yes"/>
      <point x="32" y="25"/>
      <point x="65" y="-9"/>
      <point x="126" y="-9" type="curve" smooth="yes"/>
      <point x="188" y="-9"/>
      <point x="227" y="31"/>
      <point x="227" y="95" type="curve" smooth="yes"/>
      <point x="227" y="155"/>
      <point x="193" y="190"/>
    </contour>
  </outline>
</glyph>
<glyph name="quotedbl" format="2">
  <advance width="437.132"/>
  <unicode hex="0022"/>
  <outline>
    <contour>
      <point x="441" y="646" type="line"/>
      <point x="289" y="637" type="line"/>
      <point x="266" y="369" type="line"/>
      <point x="280" y="358" type="line"/>
      <point x="369" y="372" type="line"/>
      <point x="450" y="634" type="line"/>
    </contour>
    <contour>
      <point x="254" y="646" type="line"/>
      <point x="102" y="637" type="line"/>
      <point x="79" y="369" type="line"/>
      <point x="93" y="358" type="line"/>
      <point x="182" y="372" type="line"/>
      <point x="263" y="634" type="line"/>
    </contour>
  </outline>
</glyph>
<glyph name="dollar" format="2">
  <advance width="472"/>
  <unicode hex="0024"/>
  <anchor x="217" y="0" name="bottom"/>
  <anchor x="238" y="511" name="top"/>
  <outline>
    <contour>
      <point x="299" y="520" type="curve" smooth="yes"/>
      <point x="142" y="520"/>
      <point x="50" y="435"/>
      <point x="50" y="330" type="curve" smooth="yes"/>
      <point x="50" y="180"/>
      <point x="262" y="189"/>
      <point x="262" y="137" type="curve" smooth="yes"/>
      <point x="262" y="121"/>
      <point x="244" y="110"/>
      <point x="215" y="110" type="curve" smooth="yes"/>
      <point x="173" y="110"/>
      <point x="107" y="137"/>
      <point x="57" y="178" type="curve"/>
      <point x="40" y="166" type="line"/>
      <point x="1" y="18" type="line"/>
      <point x="65" y="-4"/>
      <point x="133" y="-11"/>
      <point x="182" y="-11" type="curve" smooth="yes"/>
      <point x="360" y="-11"/>
      <point x="433" y="88"/>
      <point x="433" y="178" type="curve" smooth="yes"/>
      <point x="433" y="326"/>
      <point x="222" y="317"/>
      <point x="222" y="370" type="curve" smooth="yes"/>
      <point x="222" y="384"/>
      <point x="237" y="394"/>
      <point x="263" y="394" type="curve" smooth="yes"/>
      <point x="291" y="394"/>
      <point x="345" y="377"/>
      <point x="392" y="346" type="curve"/>
      <point x="417" y="352" type="line"/>
      <point x="456" y="494" type="line"/>
      <point x="413" y="509"/>
      <point x="356" y="520"/>
    </contour>
    <contour>
      <point x="284" y="82" type="line"/>
      <point x="173" y="82" type="line"/>
      <point x="152" y="-126" type="line"/>
      <point x="163" y="-140" type="line"/>
      <point x="260" y="-140" type="line"/>
    </contour>
    <contour>
      <point x="324" y="431" type="line"/>
      <point x="214" y="431" type="line"/>
      <point x="173" y="82" type="line"/>
      <point x="284" y="82" type="line"/>
    </contour>
    <contour>
      <point x="332" y="645" type="line"/>
      <point x="237" y="645" type="line"/>
      <point x="214" y="431" type="line"/>
      <point x="324" y="431" type="line"/>
      <point x="346" y="631" type="line"/>
    </contour>
  </outline>
</glyph>
<glyph name="percent" format="2">
  <advance width="896.591"/>
  <unicode hex="0025"/>
  <outline>
    <contour>
      <point x="162" y="516" type="move"/>
    </contour>
    <contour>
      <point x="253" y="654.915" type="curve" smooth="yes"/>
      <point x="122" y="654.915"/>
      <point x="46" y="567.99"/>
      <point x="46" y="426.165" type="curve" smooth="yes"/>
      <point x="46" y="332.835"/>
      <point x="94" y="280.68"/>
      <point x="184" y="280.68" type="curve" smooth="yes"/>
      <point x="314" y="280.68"/>
      <point x="389" y="367.605"/>
      <point x="389" y="509.43" type="curve" smooth="yes"/>
      <point x="389" y="602.76"/>
      <point x="341" y="654.915"/>
    </contour>
    <contour>
      <point x="225" y="535.05" type="curve" smooth="yes"/>
      <point x="258" y="535.05"/>
      <point x="272" y="519.495"/>
      <point x="272" y="481.98" type="curve" smooth="yes"/>
      <point x="272" y="428.91"/>
      <point x="264" y="391.395"/>
      <point x="207" y="391.395" type="curve" smooth="yes"/>
      <point x="175" y="391.395"/>
      <point x="163" y="407.865"/>
      <point x="163" y="444.465" type="curve" smooth="yes"/>
      <point x="163" y="516.75"/>
      <point x="187" y="535.05"/>
    </contour>
    <contour>
      <point x="675" y="694" type="line"/>
      <point x="123" y="-27" type="line"/>
      <point x="127" y="-44" type="line"/>
      <point x="203" y="-94" type="line"/>
      <point x="753" y="623" type="line"/>
      <point x="746" y="647" type="line"/>
    </contour>
    <contour>
      <point x="735" y="366.915" type="curve" smooth="yes"/>
      <point x="604" y="366.915"/>
      <point x="528" y="279.99"/>
      <point x="528" y="138.165" type="curve" smooth="yes"/>
      <point x="528" y="44.835"/>
      <point x="576" y="-7.32"/>
      <point x="666" y="-7.32" type="curve" smooth="yes"/>
      <point x="796" y="-7.32"/>
      <point x="871" y="79.605"/>
      <point x="871" y="221.43" type="curve" smooth="yes"/>
      <point x="871" y="314.76"/>
      <point x="823" y="366.915"/>
    </contour>
    <contour>
      <point x="707" y="247.05" type="curve" smooth="yes"/>
      <point x="740" y="247.05"/>
      <point x="754" y="231.495"/>
      <point x="754" y="193.98" type="curve" smooth="yes"/>
      <point x="754" y="140.91"/>
      <point x="746" y="103.395"/>
      <point x="689" y="103.395" type="curve" smooth="yes"/>
      <point x="657" y="103.395"/>
      <point x="645" y="119.865"/>
      <point x="645" y="156.465" type="curve" smooth="yes"/>
      <point x="645" y="228.75"/>
      <point x="669" y="247.05"/>
    </contour>
  </outline>
</glyph>
<glyph name="quotesingle" format="2">
  <advance width="250.132"/>
  <unicode hex="0027"/>
  <outline>
    <contour>
      <point x="254" y="646" type="line"/>
      <point x="102" y="637" type="line"/>
      <point x="79" y="369" type="line"/>
      <point x="93" y="358" type="line"/>
      <point x="182" y="372" type="line"/>
      <point x="263" y="634" type="line"/>
    </contour>
  </outline>
</glyph>
<glyph name="asterisk" format="2">
  <advance width="394.053"/>
  <unicode hex="002A"/>
  <outline>
    <contour>
      <point x="179" y="533" type="line"/>
      <point x="75" y="452" type="line"/>
      <point x="74" y="440" type="line"/>
      <point x="103" y="422"/>
      <point x="134" y="406"/>
      <point x="163" y="398" type="curve"/>
      <point x="227" y="498" type="line"/>
      <point x="225" y="509" type="line"/>
    </contour>
    <contour>
      <point x="84" y="679" type="line"/>
      <point x="72" y="676" type="line"/>
      <point x="63" y="643"/>
      <point x="58" y="609"/>
      <point x="59" y="579" type="curve"/>
      <point x="173" y="549" type="line"/>
      <point x="184" y="554" type="line"/>
      <point x="193" y="605" type="line"/>
    </contour>
    <contour>
      <point x="281" y="534" type="line"/>
      <point x="244" y="499" type="line"/>
      <point x="289" y="374" type="line"/>
      <point x="299" y="370" type="line"/>
      <point x="326" y="392"/>
      <point x="350" y="415"/>
      <point x="368" y="440" type="curve"/>
      <point x="293" y="533" type="line"/>
    </contour>
    <contour>
      <point x="296" y="751" type="line"/>
      <point x="262" y="750"/>
      <point x="227" y="744"/>
      <point x="199" y="734" type="curve"/>
      <point x="205" y="616" type="line"/>
      <point x="214" y="608" type="line"/>
      <point x="265" y="614" type="line"/>
      <point x="301" y="741" type="line"/>
    </contour>
    <contour>
      <point x="391" y="648" type="curve"/>
      <point x="279" y="606" type="line"/>
      <point x="274" y="595" type="line"/>
      <point x="297" y="549" type="line"/>
      <point x="429" y="553" type="line"/>
      <point x="436" y="561" type="line"/>
      <point x="424" y="594"/>
      <point x="408" y="624"/>
    </contour>
  </outline>
</glyph>
<glyph name="plus" format="2">
  <advance width="477"/>
  <unicode hex="002B"/>
  <outline>
    <contour>
      <point x="320" y="481" type="line"/>
      <point x="202" y="472" type="line"/>
      <point x="184" y="320" type="line"/>
      <point x="32" y="320" type="line"/>
      <point x="9" y="203" type="line"/>
      <point x="19" y="190" type="line"/>
      <point x="168" y="190" type="line"/>
      <point x="149" y="41" type="line"/>
      <point x="161" y="29" type="line"/>
      <point x="279" y="38" type="line"/>
      <point x="298" y="190" type="line"/>
      <point x="448" y="190" type="line"/>
      <point x="472" y="307" type="line"/>
      <point x="461" y="320" type="line"/>
      <point x="314" y="320" type="line"/>
      <point x="332" y="469" type="line"/>
    </contour>
  </outline>
</glyph>
<glyph name="period" format="2">
  <advance width="230"/>
  <unicode hex="002E"/>
  <outline>
    <contour>
      <point x="101" y="190" type="curve" smooth="yes"/>
      <point x="38" y="190"/>
      <point x="-1" y="150"/>
      <point x="-1" y="86" type="curve" smooth="yes"/>
      <point x="-1" y="25"/>
      <point x="32" y="-9"/>
      <point x="93" y="-9" type="curve" smooth="yes"/>
      <point x="155" y="-9"/>
      <point x="194" y="31"/>
      <point x="194" y="95" type="curve" smooth="yes"/>
      <point x="194" y="155"/>
      <point x="160" y="190"/>
    </contour>
  </outline>
</glyph>
<glyph name="one" format="2">
  <advance width="379.339"/>
  <unicode hex="0031"/>
  <outline>
    <contour>
      <point x="310" y="522" type="line"/>
      <point x="31" y="446" type="line"/>
      <point x="12" y="288" type="line"/>
      <point x="23" y="279" type="line"/>
      <point x="119" y="299" type="line"/>
      <point x="106" y="190" type="line"/>
      <point x="74" y="0" type="line"/>
      <point x="272" y="0" type="line"/>
      <point x="290" y="210" type="line"/>
      <point x="336" y="502" type="line"/>
    </contour>
  </outline>
</glyph>
<glyph name="two" format="2">
  <advance width="490.051"/>
  <unicode hex="0032"/>
  <outline>
    <contour>
      <point x="274" y="522" type="curve" smooth="yes"/>
      <point x="201" y="522"/>
      <point x="129" y="499"/>
      <point x="53" y="459" type="curve"/>
      <point x="67" y="307" type="line"/>
      <point x="88" y="307" type="line"/>
      <point x="133" y="337"/>
      <point x="185" y="357"/>
      <point x="221" y="357" type="curve" smooth="yes"/>
      <point x="243" y="357"/>
      <point x="253" y="349"/>
      <point x="253" y="336" type="curve" smooth="yes"/>
      <point x="253" y="312"/>
      <point x="216" y="278"/>
      <point x="157" y="232" type="curve" smooth="yes"/>
      <point x="17" y="122" type="line"/>
      <point x="2" y="4" type="line"/>
      <point x="10" y="-3" type="line"/>
      <point x="47" y="0" type="line"/>
      <point x="277" y="0" type="line"/>
      <point x="420" y="-8" type="line"/>
      <point x="461" y="146" type="line"/>
      <point x="452" y="158" type="line"/>
      <point x="354" y="148" type="line"/>
      <point x="277" y="148" type="line" smooth="yes"/>
      <point x="274" y="153" type="line"/>
      <point x="324" y="199" type="line" smooth="yes"/>
      <point x="420" y="287"/>
      <point x="455" y="337"/>
      <point x="455" y="391" type="curve" smooth="yes"/>
      <point x="455" y="477"/>
      <point x="375" y="522"/>
    </contour>
  </outline>
</glyph>
<glyph name="three" format="2">
  <advance width="453.238"/>
  <unicode hex="0033"/>
  <outline>
    <contour>
      <point x="244" y="524" type="curve" smooth="yes"/>
      <point x="176" y="524"/>
      <point x="109" y="504"/>
      <point x="43" y="469" type="curve"/>
      <point x="55" y="334" type="line"/>
      <point x="75" y="334" type="line"/>
      <point x="119" y="353"/>
      <point x="156" y="366"/>
      <point x="190" y="366" type="curve" smooth="yes"/>
      <point x="218" y="366"/>
      <point x="231" y="357"/>
      <point x="231" y="337" type="curve" smooth="yes"/>
      <point x="231" y="308"/>
      <point x="196" y="284"/>
      <point x="168" y="283" type="curve" smooth="yes"/>
      <point x="108" y="280" type="line"/>
      <point x="87" y="146" type="line"/>
      <point x="93" y="134" type="line"/>
      <point x="177" y="134" type="line"/>
      <point x="208" y="134"/>
      <point x="219" y="124"/>
      <point x="219" y="104" type="curve" smooth="yes"/>
      <point x="219" y="72"/>
      <point x="191" y="54"/>
      <point x="129" y="54" type="curve" smooth="yes"/>
      <point x="91" y="54"/>
      <point x="53" y="61"/>
      <point x="10" y="74" type="curve"/>
      <point x="-5" y="62" type="line"/>
      <point x="-12" y="-82" type="line"/>
      <point x="23" y="-89"/>
      <point x="76" y="-93"/>
      <point x="114" y="-93" type="curve" smooth="yes"/>
      <point x="292" y="-93"/>
      <point x="408" y="-9"/>
      <point x="408" y="111" type="curve" smooth="yes"/>
      <point x="408" y="169"/>
      <point x="381" y="200"/>
      <point x="329" y="229" type="curve"/>
      <point x="329" y="235" type="line"/>
      <point x="400" y="269"/>
      <point x="437" y="339"/>
      <point x="437" y="391" type="curve" smooth="yes"/>
      <point x="437" y="469"/>
      <point x="356" y="524"/>
    </contour>
  </outline>
</glyph>
<glyph name="five" format="2">
  <advance width="448"/>
  <unicode hex="0035"/>
  <outline>
    <contour>
      <point x="447" y="522" type="line"/>
      <point x="330" y="514" type="line"/>
      <point x="169" y="514" type="line"/>
      <point x="106" y="518" type="line"/>
      <point x="85" y="498" type="line"/>
      <point x="46" y="184" type="line"/>
      <point x="56" y="170" type="line"/>
      <point x="163" y="152" type="line" smooth="yes"/>
      <point x="201" y="146"/>
      <point x="218" y="133"/>
      <point x="218" y="109" type="curve" smooth="yes"/>
      <point x="218" y="73"/>
      <point x="184" y="53"/>
      <point x="126" y="53" type="curve" smooth="yes"/>
      <point x="83" y="53"/>
      <point x="43" y="59"/>
      <point x="-1" y="72" type="curve"/>
      <point x="-14" y="59" type="line"/>
      <point x="-21" y="-81" type="line"/>
      <point x="17" y="-89"/>
      <point x="67" y="-95"/>
      <point x="106" y="-95" type="curve" smooth="yes"/>
      <point x="282" y="-95"/>
      <point x="407" y="3"/>
      <point x="407" y="144" type="curve" smooth="yes"/>
      <point x="407" y="222"/>
      <point x="362" y="268"/>
      <point x="268" y="289" type="curve" smooth="yes"/>
      <point x="209" y="302" type="line"/>
      <point x="217" y="363" type="line"/>
      <point x="296" y="363" type="line"/>
      <point x="405" y="348" type="line"/>
      <point x="420" y="362" type="line"/>
      <point x="457" y="510" type="line"/>
    </contour>
  </outline>
</glyph>
<glyph name="seven" format="2">
  <advance width="450.62"/>
  <unicode hex="0037"/>
  <outline>
    <contour>
      <point x="55" y="519" type="line"/>
      <point x="23" y="356" type="line"/>
      <point x="30" y="341" type="line"/>
      <point x="143" y="353" type="line"/>
      <point x="252" y="353" type="line"/>
      <point x="25" y="-24" type="line"/>
      <point x="34" y="-54" type="line"/>
      <point x="184" y="-97" type="line"/>
      <point x="277" y="89" type="line"/>
      <point x="443" y="374" type="line"/>
      <point x="461" y="516" type="line"/>
      <point x="403" y="514" type="line"/>
      <point x="193" y="514" type="line"/>
    </contour>
  </outline>
</glyph>
<glyph name="eight" format="2">
  <advance width="516"/>
  <unicode hex="0038"/>
  <outline>
    <contour>
      <point x="297" y="598" type="curve" smooth="yes"/>
      <point x="158" y="598"/>
      <point x="68" y="524"/>
      <point x="68" y="415" type="curve" smooth="yes"/>
      <point x="68" y="348"/>
      <point x="100" y="309"/>
      <point x="142" y="283" type="curve"/>
      <point x="141" y="275" type="line"/>
      <point x="63" y="246"/>
      <point x="24" y="205"/>
      <point x="24" y="135" type="curve" smooth="yes"/>
      <point x="24" y="47"/>
      <point x="105" y="-12"/>
      <point x="243" y="-12" type="curve" smooth="yes"/>
      <point x="383" y="-12"/>
      <point x="475" y="63"/>
      <point x="475" y="173" type="curve" smooth="yes"/>
      <point x="475" y="239"/>
      <point x="442" y="276"/>
      <point x="394" y="305" type="curve"/>
      <point x="395" y="313" type="line"/>
      <point x="457" y="349"/>
      <point x="490" y="394"/>
      <point x="490" y="453" type="curve" smooth="yes"/>
      <point x="490" y="541"/>
      <point x="419" y="598"/>
    </contour>
    <contour>
      <point x="243" y="225" type="curve"/>
      <point x="283" y="209"/>
      <point x="315" y="192"/>
      <point x="315" y="162" type="curve" smooth="yes"/>
      <point x="315" y="140"/>
      <point x="294" y="116"/>
      <point x="247" y="116" type="curve" smooth="yes"/>
      <point x="206" y="116"/>
      <point x="187" y="133"/>
      <point x="187" y="165" type="curve" smooth="yes"/>
      <point x="187" y="192"/>
      <point x="202" y="210"/>
    </contour>
    <contour>
      <point x="283" y="466" type="curve" smooth="yes"/>
      <point x="317" y="466"/>
      <point x="335" y="451"/>
      <point x="335" y="425" type="curve" smooth="yes"/>
      <point x="335" y="403"/>
      <point x="321" y="382"/>
      <point x="293" y="360" type="curve"/>
      <point x="251" y="377"/>
      <point x="228" y="394"/>
      <point x="228" y="423" type="curve" smooth="yes"/>
      <point x="228" y="447"/>
      <point x="246" y="466"/>
    </contour>
  </outline>
</glyph>
<glyph name="less" format="2">
  <advance width="492"/>
  <unicode hex="003C"/>
  <outline>
    <contour>
      <point x="445" y="480" type="line"/>
      <point x="64" y="350" type="line"/>
      <point x="50" y="333" type="line"/>
      <point x="31" y="177" type="line"/>
      <point x="381" y="43" type="line"/>
      <point x="399" y="56" type="line"/>
      <point x="438" y="164" type="line"/>
      <point x="174" y="255" type="line"/>
      <point x="175" y="264" type="line"/>
      <point x="462" y="356" type="line"/>
      <point x="471" y="369" type="line"/>
    </contour>
  </outline>
</glyph>
<glyph name="greater" format="2">
  <advance width="503"/>
  <unicode hex="003E"/>
  <outline>
    <contour>
      <point x="112" y="480" type="line"/>
      <point x="59" y="369" type="line"/>
      <point x="64" y="356" type="line"/>
      <point x="330" y="264" type="line"/>
      <point x="329" y="255" type="line"/>
      <point x="42" y="164" type="line"/>
      <point x="54" y="56" type="line"/>
      <point x="69" y="43" type="line"/>
      <point x="452" y="177" type="line"/>
      <point x="471" y="333" type="line"/>
      <point x="461" y="350" type="line"/>
    </contour>
  </outline>
</glyph>
<glyph name="question" format="2">
  <advance width="351.764"/>
  <unicode hex="003F"/>
  <outline>
    <contour>
      <point x="139" y="677" type="curve"/>
      <point x="121" y="668" type="line"/>
      <point x="75" y="569" type="line"/>
      <point x="87" y="551" type="line"/>
      <point x="205" y="543"/>
      <point x="241" y="527"/>
      <point x="241" y="494" type="curve" smooth="yes"/>
      <point x="241" y="467"/>
      <point x="221" y="449"/>
      <point x="186" y="435" type="curve" smooth="yes"/>
      <point x="98" y="400" type="line"/>
      <point x="90" y="389" type="line"/>
      <point x="86" y="252" type="line"/>
      <point x="97" y="240" type="line"/>
      <point x="236" y="260" type="line"/>
      <point x="238" y="331" type="line"/>
      <point x="241" y="337" type="line"/>
      <point x="303" y="367" type="line" smooth="yes"/>
      <point x="378" y="403"/>
      <point x="421" y="461"/>
      <point x="421" y="523" type="curve" smooth="yes"/>
      <point x="421" y="616"/>
      <point x="320" y="669"/>
    </contour>
    <contour>
      <point x="158" y="190" type="curve" smooth="yes"/>
      <point x="95" y="190"/>
      <point x="56" y="150"/>
      <point x="56" y="86" type="curve" smooth="yes"/>
      <point x="56" y="25"/>
      <point x="89" y="-9"/>
      <point x="150" y="-9" type="curve" smooth="yes"/>
      <point x="212" y="-9"/>
      <point x="251" y="31"/>
      <point x="251" y="95" type="curve" smooth="yes"/>
      <point x="251" y="155"/>
      <point x="217" y="190"/>
    </contour>
  </outline>
</glyph>
<glyph name="B" format="2">
  <advance width="631"/>
  <unicode hex="0042"/>
  <outline>
    <contour>
      <point x="391" y="648" type="curve" smooth="yes"/>
      <point x="112" y="647" type="line"/>
      <point x="205" y="511" type="line"/>
      <point x="258" y="514"/>
      <point x="280" y="515"/>
      <point x="305" y="515" type="curve" smooth="yes"/>
      <point x="388" y="515"/>
      <point x="409" y="502"/>
      <point x="409" y="460" type="curve" smooth="yes"/>
      <point x="409" y="419"/>
      <point x="388" y="393"/>
      <point x="344" y="380" type="curve"/>
      <point x="149" y="389" type="line"/>
      <point x="133" y="252" type="line"/>
      <point x="349" y="256" type="line"/>
      <point x="382" y="244"/>
      <point x="399" y="231"/>
      <point x="399" y="200" type="curve" smooth="yes"/>
      <point x="399" y="153"/>
      <point x="361" y="125"/>
      <point x="300" y="125" type="curve"/>
      <point x="271" y="125"/>
      <point x="207" y="131"/>
      <point x="169" y="139" type="curve"/>
      <point x="33" y="0" type="line"/>
      <point x="102" y="-3"/>
      <point x="193" y="-7"/>
      <point x="252" y="-7" type="curve" smooth="yes"/>
      <point x="500" y="-7"/>
      <point x="602" y="64"/>
      <point x="602" y="196" type="curve" smooth="yes"/>
      <point x="602" y="265"/>
      <point x="574" y="302"/>
      <point x="498" y="333" type="curve"/>
      <point x="578" y="368"/>
      <point x="616" y="431"/>
      <point x="616" y="497" type="curve" smooth="yes"/>
      <point x="616" y="599"/>
      <point x="525" y="648"/>
    </contour>
    <contour>
      <point x="308" y="647" type="line"/>
      <point x="112" y="647" type="line"/>
      <point x="66" y="190" type="line"/>
      <point x="33" y="0" type="line"/>
      <point x="226" y="0" type="line"/>
      <point x="244" y="210" type="line"/>
    </contour>
  </outline>
</glyph>
<glyph name="E" format="2">
  <advance width="541"/>
  <unicode hex="0045"/>
  <anchor x="298" y="0" name="bottom"/>
  <anchor x="458" y="10" name="ogonek"/>
  <anchor x="337" y="647" name="top"/>
  <anchor x="70" y="647" name="topleft"/>
  <outline>
    <contour>
      <point x="315" y="647" type="line"/>
      <point x="111" y="647" type="line"/>
      <point x="64" y="190" type="line"/>
      <point x="31" y="0" type="line"/>
      <point x="232" y="0" type="line"/>
      <point x="250" y="210" type="line"/>
    </contour>
    <contour>
      <point x="508" y="160" type="line"/>
      <point x="341" y="154" type="line"/>
      <point x="184" y="154" type="line"/>
      <point x="166" y="11" type="line"/>
      <point x="165" y="0" type="line"/>
      <point x="487" y="0" type="line"/>
      <point x="517" y="146" type="line"/>
    </contour>
    <contour>
      <point x="482" y="405" type="line"/>
      <point x="377" y="402" type="line"/>
      <point x="224" y="402" type="line"/>
      <point x="207" y="259" type="line"/>
      <point x="206" y="248" type="line"/>
      <point x="346" y="248" type="line"/>
      <point x="461" y="245" type="line"/>
      <point x="491" y="391" type="line"/>
    </contour>
    <contour>
      <point x="575" y="647" type="line"/>
      <point x="245" y="647" type="line"/>
      <point x="227" y="504" type="line"/>
      <point x="226" y="493" type="line"/>
      <point x="395" y="493" type="line"/>
      <point x="553" y="487" type="line"/>
      <point x="584" y="633" type="line"/>
    </contour>
  </outline>
</glyph>
<glyph name="H" format="2">
  <advance width="712"/>
  <unicode hex="0048"/>
  <anchor x="327" y="0" name="bottom"/>
  <anchor x="417" y="0" name="bottomright"/>
  <anchor x="374" y="324" name="center"/>
  <anchor x="406" y="647" name="top"/>
  <anchor x="70" y="647" name="topleft"/>
  <outline>
    <contour>
      <point x="701" y="647" type="line"/>
      <point x="497" y="647" type="line"/>
      <point x="451" y="190" type="line"/>
      <point x="417" y="0" type="line"/>
      <point x="618" y="0" type="line"/>
      <point x="636" y="210" type="line"/>
    </contour>
    <contour>
      <point x="315" y="647" type="line"/>
      <point x="111" y="647" type="line"/>
      <point x="65" y="190" type="line"/>
      <point x="31" y="0" type="line"/>
      <point x="232" y="0" type="line"/>
      <point x="250" y="210" type="line"/>
    </contour>
    <contour>
      <point x="489" y="402" type="line"/>
      <point x="379" y="400" type="line"/>
      <point x="254" y="403" type="line"/>
      <point x="234" y="238" type="line"/>
      <point x="348" y="242" type="line"/>
      <point x="469" y="240" type="line"/>
    </contour>
  </outline>
</glyph>
<glyph name="O" format="2">
  <advance width="658"/>
  <unicode hex="004F"/>
  <anchor x="300" y="0" name="bottom"/>
  <anchor x="340" y="324" name="center"/>
  <anchor x="428" y="10" name="ogonek"/>
  <anchor x="379" y="647" name="top"/>
  <anchor x="70" y="647" name="topleft"/>
  <anchor x="688" y="647" name="topright"/>
  <outline>
    <contour>
      <point x="380" y="659" type="curve" smooth="yes"/>
      <point x="150" y="659"/>
      <point x="24" y="498"/>
      <point x="24" y="276" type="curve" smooth="yes"/>
      <point x="24" y="78"/>
      <point x="129" y="-12"/>
      <point x="299" y="-12" type="curve" smooth="yes"/>
      <point x="529" y="-12"/>
      <point x="655" y="152"/>
      <point x="655" y="374" type="curve" smooth="yes"/>
      <point x="655" y="571"/>
      <point x="550" y="659"/>
    </contour>
    <contour>
      <point x="357" y="499" type="curve" smooth="yes"/>
      <point x="428" y="499"/>
      <point x="443" y="464"/>
      <point x="443" y="362" type="curve" smooth="yes"/>
      <point x="443" y="170"/>
      <point x="390" y="136"/>
      <point x="320" y="136" type="curve" smooth="yes"/>
      <point x="249" y="136"/>
      <point x="234" y="171"/>
      <point x="234" y="273" type="curve" smooth="yes"/>
      <point x="234" y="465"/>
      <point x="287" y="499"/>
    </contour>
  </outline>
</glyph>
<glyph name="Q" format="2">
  <advance width="663"/>
  <unicode hex="0051"/>
  <outline>
    <contour>
      <point x="383" y="659" type="curve" smooth="yes"/>
      <point x="153" y="659"/>
      <point x="24" y="498"/>
      <point x="24" y="276" type="curve" smooth="yes"/>
      <point x="24" y="78"/>
      <point x="126" y="-12"/>
      <point x="296" y="-12" type="curve" smooth="yes"/>
      <point x="526" y="-12"/>
      <point x="655" y="152"/>
      <point x="655" y="374" type="curve" smooth="yes"/>
      <point x="655" y="571"/>
      <point x="553" y="659"/>
    </contour>
    <contour>
      <point x="423" y="74" type="curve"/>
      <point x="278" y="9" type="line"/>
      <point x="364" y="-78"/>
      <point x="465" y="-151"/>
      <point x="578" y="-212" type="curve"/>
      <point x="593" y="-205" type="line"/>
      <point x="638" y="-169"/>
      <point x="673" y="-127"/>
      <point x="704" y="-78" type="curve"/>
      <point x="698" y="-60" type="line"/>
      <point x="600" y="-26"/>
      <point x="510" y="19"/>
    </contour>
    <contour>
      <point x="357" y="499" type="curve" smooth="yes"/>
      <point x="428" y="499"/>
      <point x="443" y="464"/>
      <point x="443" y="362" type="curve" smooth="yes"/>
      <point x="443" y="170"/>
      <point x="390" y="136"/>
      <point x="320" y="136" type="curve" smooth="yes"/>
      <point x="249" y="136"/>
      <point x="234" y="171"/>
      <point x="234" y="273" type="curve" smooth="yes"/>
      <point x="234" y="465"/>
      <point x="287" y="499"/>
    </contour>
  </outline>
</glyph>
<glyph name="R" format="2">
  <advance width="631"/>
  <unicode hex="0052"/>
  <anchor x="287" y="0" name="bottom"/>
  <anchor x="366" y="647" name="top"/>
  <outline>
    <contour>
      <point x="408" y="648" type="curve"/>
      <point x="111" y="647" type="line"/>
      <point x="211" y="500" type="line"/>
      <point x="330" y="509" type="line"/>
      <point x="384" y="506"/>
      <point x="408" y="486"/>
      <point x="408" y="442" type="curve" smooth="yes"/>
      <point x="408" y="390"/>
      <point x="391" y="356"/>
      <point x="342" y="335" type="curve"/>
      <point x="145" y="346" type="line"/>
      <point x="126" y="193" type="line"/>
      <point x="346" y="193" type="line"/>
      <point x="514" y="227"/>
      <point x="623" y="339"/>
      <point x="623" y="475" type="curve" smooth="yes"/>
      <point x="623" y="586"/>
      <point x="540" y="648"/>
    </contour>
    <contour>
      <point x="315" y="647" type="line"/>
      <point x="111" y="647" type="line"/>
      <point x="65" y="190" type="line"/>
      <point x="31" y="0" type="line"/>
      <point x="232" y="0" type="line"/>
      <point x="250" y="210" type="line"/>
    </contour>
    <contour>
      <point x="470" y="291" type="curve"/>
      <point x="289" y="289" type="line"/>
      <point x="314" y="191"/>
      <point x="347" y="96"/>
      <point x="379" y="4" type="curve"/>
      <point x="396" y="-12" type="line"/>
      <point x="465" y="-8"/>
      <point x="534" y="5"/>
      <point x="602" y="25" type="curve"/>
      <point x="607" y="47" type="line"/>
      <point x="557" y="127"/>
      <point x="512" y="209"/>
    </contour>
  </outline>
</glyph>
<glyph name="U" format="2">
  <advance width="654"/>
  <unicode hex="0055"/>
  <anchor x="298" y="0" name="bottom"/>
  <anchor x="429" y="10" name="ogonek"/>
  <anchor x="377" y="647" name="top"/>
  <anchor x="684" y="647" name="topright"/>
  <outline>
    <contour>
      <point x="658" y="647" type="line"/>
      <point x="454" y="647" type="line"/>
      <point x="414" y="243" type="line" smooth="yes"/>
      <point x="407" y="175"/>
      <point x="377" y="146"/>
      <point x="314" y="146" type="curve" smooth="yes"/>
      <point x="261" y="146"/>
      <point x="238" y="167"/>
      <point x="238" y="216" type="curve" smooth="yes"/>
      <point x="238" y="224"/>
      <point x="239" y="233"/>
      <point x="240" y="243" type="curve" smooth="yes"/>
      <point x="298" y="647" type="line"/>
      <point x="97" y="647" type="line"/>
      <point x="63" y="319" type="line"/>
      <point x="48" y="216" type="line" smooth="yes"/>
      <point x="46" y="201"/>
      <point x="45" y="186"/>
      <point x="45" y="173" type="curve" smooth="yes"/>
      <point x="45" y="53"/>
      <point x="140" y="-12"/>
      <point x="297" y="-12" type="curve" smooth="yes"/>
      <point x="478" y="-12"/>
      <point x="579" y="69"/>
      <point x="598" y="216" type="curve" smooth="yes"/>
      <point x="611" y="319" type="line"/>
    </contour>
  </outline>
</glyph>
<glyph name="V" format="2">
  <advance width="616"/>
  <unicode hex="0056"/>
  <outline>
    <contour>
      <point x="670" y="647" type="line"/>
      <point x="474" y="647" type="line"/>
      <point x="440" y="528" type="line"/>
      <point x="306" y="179" type="line"/>
      <point x="294" y="179" type="line"/>
      <point x="263" y="540" type="line"/>
      <point x="258" y="647" type="line"/>
      <point x="55" y="647" type="line"/>
      <point x="153" y="0" type="line"/>
      <point x="395" y="0" type="line"/>
    </contour>
  </outline>
</glyph>
<glyph name="W" format="2">
  <advance width="915"/>
  <unicode hex="0057"/>
  <anchor x="487" y="647" name="top"/>
  <outline>
    <contour>
      <point x="965" y="647" type="line"/>
      <point x="780" y="647" type="line"/>
      <point x="748" y="535" type="line"/>
      <point x="629" y="202" type="line"/>
      <point x="618" y="202" type="line"/>
      <point x="590" y="526" type="line"/>
      <point x="591" y="647" type="line"/>
      <point x="387" y="647" type="line"/>
      <point x="403" y="497" type="line"/>
      <point x="292" y="202" type="line"/>
      <point x="281" y="202" type="line"/>
      <point x="261" y="547" type="line"/>
      <point x="263" y="647" type="line"/>
      <point x="68" y="647" type="line"/>
      <point x="140" y="0" type="line"/>
      <point x="354" y="0" type="line"/>
      <point x="439" y="233" type="line"/>
      <point x="450" y="233" type="line"/>
      <point x="482" y="0" type="line"/>
      <point x="695" y="0" type="line"/>
    </contour>
  </outline>
</glyph>
<glyph name="Y" format="2">
  <advance width="595"/>
  <unicode hex="0059"/>
  <anchor x="269" y="0" name="bottom"/>
  <anchor x="281" y="167" name="center"/>
  <anchor x="348" y="647" name="top"/>
  <anchor x="70" y="647" name="topleft"/>
  <outline>
    <contour>
      <point x="665" y="647" type="line"/>
      <point x="460" y="647" type="line"/>
      <point x="430" y="586" type="line"/>
      <point x="322" y="398" type="line"/>
      <point x="310" y="398" type="line"/>
      <point x="261" y="593" type="line"/>
      <point x="252" y="647" type="line"/>
      <point x="43" y="647" type="line"/>
      <point x="238" y="82" type="line"/>
      <point x="302" y="82" type="line"/>
    </contour>
    <contour>
      <point x="394" y="283" type="line"/>
      <point x="201" y="283" type="line"/>
      <point x="192" y="170" type="line"/>
      <point x="162" y="0" type="line"/>
      <point x="362" y="0" type="line"/>
      <point x="374" y="170" type="line"/>
    </contour>
  </outline>
</glyph>
<glyph name="bracketleft" format="2">
  <advance width="302.415"/>
  <unicode hex="005B"/>
  <outline>
    <contour>
      <point x="355" y="649" type="line"/>
      <point x="109" y="639" type="line"/>
      <point x="73" y="263" type="line"/>
      <point x="16" y="-113" type="line"/>
      <point x="260" y="-123" type="line"/>
      <point x="268" y="-114" type="line"/>
      <point x="279" y="-28" type="line"/>
      <point x="187" y="-13" type="line"/>
      <point x="254" y="539" type="line"/>
      <point x="350" y="554" type="line"/>
      <point x="361" y="640" type="line"/>
    </contour>
  </outline>
</glyph>
<glyph name="a" format="2">
  <advance width="488"/>
  <unicode hex="0061"/>
  <anchor x="215" y="0" name="bottom"/>
  <anchor x="422" y="7" name="ogonek"/>
  <anchor x="266" y="472" name="top"/>
  <outline>
    <contour>
      <point x="462" y="484" type="line"/>
      <point x="298" y="450" type="line"/>
      <point x="291" y="349" type="line"/>
      <point x="244" y="-4" type="line"/>
      <point x="422" y="7" type="line"/>
      <point x="426" y="116" type="line"/>
      <point x="473" y="476" type="line"/>
    </contour>
    <contour>
      <point x="217" y="244" type="move"/>
    </contour>
    <contour>
      <point x="248" y="478" type="line"/>
      <point x="81" y="422"/>
      <point x="8" y="278"/>
      <point x="8" y="157" type="curve" smooth="yes"/>
      <point x="8" y="76"/>
      <point x="35" y="16"/>
      <point x="146" y="-11" type="curve"/>
      <point x="169" y="-11" type="line"/>
      <point x="199" y="25"/>
      <point x="222" y="64"/>
      <point x="243" y="105" type="curve"/>
      <point x="262" y="105" type="line"/>
      <point x="301" y="348" type="line"/>
      <point x="250" y="215"/>
      <point x="217" y="153"/>
      <point x="194" y="153" type="curve" smooth="yes"/>
      <point x="181" y="153"/>
      <point x="173" y="175"/>
      <point x="173" y="232" type="curve" smooth="yes"/>
      <point x="173" y="308"/>
      <point x="188" y="347"/>
      <point x="221" y="347" type="curve"/>
      <point x="341" y="317" type="line"/>
      <point x="437" y="447" type="line"/>
      <point x="255" y="478" type="line"/>
    </contour>
  </outline>
</glyph>
<glyph name="c" format="2">
  <advance width="381"/>
  <unicode hex="0063"/>
  <anchor x="199" y="0" name="bottom"/>
  <anchor x="247" y="472" name="top"/>
  <outline>
    <contour>
      <point x="295" y="481" type="line"/>
      <point x="123" y="481"/>
      <point x="12" y="362"/>
      <point x="12" y="183" type="curve" smooth="yes"/>
      <point x="12" y="64"/>
      <point x="61" y="7"/>
      <point x="173" y="-10" type="curve"/>
      <point x="196" y="-10" type="line"/>
      <point x="271" y="17"/>
      <point x="315" y="55"/>
      <point x="359" y="130" type="curve"/>
      <point x="305" y="195" type="line"/>
      <point x="282" y="196" type="line"/>
      <point x="251" y="154"/>
      <point x="236" y="142"/>
      <point x="216" y="142" type="curve" smooth="yes"/>
      <point x="192" y="142"/>
      <point x="184" y="160"/>
      <point x="184" y="219" type="curve" smooth="yes"/>
      <point x="184" y="307"/>
      <point x="202" y="345"/>
      <point x="245" y="345" type="curve" smooth="yes"/>
      <point x="264" y="345"/>
      <point x="273" y="338"/>
      <point x="298" y="306" type="curve"/>
      <point x="337" y="307" type="line"/>
      <point x="388" y="437" type="line"/>
      <point x="384" y="455" type="line"/>
    </contour>
  </outline>
</glyph>
<glyph name="e" format="2">
  <advance width="437"/>
  <unicode hex="0065"/>
  <anchor x="214" y="0" name="bottom"/>
  <anchor x="324" y="40" name="ogonek"/>
  <anchor x="242" y="472" name="top"/>
  <outline>
    <contour>
      <point x="150" y="270" type="curve"/>
      <point x="150" y="170" type="line"/>
      <point x="347" y="215"/>
      <point x="425" y="267"/>
      <point x="425" y="354" type="curve" smooth="yes"/>
      <point x="425" y="422"/>
      <point x="382" y="467"/>
      <point x="303" y="482" type="curve"/>
      <point x="287" y="484" type="line"/>
      <point x="118" y="474"/>
      <point x="12" y="358"/>
      <point x="12" y="183" type="curve"/>
      <point x="12" y="65"/>
      <point x="73" y="3"/>
      <point x="202" y="-11" type="curve"/>
      <point x="218" y="-11" type="line"/>
      <point x="292" y="11"/>
      <point x="357" y="54"/>
      <point x="405" y="112" type="curve"/>
      <point x="352" y="179" type="line"/>
      <point x="332" y="183" type="line"/>
      <point x="277" y="136"/>
      <point x="256" y="125"/>
      <point x="231" y="125" type="curve" smooth="yes"/>
      <point x="193" y="125"/>
      <point x="178" y="157"/>
      <point x="178" y="234" type="curve" smooth="yes"/>
      <point x="178" y="329"/>
      <point x="197" y="371"/>
      <point x="241" y="371" type="curve" smooth="yes"/>
      <point x="260" y="371"/>
      <point x="268" y="363"/>
      <point x="268" y="343" type="curve" smooth="yes"/>
      <point x="268" y="304"/>
      <point x="239" y="286"/>
    </contour>
  </outline>
</glyph>
<glyph name="h" format="2">
  <advance width="528"/>
  <unicode hex="0068"/>
  <anchor x="235" y="0" name="bottom"/>
  <anchor x="294" y="236" name="center"/>
  <anchor x="178" y="660" name="top"/>
  <outline>
    <contour>
      <point x="370" y="474" type="curve"/>
      <point x="357" y="473" type="line"/>
      <point x="317" y="435"/>
      <point x="281" y="393"/>
      <point x="244" y="346" type="curve"/>
      <point x="224" y="346" type="line"/>
      <point x="189" y="156" type="line"/>
      <point x="244" y="252"/>
      <point x="286" y="291"/>
      <point x="307" y="291" type="curve" smooth="yes"/>
      <point x="318" y="291"/>
      <point x="324" y="285"/>
      <point x="324" y="269" type="curve"/>
      <point x="322" y="259" type="line"/>
      <point x="280" y="-4" type="line"/>
      <point x="462" y="7" type="line"/>
      <point x="466" y="119" type="line"/>
      <point x="504" y="349" type="line"/>
      <point x="505" y="363" type="line"/>
      <point x="506" y="418"/>
      <point x="454" y="460"/>
    </contour>
    <contour>
      <point x="275" y="704" type="line"/>
      <point x="96" y="693" type="line"/>
      <point x="93" y="580" type="line"/>
      <point x="14" y="-4" type="line"/>
      <point x="193" y="7" type="line"/>
      <point x="196" y="116" type="line"/>
    </contour>
  </outline>
</glyph>
<glyph name="m" format="2">
  <advance width="798.992"/>
  <unicode hex="006D"/>
  <anchor x="370" y="0" name="bottom"/>
  <anchor x="428" y="472" name="top"/>
  <outline>
    <contour>
      <point x="640" y="474" type="curve"/>
      <point x="627" y="473" type="line"/>
      <point x="588" y="435"/>
      <point x="551" y="393"/>
      <point x="515" y="346" type="curve"/>
      <point x="495" y="346" type="line"/>
      <point x="460" y="156" type="line"/>
      <point x="514" y="252"/>
      <point x="556" y="291"/>
      <point x="578" y="291" type="curve" smooth="yes"/>
      <point x="588" y="291"/>
      <point x="594" y="285"/>
      <point x="594" y="269" type="curve"/>
      <point x="593" y="259" type="line"/>
      <point x="550" y="-4" type="line"/>
      <point x="733" y="7" type="line"/>
      <point x="736" y="119" type="line"/>
      <point x="774" y="349" type="line"/>
      <point x="775" y="363" type="line"/>
      <point x="776" y="418"/>
      <point x="724" y="460"/>
    </contour>
    <contour>
      <point x="244" y="476" type="line"/>
      <point x="66" y="465" type="line"/>
      <point x="62" y="352" type="line"/>
      <point x="15" y="-4" type="line"/>
      <point x="193" y="7" type="line"/>
      <point x="197" y="116" type="line"/>
    </contour>
    <contour>
      <point x="369" y="474" type="curve"/>
      <point x="356" y="473" type="line"/>
      <point x="316" y="435"/>
      <point x="280" y="393"/>
      <point x="243" y="346" type="curve"/>
      <point x="223" y="346" type="line"/>
      <point x="188" y="156" type="line"/>
      <point x="243" y="252"/>
      <point x="285" y="291"/>
      <point x="306" y="291" type="curve" smooth="yes"/>
      <point x="316" y="291"/>
      <point x="322" y="285"/>
      <point x="322" y="269" type="curve"/>
      <point x="321" y="259" type="line"/>
      <point x="278" y="-4" type="line"/>
      <point x="461" y="7" type="line"/>
      <point x="464" y="119" type="line"/>
      <point x="502" y="349" type="line"/>
      <point x="503" y="363" type="line"/>
      <point x="504" y="418"/>
      <point x="453" y="460"/>
    </contour>
  </outline>
</glyph>
<glyph name="o" format="2">
  <advance width="469"/>
  <unicode hex="006F"/>
  <anchor x="206" y="0" name="bottom"/>
  <anchor x="235" y="236" name="center"/>
  <anchor x="342" y="45" name="ogonek"/>
  <anchor x="267" y="472" name="top"/>
  <anchor x="478" y="472" name="topright"/>
  <outline>
    <contour>
      <point x="290" y="484" type="line"/>
      <point x="119" y="474"/>
      <point x="12" y="361"/>
      <point x="12" y="183" type="curve" smooth="yes"/>
      <point x="12" y="72"/>
      <point x="70" y="11"/>
      <point x="162" y="-10" type="curve"/>
      <point x="178" y="-12" type="line"/>
      <point x="350" y="-3"/>
      <point x="457" y="109"/>
      <point x="457" y="301" type="curve" smooth="yes"/>
      <point x="457" y="404"/>
      <point x="396" y="462"/>
      <point x="306" y="482" type="curve"/>
    </contour>
    <contour>
      <point x="255" y="347" type="curve" smooth="yes"/>
      <point x="278" y="347"/>
      <point x="284" y="334"/>
      <point x="284" y="290" type="curve" smooth="yes"/>
      <point x="284" y="168"/>
      <point x="276" y="121"/>
      <point x="214" y="121" type="curve" smooth="yes"/>
      <point x="190" y="121"/>
      <point x="183" y="134"/>
      <point x="183" y="179" type="curve" smooth="yes"/>
      <point x="183" y="300"/>
      <point x="191" y="347"/>
    </contour>
  </outline>
</glyph>
<glyph name="r" format="2">
  <advance width="386"/>
  <unicode hex="0072"/>
  <anchor x="110" y="0" name="bottom"/>
  <anchor x="238" y="472" name="top"/>
  <outline>
    <contour>
      <point x="369" y="475" type="line"/>
      <point x="317" y="445"/>
      <point x="281" y="408"/>
      <point x="245" y="353" type="curve"/>
      <point x="209" y="353" type="line"/>
      <point x="185" y="181" type="line"/>
      <point x="236" y="233"/>
      <point x="266" y="249"/>
      <point x="318" y="253" type="curve"/>
      <point x="354" y="246" type="line"/>
      <point x="370" y="253" type="line"/>
      <point x="398" y="470" type="line"/>
    </contour>
    <contour>
      <point x="244" y="476" type="line"/>
      <point x="66" y="465" type="line"/>
      <point x="62" y="352" type="line"/>
      <point x="15" y="-4" type="line"/>
      <point x="193" y="7" type="line"/>
      <point x="197" y="116" type="line"/>
    </contour>
  </outline>
</glyph>
<glyph name="s" format="2">
  <advance width="386"/>
  <unicode hex="0073"/>
  <anchor x="173" y="0" name="bottom"/>
  <anchor x="234" y="472" name="top"/>
  <outline>
    <contour>
      <point x="265" y="480" type="curve"/>
      <point x="144" y="480"/>
      <point x="36" y="415"/>
      <point x="32" y="300" type="curve"/>
      <point x="30" y="184"/>
      <point x="198" y="160"/>
      <point x="198" y="119" type="curve" smooth="yes"/>
      <point x="198" y="111"/>
      <point x="191" y="100"/>
      <point x="172" y="100" type="curve" smooth="yes"/>
      <point x="138" y="100"/>
      <point x="86" y="125"/>
      <point x="47" y="170" type="curve"/>
      <point x="29" y="161" type="line"/>
      <point x="-13" y="15" type="line"/>
      <point x="33" y="2"/>
      <point x="79" y="-6"/>
      <point x="127" y="-11" type="curve"/>
      <point x="255" y="-11"/>
      <point x="355" y="61"/>
      <point x="355" y="163" type="curve" smooth="yes"/>
      <point x="355" y="291"/>
      <point x="193" y="299"/>
      <point x="193" y="346" type="curve" smooth="yes"/>
      <point x="193" y="357"/>
      <point x="201" y="365"/>
      <point x="216" y="365" type="curve" smooth="yes"/>
      <point x="242" y="365"/>
      <point x="285" y="346"/>
      <point x="323" y="309" type="curve"/>
      <point x="346" y="318" type="line"/>
      <point x="387" y="456" type="line"/>
      <point x="347" y="468"/>
      <point x="307" y="476"/>
    </contour>
  </outline>
</glyph>
<glyph name="t" format="2">
  <advance width="366"/>
  <unicode hex="0074"/>
  <anchor x="195" y="0" name="bottom"/>
  <anchor x="182" y="236" name="center"/>
  <anchor x="204" y="538" name="top"/>
  <anchor x="405" y="472" name="topright"/>
  <outline>
    <contour>
      <point x="193" y="-10" type="curve"/>
      <point x="256" y="10"/>
      <point x="304" y="55"/>
      <point x="344" y="130" type="curve"/>
      <point x="293" y="193" type="line"/>
      <point x="280" y="192" type="line"/>
      <point x="251" y="152"/>
      <point x="248" y="149"/>
      <point x="240" y="149" type="curve" smooth="yes"/>
      <point x="234" y="149"/>
      <point x="231" y="152"/>
      <point x="231" y="158" type="curve"/>
      <point x="232" y="166" type="line"/>
      <point x="296" y="588" type="line"/>
      <point x="284" y="598" type="line"/>
      <point x="114" y="560" type="line"/>
      <point x="93" y="355" type="line"/>
      <point x="61" y="137" type="line"/>
      <point x="58" y="107" type="line"/>
      <point x="55" y="36"/>
      <point x="108" y="-10"/>
    </contour>
    <contour>
      <point x="32" y="362" type="line"/>
      <point x="376" y="362" type="line"/>
      <point x="387" y="449" type="line"/>
      <point x="375" y="463" type="line"/>
      <point x="34" y="463" type="line"/>
      <point x="23" y="373" type="line"/>
    </contour>
  </outline>
</glyph>
<glyph name="u" format="2">
  <advance width="514"/>
  <unicode hex="0075"/>
  <anchor x="228" y="0" name="bottom"/>
  <anchor x="270" y="-4" name="bottomright"/>
  <anchor x="448" y="7" name="ogonek"/>
  <anchor x="286" y="472" name="top"/>
  <anchor x="523" y="472" name="topright"/>
  <outline>
    <contour>
      <point x="243" y="474" type="line"/>
      <point x="61" y="463" type="line"/>
      <point x="57" y="351" type="line"/>
      <point x="20" y="125" type="line"/>
      <point x="18" y="105" type="line"/>
      <point x="18" y="48"/>
      <point x="71" y="6"/>
      <point x="156" y="-4" type="curve"/>
      <point x="169" y="-3" type="line"/>
      <point x="208" y="34"/>
      <point x="240" y="72"/>
      <point x="273" y="116" type="curve"/>
      <point x="310" y="116" type="line"/>
      <point x="334" y="315" type="line"/>
      <point x="276" y="218"/>
      <point x="239" y="177"/>
      <point x="218" y="177" type="curve" smooth="yes"/>
      <point x="206" y="177"/>
      <point x="200" y="184"/>
      <point x="200" y="200" type="curve"/>
      <point x="201" y="213" type="line"/>
    </contour>
    <contour>
      <point x="499" y="476" type="line"/>
      <point x="321" y="465" type="line"/>
      <point x="317" y="352" type="line"/>
      <point x="270" y="-4" type="line"/>
      <point x="448" y="7" type="line"/>
      <point x="452" y="116" type="line"/>
    </contour>
  </outline>
</glyph>
<glyph name="z" format="2">
  <advance width="446"/>
  <unicode hex="007A"/>
  <anchor x="194" y="0" name="bottom"/>
  <anchor x="253" y="472" name="top"/>
  <outline>
    <contour>
      <point x="397" y="493" type="line"/>
      <point x="356" y="470" type="line"/>
      <point x="189" y="476" type="line"/>
      <point x="84" y="484" type="line"/>
      <point x="67" y="473" type="line"/>
      <point x="37" y="319" type="line"/>
      <point x="51" y="307" type="line"/>
      <point x="127" y="322" type="line"/>
      <point x="196" y="325" type="line"/>
      <point x="-28" y="41" type="line"/>
      <point x="24" y="-8" type="line"/>
      <point x="46" y="-8" type="line"/>
      <point x="72" y="15"/>
      <point x="85" y="23"/>
      <point x="108" y="23" type="curve" smooth="yes"/>
      <point x="154" y="23"/>
      <point x="206" y="-10"/>
      <point x="275" y="-10" type="curve" smooth="yes"/>
      <point x="359" y="-10"/>
      <point x="419" y="38"/>
      <point x="421" y="201" type="curve"/>
      <point x="351" y="219" type="line"/>
      <point x="330" y="213" type="line"/>
      <point x="321" y="159"/>
      <point x="308" y="154"/>
      <point x="273" y="154" type="curve" smooth="yes"/>
      <point x="271" y="154"/>
      <point x="236" y="154"/>
      <point x="236" y="154" type="curve"/>
      <point x="211" y="147" type="line"/>
      <point x="448" y="442" type="line"/>
    </contour>
  </outline>
</glyph>
<glyph name="braceleft" format="2">
  <advance width="302.677"/>
  <unicode hex="007B"/>
  <outline>
    <contour>
      <point x="271" y="659" type="curve" smooth="yes"/>
      <point x="158" y="659"/>
      <point x="94" y="606"/>
      <point x="94" y="510" type="curve" smooth="yes"/>
      <point x="94" y="471"/>
      <point x="101" y="433"/>
      <point x="101" y="404" type="curve" smooth="yes"/>
      <point x="101" y="364"/>
      <point x="79" y="338"/>
      <point x="37" y="321" type="curve"/>
      <point x="26" y="234" type="line"/>
      <point x="57" y="220"/>
      <point x="73" y="198"/>
      <point x="73" y="171" type="curve" smooth="yes"/>
      <point x="73" y="126"/>
      <point x="32" y="73"/>
      <point x="32" y="5" type="curve" smooth="yes"/>
      <point x="32" y="-63"/>
      <point x="82" y="-104"/>
      <point x="177" y="-104" type="curve" smooth="yes"/>
      <point x="205" y="-104"/>
      <point x="231" y="-100"/>
      <point x="258" y="-92" type="curve"/>
      <point x="267" y="-79" type="line"/>
      <point x="264" y="17" type="line"/>
      <point x="252" y="14"/>
      <point x="241" y="12"/>
      <point x="230" y="12" type="curve" smooth="yes"/>
      <point x="203" y="12"/>
      <point x="189" y="27"/>
      <point x="189" y="53" type="curve" smooth="yes"/>
      <point x="189" y="94"/>
      <point x="230" y="134"/>
      <point x="230" y="183" type="curve" smooth="yes"/>
      <point x="230" y="219"/>
      <point x="211" y="254"/>
      <point x="172" y="274" type="curve"/>
      <point x="173" y="281" type="line"/>
      <point x="227" y="305"/>
      <point x="256" y="348"/>
      <point x="256" y="393" type="curve" smooth="yes"/>
      <point x="256" y="424"/>
      <point x="243" y="459"/>
      <point x="243" y="487" type="curve" smooth="yes"/>
      <point x="243" y="521"/>
      <point x="261" y="543"/>
      <point x="295" y="543" type="curve" smooth="yes"/>
      <point x="306" y="543"/>
      <point x="317" y="541"/>
      <point x="328" y="538" type="curve"/>
      <point x="354" y="634" type="line"/>
      <point x="349" y="647" type="line"/>
      <point x="324" y="655"/>
      <point x="299" y="659"/>
    </contour>
  </outline>
</glyph>
<glyph name="bar" format="2">
  <advance width="300.118"/>
  <unicode hex="007C"/>
  <outline>
    <contour>
      <point x="283" y="810" type="line"/>
      <point x="146" y="799" type="line"/>
      <point x="82" y="279" type="line"/>
      <point x="17" y="-240" type="line"/>
      <point x="30" y="-256" type="line"/>
      <point x="163" y="-245" type="line"/>
      <point x="228" y="294" type="line"/>
      <point x="295" y="797" type="line"/>
    </contour>
  </outline>
</glyph>
<glyph name="brokenbar" format="2">
  <advance width="300.118"/>
  <unicode hex="00A6"/>
  <outline>
    <contour>
      <point x="283" y="810" type="line"/>
      <point x="146" y="799" type="line"/>
      <point x="94" y="376" type="line"/>
      <point x="105" y="365" type="line"/>
      <point x="240" y="382" type="line"/>
      <point x="295" y="797" type="line"/>
    </contour>
    <contour>
      <point x="197" y="161" type="line"/>
      <point x="65" y="146" type="line"/>
      <point x="17" y="-240" type="line"/>
      <point x="30" y="-256" type="line"/>
      <point x="163" y="-245" type="line"/>
      <point x="210" y="145" type="line"/>
    </contour>
  </outline>
</glyph>
<glyph name="degree" format="2">
  <advance width="292.967"/>
  <unicode hex="00B0"/>
  <outline>
    <contour>
      <point x="198" y="659" type="curve" smooth="yes"/>
      <point x="118" y="659"/>
      <point x="46" y="592"/>
      <point x="46" y="510" type="curve" smooth="yes"/>
      <point x="46" y="442"/>
      <point x="96" y="389"/>
      <point x="165" y="389" type="curve" smooth="yes"/>
      <point x="246" y="389"/>
      <point x="318" y="456"/>
      <point x="318" y="538" type="curve" smooth="yes"/>
      <point x="318" y="606"/>
      <point x="268" y="659"/>
    </contour>
    <contour>
      <point x="189" y="580" type="curve" smooth="yes"/>
      <point x="219" y="580"/>
      <point x="238" y="560"/>
      <point x="238" y="531" type="curve" smooth="yes"/>
      <point x="238" y="493"/>
      <point x="211" y="468"/>
      <point x="175" y="468" type="curve" smooth="yes"/>
      <point x="144" y="468"/>
      <point x="125" y="487"/>
      <point x="125" y="517" type="curve" smooth="yes"/>
      <point x="125" y="554"/>
      <point x="151" y="580"/>
    </contour>
  </outline>
</glyph>
<glyph name="micro" format="2">
  <advance width="524"/>
  <unicode hex="00B5"/>
  <outline>
    <contour>
      <point x="209" y="201" type="curve"/>
      <point x="118" y="119" type="line"/>
      <point x="124" y="60"/>
      <point x="157" y="11"/>
      <point x="200" y="-4" type="curve"/>
      <point x="213" y="-3" type="line"/>
      <point x="236" y="29"/>
      <point x="256" y="63"/>
      <point x="284" y="116" type="curve"/>
      <point x="321" y="116" type="line"/>
      <point x="345" y="315" type="line"/>
      <point x="288" y="221"/>
      <point x="251" y="177"/>
      <point x="227" y="177" type="curve" smooth="yes"/>
      <point x="214" y="177"/>
      <point x="207" y="186"/>
    </contour>
    <contour>
      <point x="510" y="476" type="line"/>
      <point x="332" y="465" type="line"/>
      <point x="328" y="352" type="line"/>
      <point x="281" y="-4" type="line"/>
      <point x="459" y="7" type="line"/>
      <point x="463" y="116" type="line"/>
    </contour>
    <contour>
      <point x="245" y="476" type="line"/>
      <point x="67" y="465" type="line"/>
      <point x="63" y="352" type="line"/>
      <point x="-9" y="-196" type="line"/>
      <point x="169" y="-185" type="line"/>
      <point x="173" y="89" type="line"/>
      <point x="209" y="201" type="line"/>
    </contour>
  </outline>
</glyph>
<glyph name="paragraph" format="2">
  <advance width="565.132"/>
  <unicode hex="00B6"/>
  <outline>
    <contour>
      <point x="596" y="647" type="line"/>
      <point x="335" y="647" type="line" smooth="yes"/>
      <point x="142" y="647"/>
      <point x="31" y="552"/>
      <point x="31" y="391" type="curve" smooth="yes"/>
      <point x="31" y="293"/>
      <point x="88" y="220"/>
      <point x="193" y="190" type="curve"/>
      <point x="274" y="287" type="line"/>
      <point x="253" y="319"/>
      <point x="241" y="359"/>
      <point x="241" y="396" type="curve" smooth="yes"/>
      <point x="241" y="446"/>
      <point x="259" y="486"/>
      <point x="289" y="500" type="curve"/>
      <point x="321" y="500" type="line"/>
      <point x="290" y="193" type="line"/>
      <point x="283" y="137" type="line" smooth="yes"/>
      <point x="275" y="77"/>
      <point x="245" y="44"/>
      <point x="171" y="10" type="curve"/>
      <point x="169" y="-6" type="line"/>
      <point x="208" y="-95" type="line"/>
      <point x="392" y="-38"/>
      <point x="455" y="29"/>
      <point x="469" y="144" type="curve"/>
      <point x="475" y="213" type="line"/>
      <point x="518" y="499" type="line"/>
      <point x="577" y="499" type="line"/>
      <point x="606" y="634" type="line"/>
    </contour>
  </outline>
</glyph>
<glyph name="AE" format="2">
  <advance width="839"/>
  <unicode hex="00C6"/>
  <anchor x="555" y="647" name="top"/>
  <outline>
    <contour>
      <point x="825" y="647" type="line"/>
      <point x="306" y="647" type="line"/>
      <point x="-49" y="0" type="line"/>
      <point x="147" y="0" type="line"/>
      <point x="195" y="119" type="line"/>
      <point x="373" y="468" type="line"/>
      <point x="385" y="468" type="line"/>
      <point x="370" y="107" type="line"/>
      <point x="362" y="0" type="line"/>
      <point x="798" y="0" type="line"/>
      <point x="828" y="146" type="line"/>
      <point x="818" y="160" type="line"/>
      <point x="653" y="154" type="line"/>
      <point x="562" y="154" type="line"/>
      <point x="580" y="493" type="line"/>
      <point x="655" y="493" type="line"/>
      <point x="804" y="487" type="line"/>
      <point x="834" y="633" type="line"/>
    </contour>
    <contour>
      <point x="749" y="433" type="line"/>
      <point x="536" y="368" type="line"/>
      <point x="163" y="258" type="line"/>
      <point x="97" y="92" type="line"/>
      <point x="539" y="222" type="line"/>
      <point x="763" y="284" type="line"/>
      <point x="762" y="422" type="line"/>
    </contour>
  </outline>
</glyph>
<glyph name="multiply" format="2">
  <advance width="480.775"/>
  <unicode hex="00D7"/>
  <outline>
    <contour>
      <point x="375" y="454" type="line"/>
      <point x="255" y="347" type="line"/>
      <point x="160" y="454" type="line"/>
      <point x="62" y="378" type="line"/>
      <point x="60" y="360" type="line"/>
      <point x="152" y="255" type="line"/>
      <point x="34" y="149" type="line"/>
      <point x="32" y="132" type="line"/>
      <point x="111" y="55" type="line"/>
      <point x="233" y="163" type="line"/>
      <point x="326" y="56" type="line"/>
      <point x="425" y="132" type="line"/>
      <point x="427" y="150" type="line"/>
      <point x="336" y="255" type="line"/>
      <point x="454" y="360" type="line"/>
      <point x="455" y="378" type="line"/>
    </contour>
  </outline>
</glyph>
<glyph name="Thorn" format="2">
  <advance width="604"/>
  <unicode hex="00DE"/>
  <outline>
    <contour>
      <point x="317" y="647" type="line"/>
      <point x="111" y="647" type="line"/>
      <point x="65" y="190" type="line"/>
      <point x="31" y="0" type="line"/>
      <point x="234" y="0" type="line"/>
      <point x="252" y="210" type="line"/>
    </contour>
    <contour>
      <point x="408" y="556" type="curve"/>
      <point x="117" y="555" type="line"/>
      <point x="215" y="411" type="line"/>
      <point x="332" y="420" type="line"/>
      <point x="384" y="417"/>
      <point x="408" y="397"/>
      <point x="408" y="351" type="curve" smooth="yes"/>
      <point x="408" y="297"/>
      <point x="391" y="262"/>
      <point x="343" y="238" type="curve"/>
      <point x="149" y="249" type="line"/>
      <point x="131" y="101" type="line"/>
      <point x="309" y="101" type="line"/>
      <point x="494" y="101"/>
      <point x="617" y="216"/>
      <point x="617" y="383" type="curve" smooth="yes"/>
      <point x="617" y="494"/>
      <point x="538" y="556"/>
    </contour>
  </outline>
</glyph>
<glyph name="germandbls" format="2">
  <advance width="636.908"/>
  <unicode hex="00DF"/>
  <outline>
    <contour>
      <point x="387" y="704" type="curve" smooth="yes"/>
      <point x="226" y="704"/>
      <point x="125" y="614"/>
      <point x="106" y="466" type="curve"/>
      <point x="77" y="190" type="line"/>
      <point x="38" y="-108" type="line"/>
      <point x="216" y="-97" type="line"/>
      <point x="220" y="12" type="line"/>
      <point x="245" y="210" type="line"/>
      <point x="286" y="497" type="line"/>
      <point x="294" y="554"/>
      <point x="327" y="569"/>
      <point x="366" y="569" type="curve" smooth="yes"/>
      <point x="405" y="569"/>
      <point x="423" y="554"/>
      <point x="423" y="524" type="curve" smooth="yes"/>
      <point x="423" y="454"/>
      <point x="321" y="428"/>
      <point x="321" y="318" type="curve" smooth="yes"/>
      <point x="321" y="182"/>
      <point x="479" y="162"/>
      <point x="478" y="119" type="curve" smooth="yes"/>
      <point x="478" y="110"/>
      <point x="470" y="99"/>
      <point x="449" y="99" type="curve" smooth="yes"/>
      <point x="416" y="99"/>
      <point x="367" y="124"/>
      <point x="327" y="169" type="curve"/>
      <point x="309" y="160" type="line"/>
      <point x="270" y="15" type="line"/>
      <point x="316" y="2"/>
      <point x="359" y="-6"/>
      <point x="407" y="-11" type="curve"/>
      <point x="534" y="-11"/>
      <point x="633" y="59"/>
      <point x="633" y="161" type="curve" smooth="yes"/>
      <point x="633" y="289"/>
      <point x="479" y="292"/>
      <point x="479" y="359" type="curve"/>
      <point x="479" y="421"/>
      <point x="590" y="458"/>
      <point x="590" y="560" type="curve" smooth="yes"/>
      <point x="590" y="640"/>
      <point x="523" y="704"/>
    </contour>
    <contour>
      <point x="175" y="463" type="line"/>
      <point x="37" y="463" type="line"/>
      <point x="25" y="373" type="line"/>
      <point x="33" y="362" type="line"/>
      <point x="174" y="362" type="line"/>
      <point x="187" y="449" type="line"/>
    </contour>
  </outline>
</glyph>
<glyph name="ae" format="2">
  <advance width="691"/>
  <unicode hex="00E6"/>
  <anchor x="701" y="0" name="bottom"/>
  <anchor x="434" y="10" name="ogonek"/>
  <anchor x="381" y="472" name="top"/>
  <outline>
    <contour>
      <point x="411" y="451" type="curve"/>
      <point x="255" y="478" type="line"/>
      <point x="248" y="478" type="line"/>
      <point x="82" y="423"/>
      <point x="7" y="282"/>
      <point x="7" y="154" type="curve" smooth="yes"/>
      <point x="7" y="82"/>
      <point x="31" y="16"/>
      <point x="144" y="-11" type="curve"/>
      <point x="167" y="-11" type="line"/>
      <point x="207" y="37"/>
      <point x="241" y="89"/>
      <point x="270" y="143" type="curve"/>
      <point x="271" y="138"/>
      <point x="273" y="130"/>
      <point x="274" y="126" type="curve" smooth="yes"/>
      <point x="297" y="49"/>
      <point x="342" y="2"/>
      <point x="456" y="-11" type="curve"/>
      <point x="472" y="-11" type="line"/>
      <point x="539" y="8"/>
      <point x="606" y="48"/>
      <point x="659" y="112" type="curve"/>
      <point x="603" y="183" type="line"/>
      <point x="581" y="186" type="line"/>
      <point x="552" y="142"/>
      <point x="522" y="123"/>
      <point x="486" y="123" type="curve" smooth="yes"/>
      <point x="458" y="123"/>
      <point x="445" y="135"/>
      <point x="438" y="161" type="curve" smooth="yes"/>
      <point x="436" y="169"/>
      <point x="435" y="173"/>
      <point x="434" y="178" type="curve"/>
      <point x="617" y="223"/>
      <point x="679" y="277"/>
      <point x="679" y="355" type="curve" smooth="yes"/>
      <point x="679" y="429"/>
      <point x="626" y="469"/>
      <point x="557" y="482" type="curve"/>
      <point x="541" y="484" type="line"/>
      <point x="492" y="481"/>
      <point x="449" y="470"/>
    </contour>
    <contour>
      <point x="222" y="349" type="curve"/>
      <point x="296" y="330" type="line"/>
      <point x="290" y="317"/>
      <point x="293" y="328"/>
      <point x="286" y="310" type="curve" smooth="yes"/>
      <point x="244" y="206"/>
      <point x="212" y="151"/>
      <point x="191" y="151" type="curve" smooth="yes"/>
      <point x="178" y="151"/>
      <point x="169" y="172"/>
      <point x="169" y="229" type="curve" smooth="yes"/>
      <point x="169" y="307"/>
      <point x="186" y="349"/>
    </contour>
    <contour>
      <point x="496" y="372" type="curve" smooth="yes"/>
      <point x="516" y="372"/>
      <point x="525" y="364"/>
      <point x="525" y="344" type="curve" smooth="yes"/>
      <point x="525" y="308"/>
      <point x="499" y="289"/>
      <point x="432" y="274" type="curve"/>
      <point x="437" y="341"/>
      <point x="457" y="372"/>
    </contour>
  </outline>
</glyph>
<glyph name="Hbar" format="2">
  <advance width="746"/>
  <unicode hex="0126"/>
  <anchor x="344" y="0" name="bottom"/>
  <anchor x="391" y="324" name="center"/>
  <anchor x="423" y="647" name="top"/>
  <anchor x="87" y="647" name="topleft"/>
  <outline>
    <contour>
      <point x="761" y="573" type="line"/>
      <point x="51" y="573" type="line"/>
      <point x="45" y="482" type="line"/>
      <point x="53" y="472" type="line"/>
      <point x="764" y="472" type="line"/>
      <point x="769" y="563" type="line"/>
    </contour>
    <contour>
      <point x="718" y="647" type="line"/>
      <point x="514" y="647" type="line"/>
      <point x="468" y="190" type="line"/>
      <point x="434" y="0" type="line"/>
      <point x="635" y="0" type="line"/>
      <point x="653" y="210" type="line"/>
    </contour>
    <contour>
      <point x="332" y="647" type="line"/>
      <point x="128" y="647" type="line"/>
      <point x="82" y="190" type="line"/>
      <point x="48" y="0" type="line"/>
      <point x="249" y="0" type="line"/>
      <point x="267" y="210" type="line"/>
    </contour>
    <contour>
      <point x="506" y="402" type="line"/>
      <point x="396" y="400" type="line"/>
      <point x="271" y="403" type="line"/>
      <point x="251" y="238" type="line"/>
      <point x="365" y="242" type="line"/>
      <point x="486" y="240" type="line"/>
    </contour>
  </outline>
</glyph>
<glyph name="hbar" format="2">
  <advance width="563.125"/>
  <unicode hex="0127"/>
  <anchor x="275" y="0" name="bottom"/>
  <anchor x="334" y="236" name="center"/>
  <anchor x="218" y="700" name="top"/>
  <outline>
    <contour>
      <point x="405" y="625" type="line"/>
      <point x="56" y="625" type="line"/>
      <point x="49" y="537" type="line"/>
      <point x="61" y="524" type="line"/>
      <point x="410" y="524" type="line"/>
      <point x="417" y="612" type="line"/>
    </contour>
    <contour>
      <point x="410" y="474" type="curve"/>
      <point x="397" y="473" type="line"/>
      <point x="357" y="435"/>
      <point x="321" y="393"/>
      <point x="284" y="346" type="curve"/>
      <point x="264" y="346" type="line"/>
      <point x="229" y="156" type="line"/>
      <point x="284" y="252"/>
      <point x="326" y="291"/>
      <point x="347" y="291" type="curve" smooth="yes"/>
      <point x="358" y="291"/>
      <point x="364" y="285"/>
      <point x="364" y="269" type="curve"/>
      <point x="362" y="259" type="line"/>
      <point x="320" y="-4" type="line"/>
      <point x="502" y="7" type="line"/>
      <point x="506" y="119" type="line"/>
      <point x="544" y="349" type="line"/>
      <point x="545" y="363" type="line"/>
      <point x="546" y="418"/>
      <point x="494" y="460"/>
    </contour>
    <contour>
      <point x="315" y="704" type="line"/>
      <point x="136" y="693" type="line"/>
      <point x="133" y="580" type="line"/>
      <point x="54" y="-4" type="line"/>
      <point x="233" y="7" type="line"/>
      <point x="236" y="116" type="line"/>
    </contour>
  </outline>
</glyph>
<glyph name="idotless" format="2">
  <advance width="260"/>
  <unicode hex="0131"/>
  <anchor x="101" y="0" name="bottom"/>
  <anchor x="193" y="7" name="ogonek"/>
  <anchor x="156" y="472" name="top"/>
  <outline>
    <contour>
      <point x="244" y="476" type="line"/>
      <point x="66" y="465" type="line"/>
      <point x="62" y="352" type="line"/>
      <point x="15" y="-4" type="line"/>
      <point x="193" y="7" type="line"/>
      <point x="198" y="116" type="line"/>
    </contour>
  </outline>
</glyph>
<glyph name="ldot" format="2">
  <advance width="389"/>
  <unicode hex="0140"/>
  <anchor x="105" y="0" name="bottom"/>
  <anchor x="183" y="700" name="top"/>
  <anchor x="393" y="352" name="topright"/>
  <outline>
    <contour>
      <point x="181" y="-78" type="move"/>
    </contour>
    <contour>
      <point x="278" y="704" type="line"/>
      <point x="99" y="693" type="line"/>
      <point x="96" y="580" type="line"/>
      <point x="17" y="-4" type="line"/>
      <point x="196" y="7" type="line"/>
      <point x="199" y="116" type="line"/>
    </contour>
    <contour>
      <point x="342" y="417" type="curve" smooth="yes"/>
      <point x="279" y="417"/>
      <point x="240" y="377"/>
      <point x="240" y="313" type="curve" smooth="yes"/>
      <point x="240" y="252"/>
      <point x="273" y="218"/>
      <point x="334" y="218" type="curve" smooth="yes"/>
      <point x="396" y="218"/>
      <point x="435" y="258"/>
      <point x="435" y="322" type="curve" smooth="yes"/>
      <point x="435" y="382"/>
      <point x="401" y="417"/>
    </contour>
  </outline>
</glyph>
<glyph name="Lslash" format="2">
  <advance width="460"/>
  <unicode hex="0141"/>
  <anchor x="219" y="0" name="bottom"/>
  <anchor x="244.805" y="324" name="center"/>
  <anchor x="209" y="647" name="top"/>
  <anchor x="453" y="328" name="topright"/>
  <outline>
    <contour>
      <point x="359" y="480" type="line"/>
      <point x="-18" y="301" type="line"/>
      <point x="3" y="186" type="line"/>
      <point x="18" y="177" type="line"/>
      <point x="396" y="357" type="line"/>
      <point x="374" y="471" type="line"/>
    </contour>
    <contour>
      <point x="317" y="647" type="line"/>
      <point x="113" y="647" type="line"/>
      <point x="67" y="190" type="line"/>
      <point x="34" y="0" type="line"/>
      <point x="235" y="0" type="line"/>
      <point x="253" y="210" type="line"/>
    </contour>
    <contour>
      <point x="440" y="164" type="line"/>
      <point x="178" y="164" type="line"/>
      <point x="159" y="11" type="line"/>
      <point x="158" y="0" type="line"/>
      <point x="419" y="0" type="line"/>
      <point x="449" y="150" type="line"/>
    </contour>
  </outline>
</glyph>
<glyph name="Tbar" format="2">
  <advance width="518"/>
  <unicode hex="0166"/>
  <anchor x="230" y="0" name="bottom"/>
  <anchor x="277" y="324" name="center"/>
  <anchor x="309" y="647" name="top"/>
  <outline>
    <contour>
      <point x="448" y="335" type="line"/>
      <point x="87" y="335" type="line"/>
      <point x="80" y="247" type="line"/>
      <point x="92" y="234" type="line"/>
      <point x="453" y="234" type="line"/>
      <point x="460" y="322" type="line"/>
    </contour>
    <contour>
      <point x="408" y="627" type="line"/>
      <point x="211" y="627" type="line"/>
      <point x="165" y="190" type="line"/>
      <point x="131" y="0" type="line"/>
      <point x="331" y="0" type="line"/>
      <point x="349" y="210" type="line"/>
    </contour>
    <contour>
      <point x="552" y="647" type="line"/>
      <point x="69" y="647" type="line"/>
      <point x="40" y="501" type="line"/>
      <point x="50" y="487" type="line"/>
      <point x="184" y="493" type="line"/>
      <point x="401" y="493" type="line"/>
      <point x="532" y="487" type="line"/>
      <point x="561" y="633" type="line"/>
    </contour>
  </outline>
</glyph>
<glyph name="Schwa" format="2">
  <advance width="643"/>
  <unicode hex="018F"/>
  <outline>
    <contour>
      <point x="339" y="656" type="curve" smooth="yes"/>
      <point x="273" y="656"/>
      <point x="205" y="645"/>
      <point x="136" y="622" type="curve"/>
      <point x="81" y="468" type="line"/>
      <point x="98" y="455" type="line"/>
      <point x="180" y="483"/>
      <point x="249" y="497"/>
      <point x="305" y="497" type="curve" smooth="yes"/>
      <point x="397" y="497"/>
      <point x="439" y="455"/>
      <point x="439" y="355" type="curve" smooth="yes"/>
      <point x="439" y="216"/>
      <point x="396" y="133"/>
      <point x="294" y="133" type="curve" smooth="yes"/>
      <point x="233" y="133"/>
      <point x="201" y="172"/>
      <point x="208" y="225" type="curve"/>
      <point x="212" y="244" type="line"/>
      <point x="455" y="251" type="line"/>
      <point x="470" y="364" type="line"/>
      <point x="68" y="361" type="line"/>
      <point x="40" y="330" type="line"/>
      <point x="26" y="284"/>
      <point x="19" y="253"/>
      <point x="19" y="217" type="curve" smooth="yes"/>
      <point x="19" y="85"/>
      <point x="113" y="-11"/>
      <point x="273" y="-11" type="curve" smooth="yes"/>
      <point x="493" y="-11"/>
      <point x="639" y="138"/>
      <point x="639" y="369" type="curve" smooth="yes"/>
      <point x="639" y="549"/>
      <point x="529" y="656"/>
    </contour>
  </outline>
</glyph>
<glyph name="Uhorn" format="2">
  <advance width="676"/>
  <unicode hex="01AF"/>
  <anchor x="306" y="0" name="bottom"/>
  <anchor x="357" y="647" name="top"/>
  <outline>
    <contour>
      <point x="654" y="805" type="curve" smooth="yes"/>
      <point x="621" y="805"/>
      <point x="588" y="788"/>
      <point x="560" y="768" type="curve"/>
      <point x="557" y="754" type="line"/>
      <point x="575" y="739"/>
      <point x="586" y="719"/>
      <point x="586" y="695" type="curve" smooth="yes"/>
      <point x="586" y="661"/>
      <point x="570" y="647"/>
      <point x="529" y="647" type="curve"/>
      <point x="559" y="556" type="line"/>
      <point x="665" y="571"/>
      <point x="737" y="636"/>
      <point x="737" y="713" type="curve" smooth="yes"/>
      <point x="737" y="767"/>
      <point x="702" y="805"/>
    </contour>
    <contour>
      <point x="658" y="647" type="line"/>
      <point x="454" y="647" type="line"/>
      <point x="414" y="243" type="line" smooth="yes"/>
      <point x="407" y="175"/>
      <point x="377" y="146"/>
      <point x="314" y="146" type="curve" smooth="yes"/>
      <point x="261" y="146"/>
      <point x="238" y="167"/>
      <point x="238" y="216" type="curve" smooth="yes"/>
      <point x="238" y="224"/>
      <point x="239" y="233"/>
      <point x="240" y="243" type="curve" smooth="yes"/>
      <point x="298" y="647" type="line"/>
      <point x="97" y="647" type="line"/>
      <point x="63" y="319" type="line"/>
      <point x="48" y="216" type="line" smooth="yes"/>
      <point x="46" y="201"/>
      <point x="45" y="186"/>
      <point x="45" y="173" type="curve" smooth="yes"/>
      <point x="45" y="53"/>
      <point x="140" y="-12"/>
      <point x="297" y="-12" type="curve" smooth="yes"/>
      <point x="478" y="-12"/>
      <point x="579" y="69"/>
      <point x="598" y="216" type="curve" smooth="yes"/>
      <point x="611" y="319" type="line"/>
    </contour>
  </outline>
</glyph>
<glyph name="uhorn" format="2">
  <advance width="544"/>
  <unicode hex="01B0"/>
  <anchor x="260" y="472" name="top"/>
  <outline>
    <contour>
      <point x="243" y="474" type="line"/>
      <point x="61" y="463" type="line"/>
      <point x="57" y="351" type="line"/>
      <point x="20" y="125" type="line"/>
      <point x="18" y="105" type="line"/>
      <point x="18" y="48"/>
      <point x="71" y="6"/>
      <point x="156" y="-4" type="curve"/>
      <point x="169" y="-3" type="line"/>
      <point x="208" y="34"/>
      <point x="240" y="72"/>
      <point x="273" y="116" type="curve"/>
      <point x="310" y="116" type="line"/>
      <point x="334" y="315" type="line"/>
      <point x="271" y="210"/>
      <point x="238" y="177"/>
      <point x="217" y="177" type="curve" smooth="yes"/>
      <point x="207" y="177"/>
      <point x="200" y="184"/>
      <point x="200" y="200" type="curve"/>
      <point x="201" y="213" type="line"/>
    </contour>
    <contour>
      <point x="499" y="476" type="line"/>
      <point x="321" y="465" type="line"/>
      <point x="317" y="352" type="line"/>
      <point x="270" y="-4" type="line"/>
      <point x="448" y="7" type="line"/>
      <point x="452" y="116" type="line"/>
    </contour>
    <contour>
      <point x="511" y="630" type="curve" smooth="yes"/>
      <point x="480" y="630"/>
      <point x="447" y="613"/>
      <point x="416" y="586" type="curve"/>
      <point x="413" y="572" type="line"/>
      <point x="431" y="557"/>
      <point x="442" y="538"/>
      <point x="442" y="517" type="curve" smooth="yes"/>
      <point x="442" y="490"/>
      <point x="423" y="476"/>
      <point x="382" y="472" type="curve" smooth="yes"/>
      <point x="321" y="465" type="line"/>
      <point x="459" y="389" type="line"/>
      <point x="529" y="414"/>
      <point x="593" y="476"/>
      <point x="593" y="543" type="curve" smooth="yes"/>
      <point x="593" y="595"/>
      <point x="556" y="630"/>
    </contour>
  </outline>
</glyph>
<glyph name="Ezh" format="2">
  <advance width="555"/>
  <unicode hex="01B7"/>
  <anchor x="232" y="0" name="bottom"/>
  <anchor x="306" y="647" name="top"/>
  <outline>
    <contour>
      <point x="191" y="-12" type="curve" smooth="yes"/>
      <point x="404" y="-12"/>
      <point x="529" y="73"/>
      <point x="529" y="221" type="curve" smooth="yes"/>
      <point x="529" y="325"/>
      <point x="452" y="377"/>
      <point x="294" y="379" type="curve"/>
      <point x="176" y="358" type="line"/>
      <point x="163" y="266" type="line"/>
      <point x="172" y="252" type="line"/>
      <point x="281" y="252" type="line" smooth="yes"/>
      <point x="312" y="252"/>
      <point x="326" y="240"/>
      <point x="326" y="216" type="curve" smooth="yes"/>
      <point x="326" y="176"/>
      <point x="281" y="152"/>
      <point x="213" y="152" type="curve" smooth="yes"/>
      <point x="158" y="152"/>
      <point x="99" y="164"/>
      <point x="63" y="183" type="curve"/>
      <point x="48" y="175" type="line"/>
      <point x="-4" y="16" type="line"/>
      <point x="40" y="-1"/>
      <point x="116" y="-12"/>
    </contour>
    <contour>
      <point x="176" y="358" type="line"/>
      <point x="379" y="358" type="line"/>
      <point x="537" y="504" type="line"/>
      <point x="555" y="648" type="line"/>
      <point x="477" y="647" type="line"/>
      <point x="244" y="647" type="line"/>
      <point x="95" y="650" type="line"/>
      <point x="63" y="497" type="line"/>
      <point x="69" y="489" type="line"/>
      <point x="190" y="499" type="line"/>
      <point x="404" y="499" type="line"/>
      <point x="385" y="560" type="line"/>
    </contour>
  </outline>
</glyph>
<glyph name="ezh" format="2">
  <advance width="460"/>
  <unicode hex="0292"/>
  <anchor x="201" y="0" name="bottom"/>
  <anchor x="259" y="472" name="top"/>
  <outline>
    <contour>
      <point x="109" y="-195" type="curve" smooth="yes"/>
      <point x="287" y="-195"/>
      <point x="413" y="-96"/>
      <point x="413" y="45" type="curve" smooth="yes"/>
      <point x="413" y="118"/>
      <point x="368" y="162"/>
      <point x="275" y="181" type="curve" smooth="yes"/>
      <point x="216" y="193" type="line"/>
      <point x="72" y="189" type="line"/>
      <point x="55" y="98" type="line"/>
      <point x="64" y="82" type="line"/>
      <point x="171" y="62" type="line" smooth="yes"/>
      <point x="209" y="55"/>
      <point x="224" y="42"/>
      <point x="224" y="17" type="curve" smooth="yes"/>
      <point x="224" y="-25"/>
      <point x="190" y="-47"/>
      <point x="130" y="-47" type="curve" smooth="yes"/>
      <point x="82" y="-47"/>
      <point x="38" y="-41"/>
      <point x="-9" y="-28" type="curve"/>
      <point x="-25" y="-41" type="line"/>
      <point x="-32" y="-181" type="line"/>
      <point x="13" y="-189"/>
      <point x="69" y="-195"/>
    </contour>
    <contour>
      <point x="217" y="163" type="line"/>
      <point x="483" y="440" type="line"/>
      <point x="432" y="491" type="line"/>
      <point x="391" y="468" type="line"/>
      <point x="174" y="474" type="line"/>
      <point x="69" y="482" type="line"/>
      <point x="52" y="471" type="line"/>
      <point x="22" y="318" type="line"/>
      <point x="36" y="306" type="line"/>
      <point x="112" y="321" type="line"/>
      <point x="201" y="324" type="line"/>
      <point x="72" y="189" type="line"/>
    </contour>
  </outline>
</glyph>
<glyph name="commaturnedmod" format="2">
  <advance width="260"/>
  <unicode hex="02BB"/>
  <outline>
    <contour>
      <point x="124" y="342" type="curve"/>
      <point x="169" y="359"/>
      <point x="211" y="385"/>
      <point x="249" y="413" type="curve"/>
      <point x="249" y="428" type="line"/>
      <point x="217" y="452"/>
      <point x="207" y="478"/>
      <point x="207" y="516" type="curve" smooth="yes"/>
      <point x="207" y="546"/>
      <point x="220" y="575"/>
      <point x="246" y="604" type="curve"/>
      <point x="243" y="616" type="line"/>
      <point x="178" y="658" type="line"/>
      <point x="101" y="587"/>
      <point x="64" y="524"/>
      <point x="64" y="458" type="curve" smooth="yes"/>
      <point x="64" y="406"/>
      <point x="82" y="370"/>
    </contour>
  </outline>
</glyph>
<glyph name="ringhalfright" format="2">
  <advance width="207"/>
  <unicode hex="02BE"/>
  <outline>
    <contour>
      <point x="60" y="395" type="line"/>
      <point x="163" y="395"/>
      <point x="215" y="448"/>
      <point x="215" y="548" type="curve" smooth="yes"/>
      <point x="215" y="618"/>
      <point x="178" y="646"/>
      <point x="91" y="646" type="curve"/>
      <point x="80" y="556" type="line"/>
      <point x="114" y="556"/>
      <point x="127" y="549"/>
      <point x="127" y="526" type="curve" smooth="yes"/>
      <point x="127" y="492"/>
      <point x="110" y="478"/>
      <point x="71" y="484" type="curve"/>
    </contour>
  </outline>
</glyph>
<glyph name="ringhalfleft" format="2">
  <advance width="208"/>
  <unicode hex="02BF"/>
  <outline>
    <contour>
      <point x="217" y="646" type="line"/>
      <point x="114" y="646"/>
      <point x="62" y="593"/>
      <point x="62" y="493" type="curve" smooth="yes"/>
      <point x="62" y="423"/>
      <point x="99" y="395"/>
      <point x="186" y="395" type="curve"/>
      <point x="197" y="485" type="line"/>
      <point x="163" y="485"/>
      <point x="150" y="492"/>
      <point x="150" y="515" type="curve" smooth="yes"/>
      <point x="150" y="549"/>
      <point x="167" y="563"/>
      <point x="206" y="557" type="curve"/>
    </contour>
  </outline>
</glyph>
<glyph name="verticallinemod" format="2">
  <advance width="235"/>
  <unicode hex="02C8"/>
  <outline>
    <contour>
      <point x="77" y="472" type="line"/>
      <point x="217" y="472" type="line"/>
      <point x="239" y="656" type="line"/>
      <point x="99" y="656" type="line"/>
    </contour>
  </outline>
</glyph>
<glyph name="ringcomb" format="2">
  <unicode hex="030A"/>
  <anchor x="225" y="472" name="_top"/>
  <anchor x="259" y="696" name="top"/>
  <outline>
    <contour>
      <point x="250" y="756" type="curve" smooth="yes"/>
      <point x="175" y="756"/>
      <point x="136" y="718"/>
      <point x="136" y="645" type="curve" smooth="yes"/>
      <point x="136" y="574"/>
      <point x="172" y="538"/>
      <point x="242" y="538" type="curve" smooth="yes"/>
      <point x="317" y="538"/>
      <point x="356" y="579"/>
      <point x="356" y="652" type="curve" smooth="yes"/>
      <point x="356" y="721"/>
      <point x="321" y="756"/>
    </contour>
    <contour>
      <point x="245" y="678" type="curve" smooth="yes"/>
      <point x="271" y="678"/>
      <point x="281" y="669"/>
      <point x="281" y="645" type="curve" smooth="yes"/>
      <point x="281" y="622"/>
      <point x="272" y="614"/>
      <point x="247" y="614" type="curve" smooth="yes"/>
      <point x="221" y="614"/>
      <point x="211" y="623"/>
      <point x="211" y="648" type="curve" smooth="yes"/>
      <point x="211" y="670"/>
      <point x="220" y="678"/>
    </contour>
  </outline>
</glyph>
<glyph name="caroncomb" format="2">
  <unicode hex="030C"/>
  <anchor x="226" y="472" name="_top"/>
  <anchor x="260" y="748" name="top"/>
  <outline>
    <contour>
      <point x="388" y="748" type="line"/>
      <point x="370" y="748" type="line"/>
      <point x="323" y="720"/>
      <point x="275" y="692"/>
      <point x="244" y="670" type="curve"/>
      <point x="218" y="692"/>
      <point x="181" y="720"/>
      <point x="141" y="748" type="curve"/>
      <point x="123" y="748" type="line"/>
      <point x="67" y="676" type="line"/>
      <point x="118" y="627"/>
      <point x="173" y="573"/>
      <point x="214" y="526" type="curve"/>
      <point x="248" y="526" type="line"/>
      <point x="311" y="581"/>
      <point x="372" y="635"/>
      <point x="426" y="676" type="curve"/>
    </contour>
  </outline>
</glyph>
<glyph name="ypogegrammenicomb" format="2">
  <unicode hex="0345"/>
  <anchor x="72" y="0" name="_bottom"/>
  <anchor x="51" y="-239" name="bottom"/>
  <outline>
    <contour>
      <point x="-17" y="-238" type="line"/>
      <point x="127" y="-231" type="line"/>
      <point x="125" y="-45" type="line"/>
      <point x="113" y="-32" type="line"/>
      <point x="16" y="-40" type="line"/>
      <point x="-28" y="-227" type="line"/>
    </contour>
  </outline>
</glyph>
<glyph name="tonos" format="2">
  <advance width="217"/>
  <unicode hex="0384"/>
  <anchor x="97" y="472" name="_top"/>
  <anchor x="196" y="732" name="_topleft"/>
  <outline>
    <contour>
      <point x="135" y="768" type="line"/>
      <point x="110" y="703"/>
      <point x="82" y="636"/>
      <point x="50" y="564" type="curve"/>
      <point x="141" y="526" type="line"/>
      <point x="157" y="536" type="line"/>
      <point x="194" y="591"/>
      <point x="231" y="647"/>
      <point x="273" y="712" type="curve"/>
      <point x="268" y="728" type="line"/>
      <point x="151" y="777" type="line"/>
    </contour>
  </outline>
</glyph>
<glyph name="Gamma" format="2">
  <advance width="479"/>
  <unicode hex="0393"/>
  <anchor x="19" y="-16" name="bottomright"/>
  <anchor x="170" y="298" name="center"/>
  <outline>
    <contour>
      <point x="316" y="663" type="line"/>
      <point x="102" y="663" type="line"/>
      <point x="53" y="183" type="line"/>
      <point x="19" y="-16" type="line"/>
      <point x="230" y="-16" type="line"/>
      <point x="249" y="204" type="line"/>
    </contour>
    <contour>
      <point x="531" y="663" type="line"/>
      <point x="247" y="663" type="line"/>
      <point x="230" y="513" type="line"/>
      <point x="229" y="501" type="line"/>
      <point x="358" y="501" type="line"/>
      <point x="509" y="495" type="line"/>
      <point x="540" y="648" type="line"/>
    </contour>
  </outline>
</glyph>
<glyph name="Sigma" format="2">
  <advance width="526"/>
  <unicode hex="03A3"/>
  <outline>
    <contour>
      <point x="1" y="-3" type="line"/>
      <point x="102" y="0" type="line"/>
      <point x="295" y="0" type="line"/>
      <point x="451" y="-2" type="line"/>
      <point x="484" y="150" type="line"/>
      <point x="474" y="166" type="line"/>
      <point x="347" y="156" type="line"/>
      <point x="244" y="156" type="line"/>
      <point x="390" y="330" type="line"/>
      <point x="392" y="354" type="line"/>
      <point x="312" y="495" type="line"/>
      <point x="411" y="495" type="line"/>
      <point x="518" y="488" type="line"/>
      <point x="549" y="635" type="line"/>
      <point x="538" y="649" type="line"/>
      <point x="411" y="647" type="line"/>
      <point x="180" y="647" type="line"/>
      <point x="92" y="649" type="line"/>
      <point x="72" y="504" type="line"/>
      <point x="178" y="327" type="line"/>
      <point x="19" y="134" type="line"/>
    </contour>
  </outline>
</glyph>
<glyph name="Phi" format="2">
  <advance width="837"/>
  <unicode hex="03A6"/>
  <outline>
    <contour>
      <point x="382" y="33" type="curve" smooth="yes"/>
      <point x="686" y="33"/>
      <point x="854" y="130"/>
      <point x="854" y="378" type="curve" smooth="yes"/>
      <point x="854" y="547"/>
      <point x="726" y="631"/>
      <point x="479" y="631" type="curve" smooth="yes"/>
      <point x="174" y="631"/>
      <point x="8" y="535"/>
      <point x="8" y="286" type="curve" smooth="yes"/>
      <point x="8" y="117"/>
      <point x="136" y="33"/>
    </contour>
    <contour>
      <point x="419" y="182" type="curve" smooth="yes"/>
      <point x="274" y="182"/>
      <point x="211" y="212"/>
      <point x="211" y="307" type="curve" smooth="yes"/>
      <point x="211" y="435"/>
      <point x="275" y="479"/>
      <point x="443" y="479" type="curve" smooth="yes"/>
      <point x="591" y="479"/>
      <point x="650" y="446"/>
      <point x="650" y="351" type="curve" smooth="yes"/>
      <point x="650" y="219"/>
      <point x="584" y="182"/>
    </contour>
    <contour>
      <point x="285" y="-56" type="line"/>
      <point x="478" y="-56" type="line"/>
      <point x="504" y="204" type="line"/>
      <point x="575" y="702" type="line"/>
      <point x="379" y="702" type="line"/>
      <point x="324" y="183" type="line"/>
    </contour>
  </outline>
</glyph>
<glyph name="Omega" format="2">
  <advance width="689"/>
  <unicode hex="03A9"/>
  <anchor x="305" y="0" name="bottom"/>
  <anchor x="385" y="647" name="top"/>
  <anchor x="24" y="647" name="topleft"/>
  <outline>
    <contour>
      <point x="9" y="-6" type="line"/>
      <point x="108" y="0" type="line"/>
      <point x="245" y="0" type="line"/>
      <point x="284" y="-3" type="line"/>
      <point x="294" y="4" type="line"/>
      <point x="314" y="191" type="line"/>
      <point x="271" y="223"/>
      <point x="257" y="256"/>
      <point x="257" y="319" type="curve" smooth="yes"/>
      <point x="257" y="437"/>
      <point x="297" y="499"/>
      <point x="372" y="499" type="curve" smooth="yes"/>
      <point x="438" y="499"/>
      <point x="462" y="471"/>
      <point x="462" y="393" type="curve" smooth="yes"/>
      <point x="462" y="284"/>
      <point x="438" y="235"/>
      <point x="363" y="191" type="curve"/>
      <point x="338" y="4" type="line"/>
      <point x="344" y="-3" type="line"/>
      <point x="385" y="0" type="line"/>
      <point x="525" y="0" type="line"/>
      <point x="612" y="-4" type="line"/>
      <point x="648" y="146" type="line"/>
      <point x="640" y="158" type="line"/>
      <point x="539" y="148" type="line"/>
      <point x="495" y="148" type="line"/>
      <point x="497" y="157" type="line"/>
      <point x="603" y="196"/>
      <point x="671" y="296"/>
      <point x="671" y="413" type="curve" smooth="yes"/>
      <point x="671" y="564"/>
      <point x="568" y="659"/>
      <point x="404" y="659" type="curve" smooth="yes"/>
      <point x="200" y="659"/>
      <point x="56" y="527"/>
      <point x="56" y="340" type="curve" smooth="yes"/>
      <point x="56" y="256"/>
      <point x="97" y="191"/>
      <point x="171" y="157" type="curve"/>
      <point x="169" y="148" type="line"/>
      <point x="122" y="148" type="line"/>
      <point x="36" y="156" type="line"/>
      <point x="0" y="6" type="line"/>
    </contour>
  </outline>
</glyph>
<glyph name="delta" format="2">
  <advance width="457"/>
  <unicode hex="03B4"/>
  <outline>
    <contour>
      <point x="190" y="-10" type="curve" smooth="yes"/>
      <point x="333" y="-10"/>
      <point x="449" y="106"/>
      <point x="449" y="249" type="curve" smooth="yes"/>
      <point x="449" y="433"/>
      <point x="257" y="484"/>
      <point x="257" y="561" type="curve" smooth="yes"/>
      <point x="257" y="579"/>
      <point x="267" y="588"/>
      <point x="289" y="588" type="curve" smooth="yes"/>
      <point x="319" y="588"/>
      <point x="349" y="575"/>
      <point x="401" y="532" type="curve"/>
      <point x="423" y="535" type="line"/>
      <point x="464" y="675" type="line"/>
      <point x="417" y="690"/>
      <point x="370" y="701"/>
      <point x="321" y="709" type="curve"/>
      <point x="185" y="709"/>
      <point x="102" y="649"/>
      <point x="102" y="549" type="curve" smooth="yes"/>
      <point x="102" y="402"/>
      <point x="281" y="404"/>
      <point x="281" y="212" type="curve" smooth="yes"/>
      <point x="281" y="150"/>
      <point x="262" y="121"/>
      <point x="220" y="121" type="curve" smooth="yes"/>
      <point x="186" y="121"/>
      <point x="177" y="140"/>
      <point x="177" y="215" type="curve" smooth="yes"/>
      <point x="177" y="307"/>
      <point x="191" y="328"/>
      <point x="263" y="350" type="curve"/>
      <point x="184" y="459" type="line"/>
      <point x="163" y="416" type="line"/>
      <point x="62" y="385"/>
      <point x="7" y="305"/>
      <point x="7" y="188" type="curve" smooth="yes"/>
      <point x="7" y="64"/>
      <point x="75" y="-10"/>
    </contour>
  </outline>
</glyph>
<glyph name="eta" format="2">
  <advance width="518"/>
  <unicode hex="03B7"/>
  <anchor x="101" y="0" name="bottom"/>
  <anchor x="288" y="472" name="top"/>
  <outline>
    <contour>
      <point x="367" y="474" type="curve"/>
      <point x="354" y="473" type="line"/>
      <point x="314" y="435"/>
      <point x="278" y="393"/>
      <point x="241" y="346" type="curve"/>
      <point x="221" y="346" type="line"/>
      <point x="186" y="156" type="line"/>
      <point x="241" y="252"/>
      <point x="283" y="291"/>
      <point x="304" y="291" type="curve" smooth="yes"/>
      <point x="315" y="291"/>
      <point x="321" y="285"/>
      <point x="321" y="269" type="curve"/>
      <point x="320" y="259" type="line"/>
      <point x="246" y="-189" type="line"/>
      <point x="429" y="-178" type="line"/>
      <point x="433" y="-66" type="line"/>
      <point x="501" y="349" type="line"/>
      <point x="502" y="363" type="line"/>
      <point x="503" y="418"/>
      <point x="440" y="460"/>
    </contour>
    <contour>
      <point x="243" y="476" type="line"/>
      <point x="65" y="465" type="line"/>
      <point x="61" y="352" type="line"/>
      <point x="14" y="-4" type="line"/>
      <point x="192" y="7" type="line"/>
      <point x="196" y="116" type="line"/>
    </contour>
  </outline>
</glyph>
<glyph name="rho" format="2">
  <advance width="463"/>
  <unicode hex="03C1"/>
  <anchor x="268" y="472" name="top"/>
  <outline>
    <contour>
      <point x="-28" y="-196" type="line"/>
      <point x="150" y="-185" type="line"/>
      <point x="153" y="-76" type="line"/>
      <point x="201" y="285" type="line" smooth="yes"/>
      <point x="207" y="333"/>
      <point x="219" y="348"/>
      <point x="253" y="348" type="curve" smooth="yes"/>
      <point x="282" y="348"/>
      <point x="288" y="337"/>
      <point x="288" y="273" type="curve" smooth="yes"/>
      <point x="288" y="173"/>
      <point x="273" y="124"/>
      <point x="241" y="119" type="curve"/>
      <point x="39" y="181" type="line"/>
      <point x="17" y="32" type="line"/>
      <point x="203" y="-12" type="line"/>
      <point x="336" y="-4"/>
      <point x="459" y="143"/>
      <point x="459" y="300" type="curve" smooth="yes"/>
      <point x="459" y="416"/>
      <point x="391" y="481"/>
      <point x="282" y="481" type="curve" smooth="yes"/>
      <point x="144" y="481"/>
      <point x="49" y="378"/>
      <point x="27" y="213" type="curve" smooth="yes"/>
    </contour>
  </outline>
</glyph>
<glyph name="upsilon" format="2">
  <advance width="485"/>
  <unicode hex="03C5"/>
  <guideline x="218" y="232" angle="0"/>
  <anchor x="271" y="472" name="top"/>
  <outline>
    <contour>
      <point x="201" y="-11" type="curve" smooth="yes"/>
      <point x="327" y="-11"/>
      <point x="432" y="74"/>
      <point x="447" y="187" type="curve" smooth="yes"/>
      <point x="485" y="476" type="line"/>
      <point x="306" y="465" type="line"/>
      <point x="302" y="352" type="line"/>
      <point x="281" y="194" type="line" smooth="yes"/>
      <point x="273" y="135"/>
      <point x="265" y="125"/>
      <point x="229" y="125" type="curve" smooth="yes"/>
      <point x="196" y="125"/>
      <point x="186" y="141"/>
      <point x="194" y="196" type="curve" smooth="yes"/>
      <point x="234" y="476" type="line"/>
      <point x="54" y="465" type="line"/>
      <point x="50" y="352" type="line"/>
      <point x="26" y="168" type="line" smooth="yes"/>
      <point x="12" y="61"/>
      <point x="83" y="-11"/>
    </contour>
  </outline>
</glyph>
<glyph name="omega" format="2">
  <advance width="639"/>
  <unicode hex="03C9"/>
  <anchor x="286" y="0" name="bottom"/>
  <anchor x="343" y="441" name="top"/>
  <outline>
    <contour>
      <point x="151" y="-7" type="curve"/>
      <point x="240" y="-7"/>
      <point x="286" y="29"/>
      <point x="315" y="122" type="curve"/>
      <point x="271" y="122" type="line"/>
      <point x="282" y="33"/>
      <point x="326" y="-7"/>
      <point x="412" y="-7" type="curve" smooth="yes"/>
      <point x="547" y="-7"/>
      <point x="624" y="90"/>
      <point x="624" y="258" type="curve" smooth="yes"/>
      <point x="624" y="381"/>
      <point x="584" y="446"/>
      <point x="491" y="478" type="curve"/>
      <point x="418" y="415" type="line"/>
      <point x="418" y="395" type="line"/>
      <point x="439" y="356"/>
      <point x="451" y="303"/>
      <point x="451" y="242" type="curve" smooth="yes"/>
      <point x="451" y="168"/>
      <point x="436" y="129"/>
      <point x="406" y="129" type="curve" smooth="yes"/>
      <point x="392" y="129"/>
      <point x="387" y="136"/>
      <point x="389" y="152" type="curve" smooth="yes"/>
      <point x="410" y="319" type="line"/>
      <point x="399" y="332" type="line"/>
      <point x="247" y="326" type="line"/>
      <point x="225" y="155" type="line" smooth="yes"/>
      <point x="223" y="136"/>
      <point x="215" y="129"/>
      <point x="198" y="129" type="curve" smooth="yes"/>
      <point x="182" y="129"/>
      <point x="176" y="141"/>
      <point x="176" y="176" type="curve" smooth="yes"/>
      <point x="176" y="257"/>
      <point x="207" y="347"/>
      <point x="253" y="395" type="curve"/>
      <point x="254" y="415" type="line"/>
      <point x="193" y="478" type="line"/>
      <point x="83" y="448"/>
      <point x="10" y="324"/>
      <point x="10" y="168" type="curve" smooth="yes"/>
      <point x="10" y="47"/>
      <point x="54" y="-7"/>
    </contour>
  </outline>
</glyph>
<glyph name="thetaSymbol" format="2">
  <advance width="492"/>
  <unicode hex="03D1"/>
  <outline>
    <contour>
      <point x="201" y="-7" type="curve" smooth="yes"/>
      <point x="392" y="-7"/>
      <point x="487" y="164"/>
      <point x="487" y="468" type="curve" smooth="yes"/>
      <point x="487" y="632"/>
      <point x="430" y="707"/>
      <point x="321" y="707" type="curve" smooth="yes"/>
      <point x="131" y="707"/>
      <point x="34" y="535"/>
      <point x="34" y="230" type="curve" smooth="yes"/>
      <point x="34" y="66"/>
      <point x="92" y="-7"/>
    </contour>
    <contour>
      <point x="235" y="124" type="curve" smooth="yes"/>
      <point x="209" y="124"/>
      <point x="198" y="147"/>
      <point x="198" y="213" type="curve" smooth="yes"/>
      <point x="198" y="512"/>
      <point x="243" y="571"/>
      <point x="288" y="571" type="curve" smooth="yes"/>
      <point x="313" y="571"/>
      <point x="323" y="548"/>
      <point x="323" y="483" type="curve" smooth="yes"/>
      <point x="323" y="184"/>
      <point x="275" y="124"/>
    </contour>
    <contour>
      <point x="122" y="275" type="line"/>
      <point x="375" y="284" type="line"/>
      <point x="388" y="413" type="line"/>
      <point x="137" y="404" type="line"/>
    </contour>
  </outline>
</glyph>
<glyph name="kaiSymbol" format="2">
  <advance width="541"/>
  <unicode hex="03D7"/>
  <outline>
    <contour>
      <point x="191" y="-204" type="curve"/>
      <point x="302" y="-206"/>
      <point x="391" y="-136"/>
      <point x="456" y="8" type="curve"/>
      <point x="286" y="-4" type="line"/>
      <point x="254" y="-34"/>
      <point x="204" y="-50"/>
      <point x="127" y="-50" type="curve"/>
      <point x="114" y="-60" type="line"/>
      <point x="120" y="-117"/>
      <point x="145" y="-165"/>
    </contour>
    <contour>
      <point x="288" y="-7" type="line"/>
      <point x="456" y="12" type="line"/>
      <point x="458" y="28" type="line"/>
      <point x="417" y="114"/>
      <point x="386" y="187"/>
      <point x="359" y="259" type="curve"/>
      <point x="508" y="472" type="line"/>
      <point x="307" y="472" type="line"/>
      <point x="278" y="416" type="line"/>
      <point x="174" y="257" type="line"/>
      <point x="175" y="249" type="line"/>
      <point x="190" y="175"/>
      <point x="214" y="97"/>
      <point x="249" y="13" type="curve"/>
    </contour>
    <contour>
      <point x="-37" y="0" type="line"/>
      <point x="158" y="0" type="line"/>
      <point x="176" y="210" type="line"/>
      <point x="218" y="474" type="line"/>
      <point x="22" y="461" type="line"/>
      <point x="-4" y="190" type="line"/>
    </contour>
  </outline>
</glyph>
<glyph name="kappaSymbol" format="2">
  <advance width="497"/>
  <unicode hex="03F0"/>
  <outline>
    <contour>
      <point x="300" y="-12" type="line"/>
      <point x="358" y="-6"/>
      <point x="406" y="0"/>
      <point x="465" y="12" type="curve"/>
      <point x="467" y="32" type="line"/>
      <point x="423" y="124"/>
      <point x="382" y="217"/>
      <point x="348" y="309" type="curve"/>
      <point x="332" y="192" type="line"/>
      <point x="521" y="472" type="line"/>
      <point x="331" y="472" type="line"/>
      <point x="306" y="416" type="line"/>
      <point x="204" y="257" type="line"/>
      <point x="200" y="242" type="line"/>
      <point x="281" y="-2" type="line"/>
    </contour>
    <contour>
      <point x="14" y="-4" type="line"/>
      <point x="192" y="7" type="line"/>
      <point x="197" y="116" type="line"/>
      <point x="243" y="476" type="line"/>
      <point x="65" y="465" type="line"/>
      <point x="61" y="352" type="line"/>
    </contour>
  </outline>
</glyph>
<glyph name="Dje-cy" format="2">
  <advance width="690"/>
  <unicode hex="0402"/>
  <outline>
    <contour>
      <point x="125" y="0" type="line"/>
      <point x="320" y="0" type="line"/>
      <point x="338" y="210" type="line"/>
      <point x="403" y="647" type="line"/>
      <point x="205" y="647" type="line"/>
      <point x="158" y="190" type="line"/>
    </contour>
    <contour>
      <point x="484" y="436" type="curve"/>
      <point x="442" y="419"/>
      <point x="402" y="395"/>
      <point x="369" y="363" type="curve"/>
      <point x="344" y="360" type="line"/>
      <point x="333" y="229" type="line"/>
      <point x="372" y="252"/>
      <point x="403" y="265"/>
      <point x="435" y="265" type="curve" smooth="yes"/>
      <point x="479" y="265"/>
      <point x="489" y="242"/>
      <point x="479" y="163" type="curve" smooth="yes"/>
      <point x="464" y="43"/>
      <point x="422" y="-44"/>
      <point x="357" y="-99" type="curve"/>
      <point x="359" y="-118" type="line"/>
      <point x="423" y="-199" type="line"/>
      <point x="570" y="-106"/>
      <point x="637" y="4"/>
      <point x="659" y="180" type="curve" smooth="yes"/>
      <point x="681" y="364"/>
      <point x="632" y="434"/>
    </contour>
    <contour>
      <point x="50" y="487" type="line"/>
      <point x="160" y="493" type="line"/>
      <point x="438" y="493" type="line"/>
      <point x="565" y="487" type="line"/>
      <point x="593" y="633" type="line"/>
      <point x="584" y="647" type="line"/>
      <point x="68" y="647" type="line"/>
      <point x="40" y="501" type="line"/>
    </contour>
  </outline>
</glyph>
<glyph name="Zhe-cy" format="2">
  <advance width="937"/>
  <unicode hex="0416"/>
  <anchor x="888" y="0" name="bottomright"/>
  <anchor x="520" y="647" name="top"/>
  <outline>
    <contour>
      <point x="705" y="-12" type="line"/>
      <point x="770" y="-6"/>
      <point x="837" y="4"/>
      <point x="904" y="19" type="curve"/>
      <point x="905" y="37" type="line"/>
      <point x="850" y="134"/>
      <point x="797" y="235"/>
      <point x="749" y="337" type="curve"/>
      <point x="965" y="647" type="line"/>
      <point x="754" y="647" type="line"/>
      <point x="713" y="577" type="line"/>
      <point x="555" y="344" type="line"/>
      <point x="557" y="336" type="line"/>
      <point x="596" y="222"/>
      <point x="637" y="113"/>
      <point x="683" y="4" type="curve"/>
    </contour>
    <contour>
      <point x="179" y="-12" type="curve"/>
      <point x="201" y="-4" type="line"/>
      <point x="271" y="105"/>
      <point x="342" y="214"/>
      <point x="408" y="328" type="curve"/>
      <point x="407" y="344" type="line"/>
      <point x="306" y="577" type="line"/>
      <point x="283" y="647" type="line"/>
      <point x="78" y="647" type="line"/>
      <point x="213" y="345" type="line"/>
      <point x="139" y="243"/>
      <point x="61" y="142"/>
      <point x="-18" y="45" type="curve"/>
      <point x="-13" y="21" type="line"/>
      <point x="51" y="6"/>
      <point x="114" y="-6"/>
    </contour>
    <contour>
      <point x="341" y="0" type="line"/>
      <point x="538" y="0" type="line"/>
      <point x="556" y="210" type="line"/>
      <point x="621" y="647" type="line"/>
      <point x="421" y="647" type="line"/>
      <point x="373" y="190" type="line"/>
    </contour>
  </outline>
</glyph>
<glyph name="Tse-cy" format="2">
  <advance width="723"/>
  <unicode hex="0426"/>
  <outline>
    <contour>
      <point x="391" y="0" type="line"/>
      <point x="592" y="0" type="line"/>
      <point x="610" y="210" type="line"/>
      <point x="675" y="647" type="line"/>
      <point x="471" y="647" type="line"/>
      <point x="424" y="190" type="line"/>
    </contour>
    <contour>
      <point x="133" y="0" type="line"/>
      <point x="496" y="0" type="line"/>
      <point x="516" y="162" type="line"/>
      <point x="153" y="162" type="line"/>
    </contour>
    <contour>
      <point x="31" y="0" type="line"/>
      <point x="232" y="0" type="line"/>
      <point x="250" y="210" type="line"/>
      <point x="315" y="647" type="line"/>
      <point x="111" y="647" type="line"/>
      <point x="64" y="190" type="line"/>
    </contour>
    <component base="descender-cy.case" xOffset="418"/>
  </outline>
</glyph>
<glyph name="Sha-cy" format="2">
  <advance width="955"/>
  <unicode hex="0428"/>
  <anchor x="658" y="0" name="bottomright"/>
  <outline>
    <contour>
      <point x="133" y="0" type="line"/>
      <point x="834" y="0" type="line"/>
      <point x="854" y="162" type="line"/>
      <point x="153" y="162" type="line"/>
    </contour>
    <contour>
      <point x="31" y="0" type="line"/>
      <point x="232" y="0" type="line"/>
      <point x="250" y="210" type="line"/>
      <point x="315" y="647" type="line"/>
      <point x="111" y="647" type="line"/>
      <point x="64" y="190" type="line"/>
    </contour>
    <contour>
      <point x="344" y="0" type="line"/>
      <point x="546" y="0" type="line"/>
      <point x="564" y="210" type="line"/>
      <point x="629" y="647" type="line"/>
      <point x="424" y="647" type="line"/>
      <point x="378" y="190" type="line"/>
    </contour>
    <contour>
      <point x="658" y="0" type="line"/>
      <point x="859" y="0" type="line"/>
      <point x="877" y="210" type="line"/>
      <point x="942" y="647" type="line"/>
      <point x="738" y="647" type="line"/>
      <point x="691" y="190" type="line"/>
    </contour>
  </outline>
</glyph>
<glyph name="Ereversed-cy" format="2">
  <advance width="566"/>
  <unicode hex="042D"/>
  <outline>
    <contour>
      <point x="166" y="-28" type="curve" smooth="yes"/>
      <point x="405" y="-28"/>
      <point x="546" y="95"/>
      <point x="575" y="330" type="curve" smooth="yes"/>
      <point x="603" y="562"/>
      <point x="502" y="675"/>
      <point x="263" y="675" type="curve" smooth="yes"/>
      <point x="210" y="675"/>
      <point x="152" y="669"/>
      <point x="91" y="656" type="curve"/>
      <point x="57" y="489" type="line"/>
      <point x="76" y="477" type="line"/>
      <point x="146" y="492"/>
      <point x="195" y="499"/>
      <point x="239" y="499" type="curve" smooth="yes"/>
      <point x="343" y="499"/>
      <point x="369" y="459"/>
      <point x="352" y="325" type="curve" smooth="yes"/>
      <point x="336" y="193"/>
      <point x="295" y="143"/>
      <point x="192" y="143" type="curve" smooth="yes"/>
      <point x="148" y="143"/>
      <point x="89" y="154"/>
      <point x="47" y="174" type="curve"/>
      <point x="33" y="168" type="line"/>
      <point x="-18" y="2" type="line"/>
      <point x="38" y="-17"/>
      <point x="99" y="-28"/>
    </contour>
    <contour>
      <point x="117" y="241" type="line"/>
      <point x="244" y="244" type="line"/>
      <point x="414" y="244" type="line"/>
      <point x="435" y="394" type="line"/>
      <point x="435" y="406" type="line"/>
      <point x="278" y="406" type="line"/>
      <point x="137" y="409" type="line"/>
      <point x="108" y="256" type="line"/>
    </contour>
  </outline>
</glyph>
<glyph name="Ia-cy" format="2">
  <advance width="631"/>
  <unicode hex="042F"/>
  <outline>
    <contour>
      <point x="290" y="194" type="curve"/>
      <point x="493" y="193" type="line"/>
      <point x="512" y="349" type="line"/>
      <point x="321" y="333" type="line"/>
      <point x="279" y="354"/>
      <point x="268" y="377"/>
      <point x="273" y="419" type="curve" smooth="yes"/>
      <point x="281" y="479"/>
      <point x="309" y="507"/>
      <point x="360" y="509" type="curve"/>
      <point x="485" y="500" type="line"/>
      <point x="621" y="647" type="line"/>
      <point x="351" y="649" type="line"/>
      <point x="199" y="649"/>
      <point x="80" y="560"/>
      <point x="65" y="435" type="curve" smooth="yes"/>
      <point x="51" y="314"/>
      <point x="130" y="231"/>
    </contour>
    <contour>
      <point x="180" y="-12" type="curve"/>
      <point x="199" y="0" type="line"/>
      <point x="252" y="92"/>
      <point x="307" y="187"/>
      <point x="356" y="285" type="curve"/>
      <point x="193" y="295" type="line"/>
      <point x="109" y="194"/>
      <point x="41" y="116"/>
      <point x="-22" y="50" type="curve"/>
      <point x="-16" y="27" type="line"/>
      <point x="40" y="6"/>
      <point x="105" y="-8"/>
    </contour>
    <contour>
      <point x="339" y="0" type="line"/>
      <point x="540" y="0" type="line"/>
      <point x="553" y="190" type="line"/>
      <point x="620" y="647" type="line"/>
      <point x="414" y="637" type="line"/>
      <point x="373" y="210" type="line"/>
    </contour>
  </outline>
</glyph>
<glyph name="de-cy" format="2">
  <advance width="463"/>
  <unicode hex="0434"/>
  <outline>
    <contour>
      <point x="174" y="-12" type="curve"/>
      <point x="363" y="-2"/>
      <point x="455" y="146"/>
      <point x="455" y="441" type="curve" smooth="yes"/>
      <point x="455" y="662"/>
      <point x="304" y="761"/>
      <point x="91" y="678" type="curve"/>
      <point x="75" y="594" type="line"/>
      <point x="81" y="587" type="line"/>
      <point x="218" y="595"/>
      <point x="276" y="546"/>
      <point x="276" y="421" type="curve" smooth="yes"/>
      <point x="276" y="176"/>
      <point x="263" y="121"/>
      <point x="206" y="121" type="curve" smooth="yes"/>
      <point x="185" y="121"/>
      <point x="178" y="134"/>
      <point x="178" y="174" type="curve" smooth="yes"/>
      <point x="178" y="309"/>
      <point x="189" y="344"/>
      <point x="231" y="346" type="curve"/>
      <point x="348" y="320" type="line"/>
      <point x="362" y="460" type="line"/>
      <point x="304" y="470"/>
      <point x="284" y="473"/>
      <point x="243" y="476" type="curve"/>
      <point x="120" y="476"/>
      <point x="7" y="342"/>
      <point x="7" y="197" type="curve" smooth="yes"/>
      <point x="7" y="81"/>
      <point x="70" y="2"/>
    </contour>
  </outline>
</glyph>
<glyph name="zhe-cy" format="2">
  <advance width="737"/>
  <unicode hex="0436"/>
  <anchor x="686" y="0" name="bottomright"/>
  <anchor x="397" y="472" name="top"/>
  <outline>
    <contour>
      <point x="147" y="-12" type="curve"/>
      <point x="164" y="-6" type="line"/>
      <point x="212" y="76"/>
      <point x="256" y="159"/>
      <point x="293" y="241" type="curve"/>
      <point x="291" y="259" type="line"/>
      <point x="236" y="416" type="line"/>
      <point x="224" y="472" type="line"/>
      <point x="42" y="472" type="line"/>
      <point x="155" y="190" type="line"/>
      <point x="151" y="314" type="line"/>
      <point x="96" y="220"/>
      <point x="37" y="127"/>
      <point x="-23" y="36" type="curve"/>
      <point x="-18" y="13" type="line"/>
      <point x="35" y="2"/>
      <point x="90" y="-8"/>
    </contour>
    <contour>
      <point x="253" y="-4" type="line"/>
      <point x="431" y="7" type="line"/>
      <point x="436" y="116" type="line"/>
      <point x="482" y="476" type="line"/>
      <point x="304" y="465" type="line"/>
      <point x="300" y="352" type="line"/>
    </contour>
    <contour>
      <point x="534" y="-12" type="line"/>
      <point x="591" y="-8"/>
      <point x="649" y="0"/>
      <point x="706" y="11" type="curve"/>
      <point x="708" y="28" type="line"/>
      <point x="675" y="104"/>
      <point x="646" y="181"/>
      <point x="619" y="259" type="curve"/>
      <point x="755" y="472" type="line"/>
      <point x="566" y="472" type="line"/>
      <point x="539" y="416" type="line"/>
      <point x="447" y="259" type="line"/>
      <point x="446" y="249" type="line"/>
      <point x="464" y="167"/>
      <point x="488" y="84"/>
      <point x="516" y="2" type="curve"/>
    </contour>
  </outline>
</glyph>
<glyph name="em-cy" format="2">
  <advance width="634"/>
  <unicode hex="043C"/>
  <outline>
    <contour>
      <point x="-8" y="0" type="line"/>
      <point x="133" y="0" type="line"/>
      <point x="159" y="159" type="line"/>
      <point x="175" y="240" type="line"/>
      <point x="186" y="240" type="line"/>
      <point x="221" y="42" type="line"/>
      <point x="346" y="42" type="line"/>
      <point x="438" y="240" type="line"/>
      <point x="449" y="240" type="line"/>
      <point x="444" y="143" type="line"/>
      <point x="431" y="0" type="line"/>
      <point x="580" y="0" type="line"/>
      <point x="597" y="477" type="line"/>
      <point x="406" y="465" type="line"/>
      <point x="381" y="399" type="line"/>
      <point x="322" y="253" type="line"/>
      <point x="313" y="253" type="line"/>
      <point x="293" y="406" type="line"/>
      <point x="289" y="477" type="line"/>
      <point x="96" y="465" type="line"/>
    </contour>
  </outline>
</glyph>
<glyph name="en-cy" format="2">
  <advance width="527"/>
  <unicode hex="043D"/>
  <anchor x="283" y="-4" name="bottomright"/>
  <outline>
    <contour>
      <point x="243" y="476" type="line"/>
      <point x="65" y="465" type="line"/>
      <point x="61" y="352" type="line"/>
      <point x="14" y="-4" type="line"/>
      <point x="192" y="7" type="line"/>
      <point x="197" y="116" type="line"/>
    </contour>
    <contour>
      <point x="512" y="476" type="line"/>
      <point x="334" y="465" type="line"/>
      <point x="330" y="352" type="line"/>
      <point x="283" y="-4" type="line"/>
      <point x="461" y="7" type="line"/>
      <point x="466" y="116" type="line"/>
    </contour>
    <contour>
      <point x="136" y="306" type="line"/>
      <point x="118" y="158" type="line"/>
      <point x="252" y="163" type="line"/>
      <point x="388" y="160" type="line"/>
      <point x="406" y="305" type="line"/>
      <point x="279" y="303" type="line"/>
    </contour>
  </outline>
</glyph>
<glyph name="ef-cy" format="2">
  <advance width="678"/>
  <unicode hex="0444"/>
  <outline>
    <contour>
      <point x="199" y="-196" type="line"/>
      <point x="377" y="-185" type="line"/>
      <point x="381" y="-76" type="line"/>
      <point x="484" y="704" type="line"/>
      <point x="306" y="693" type="line"/>
      <point x="302" y="580" type="line"/>
    </contour>
    <contour>
      <point x="135" y="-10" type="curve"/>
      <point x="156" y="-10" type="line"/>
      <point x="176" y="8"/>
      <point x="194" y="30"/>
      <point x="221" y="71" type="curve"/>
      <point x="251" y="71" type="line"/>
      <point x="275" y="228" type="line"/>
      <point x="231" y="175"/>
      <point x="207" y="152"/>
      <point x="189" y="152" type="curve" smooth="yes"/>
      <point x="174" y="152"/>
      <point x="167" y="175"/>
      <point x="167" y="228" type="curve" smooth="yes"/>
      <point x="167" y="308"/>
      <point x="185" y="349"/>
      <point x="219" y="349" type="curve"/>
      <point x="359" y="309" type="line"/>
      <point x="382" y="454" type="line"/>
      <point x="246" y="479" type="line"/>
      <point x="100" y="431"/>
      <point x="3" y="300"/>
      <point x="3" y="156" type="curve" smooth="yes"/>
      <point x="3" y="61"/>
      <point x="41" y="13"/>
    </contour>
    <contour>
      <point x="432" y="-8" type="line"/>
      <point x="576" y="40"/>
      <point x="675" y="171"/>
      <point x="675" y="315" type="curve" smooth="yes"/>
      <point x="675" y="410"/>
      <point x="636" y="458"/>
      <point x="541" y="481" type="curve"/>
      <point x="521" y="481" type="line"/>
      <point x="501" y="463"/>
      <point x="484" y="441"/>
      <point x="457" y="400" type="curve"/>
      <point x="427" y="400" type="line"/>
      <point x="402" y="243" type="line"/>
      <point x="445" y="296"/>
      <point x="471" y="319"/>
      <point x="489" y="319" type="curve" smooth="yes"/>
      <point x="504" y="319"/>
      <point x="510" y="296"/>
      <point x="510" y="243" type="curve" smooth="yes"/>
      <point x="510" y="163"/>
      <point x="492" y="122"/>
      <point x="458" y="122" type="curve"/>
      <point x="317" y="162" type="line"/>
      <point x="296" y="17" type="line"/>
    </contour>
  </outline>
</glyph>
<glyph name="tse-cy" format="2">
  <advance width="552"/>
  <unicode hex="0446"/>
  <outline>
    <contour>
      <point x="154" y="-4" type="curve"/>
      <point x="167" y="-3" type="line"/>
      <point x="208" y="37"/>
      <point x="239" y="73"/>
      <point x="271" y="116" type="curve"/>
      <point x="308" y="116" type="line"/>
      <point x="332" y="315" type="line"/>
      <point x="274" y="220"/>
      <point x="238" y="177"/>
      <point x="216" y="177" type="curve" smooth="yes"/>
      <point x="204" y="177"/>
      <point x="198" y="184"/>
      <point x="198" y="200" type="curve"/>
      <point x="199" y="213" type="line"/>
      <point x="241" y="474" type="line"/>
      <point x="59" y="463" type="line"/>
      <point x="55" y="351" type="line"/>
      <point x="18" y="125" type="line"/>
      <point x="16" y="105" type="line"/>
      <point x="16" y="48"/>
      <point x="69" y="6"/>
    </contour>
    <component base="_part.stemDescender-cy" xOffset="253"/>
  </outline>
</glyph>
<glyph name="shcha-cy" format="2">
  <advance width="813"/>
  <unicode hex="0449"/>
  <anchor x="530" y="-4" name="bottomright"/>
  <outline>
    <contour>
      <point x="241" y="474" type="line"/>
      <point x="59" y="463" type="line"/>
      <point x="55" y="351" type="line"/>
      <point x="18" y="125" type="line"/>
      <point x="16" y="105" type="line"/>
      <point x="16" y="48"/>
      <point x="69" y="6"/>
      <point x="154" y="-4" type="curve"/>
      <point x="167" y="-3" type="line"/>
      <point x="206" y="34"/>
      <point x="238" y="72"/>
      <point x="271" y="116" type="curve"/>
      <point x="308" y="116" type="line"/>
      <point x="332" y="315" type="line"/>
      <point x="274" y="218"/>
      <point x="237" y="177"/>
      <point x="216" y="177" type="curve" smooth="yes"/>
      <point x="204" y="177"/>
      <point x="198" y="184"/>
      <point x="198" y="200" type="curve"/>
      <point x="199" y="213" type="line"/>
    </contour>
    <contour>
      <point x="503" y="474" type="line"/>
      <point x="321" y="463" type="line"/>
      <point x="317" y="351" type="line"/>
      <point x="283" y="125" type="line"/>
      <point x="283" y="105" type="line"/>
      <point x="283" y="48"/>
      <point x="331" y="6"/>
      <point x="416" y="-4" type="curve"/>
      <point x="429" y="-3" type="line"/>
      <point x="468" y="34"/>
      <point x="500" y="72"/>
      <point x="533" y="116" type="curve"/>
      <point x="570" y="116" type="line"/>
      <point x="594" y="315" type="line"/>
      <point x="536" y="218"/>
      <point x="499" y="177"/>
      <point x="478" y="177" type="curve" smooth="yes"/>
      <point x="466" y="177"/>
      <point x="460" y="184"/>
      <point x="460" y="200" type="curve"/>
      <point x="461" y="213" type="line"/>
    </contour>
    <component base="_part.stemDescender-cy" xOffset="514"/>
  </outline>
</glyph>
<glyph name="hardsign-cy" format="2">
  <advance width="486"/>
  <unicode hex="044A"/>
  <outline>
    <contour>
      <point x="210" y="-10" type="line"/>
      <point x="217" y="-10" type="line"/>
      <point x="356" y="6"/>
      <point x="478" y="110"/>
      <point x="480" y="212" type="curve" smooth="yes"/>
      <point x="482" y="294"/>
      <point x="439" y="345"/>
      <point x="360" y="359" type="curve"/>
      <point x="337" y="359" type="line"/>
      <point x="311" y="336"/>
      <point x="292" y="317"/>
      <point x="277" y="297" type="curve"/>
      <point x="248" y="297" type="line"/>
      <point x="190" y="118" type="line"/>
      <point x="261" y="211"/>
      <point x="284" y="232"/>
      <point x="299" y="232" type="curve" smooth="yes"/>
      <point x="313" y="232"/>
      <point x="320" y="214"/>
      <point x="319" y="181" type="curve" smooth="yes"/>
      <point x="318" y="145"/>
      <point x="293" y="110"/>
      <point x="266" y="110" type="curve"/>
      <point x="143" y="135" type="line"/>
      <point x="33" y="28" type="line"/>
    </contour>
    <contour>
      <point x="33" y="28" type="line"/>
      <point x="196" y="66" type="line"/>
      <point x="322" y="472" type="line"/>
      <point x="169" y="472" type="line"/>
    </contour>
    <contour>
      <point x="25" y="334" type="line"/>
      <point x="92" y="340" type="line"/>
      <point x="207" y="340" type="line"/>
      <point x="322" y="472" type="line"/>
      <point x="40" y="472" type="line"/>
      <point x="16" y="346" type="line"/>
    </contour>
  </outline>
</glyph>
<glyph name="ia-cy" format="2">
  <advance width="487"/>
  <unicode hex="044F"/>
  <anchor x="269" y="472" name="top"/>
  <outline>
    <contour>
      <point x="149" y="-9" type="curve"/>
      <point x="164" y="0" type="line"/>
      <point x="197" y="61"/>
      <point x="231" y="123"/>
      <point x="264" y="184" type="curve"/>
      <point x="249" y="237" type="line"/>
      <point x="239" y="242" type="line"/>
      <point x="203" y="227"/>
      <point x="186" y="239"/>
      <point x="186" y="277" type="curve" smooth="yes"/>
      <point x="186" y="322"/>
      <point x="209" y="356"/>
      <point x="241" y="356" type="curve"/>
      <point x="371" y="328" type="line"/>
      <point x="411" y="460" type="line"/>
      <point x="253" y="482" type="line"/>
      <point x="111" y="436"/>
      <point x="27" y="351"/>
      <point x="27" y="254" type="curve" smooth="yes"/>
      <point x="27" y="178"/>
      <point x="79" y="131"/>
      <point x="171" y="124" type="curve"/>
      <point x="147" y="220" type="line"/>
      <point x="95" y="156"/>
      <point x="43" y="100"/>
      <point x="-20" y="40" type="curve"/>
      <point x="-14" y="20" type="line"/>
      <point x="42" y="4"/>
      <point x="97" y="-6"/>
    </contour>
    <contour>
      <point x="462" y="482" type="line"/>
      <point x="306" y="459" type="line"/>
      <point x="244" y="-4" type="line"/>
      <point x="422" y="7" type="line"/>
      <point x="426" y="116" type="line"/>
      <point x="473" y="474" type="line"/>
    </contour>
  </outline>
</glyph>
<glyph name="e-cy" format="2">
  <advance width="402"/>
  <unicode hex="0454"/>
  <outline>
    <contour>
      <point x="318" y="480" type="line"/>
      <point x="128" y="480"/>
      <point x="8" y="367"/>
      <point x="8" y="187" type="curve" smooth="yes"/>
      <point x="8" y="67"/>
      <point x="61" y="7"/>
      <point x="184" y="-10" type="curve"/>
      <point x="206" y="-10" type="line"/>
      <point x="275" y="9"/>
      <point x="331" y="45"/>
      <point x="376" y="99" type="curve"/>
      <point x="329" y="169" type="line"/>
      <point x="306" y="170" type="line"/>
      <point x="279" y="142"/>
      <point x="250" y="126"/>
      <point x="222" y="126" type="curve" smooth="yes"/>
      <point x="186" y="126"/>
      <point x="173" y="150"/>
      <point x="173" y="218" type="curve" smooth="yes"/>
      <point x="173" y="315"/>
      <point x="200" y="360"/>
      <point x="259" y="360" type="curve" smooth="yes"/>
      <point x="289" y="360"/>
      <point x="308" y="348"/>
      <point x="336" y="311" type="curve"/>
      <point x="374" y="312" type="line"/>
      <point x="420" y="437" type="line"/>
      <point x="414" y="454" type="line"/>
    </contour>
    <contour>
      <point x="289" y="189" type="line"/>
      <point x="310" y="291" type="line"/>
      <point x="304" y="302" type="line"/>
      <point x="246" y="301" type="line"/>
      <point x="98" y="300" type="line"/>
      <point x="87" y="191" type="line"/>
      <point x="226" y="191" type="line"/>
    </contour>
  </outline>
</glyph>
<glyph name="Gheupturn-cy" format="2">
  <advance width="487"/>
  <unicode hex="0490"/>
  <outline>
    <contour>
      <point x="31" y="0" type="line"/>
      <point x="226" y="0" type="line"/>
      <point x="244" y="210" type="line"/>
      <point x="308" y="647" type="line"/>
      <point x="110" y="647" type="line"/>
      <point x="64" y="190" type="line"/>
    </contour>
    <contour>
      <point x="236" y="493" type="line"/>
      <point x="355" y="493" type="line"/>
      <point x="495" y="487" type="line"/>
      <point x="517" y="647" type="line"/>
      <point x="255" y="647" type="line"/>
    </contour>
    <contour>
      <point x="495" y="487" type="line"/>
      <point x="545" y="761" type="line"/>
      <point x="420" y="769" type="line"/>
      <point x="327" y="516" type="line"/>
    </contour>
  </outline>
</glyph>
<glyph name="gheupturn-cy" format="2">
  <advance width="372"/>
  <unicode hex="0491"/>
  <outline>
    <contour>
      <point x="69" y="472" type="line"/>
      <point x="65" y="352" type="line"/>
      <point x="22" y="26" type="line" smooth="yes"/>
      <point x="14" y="-35"/>
      <point x="-16" y="-74"/>
      <point x="-69" y="-99" type="curve"/>
      <point x="-71" y="-115" type="line"/>
      <point x="-15" y="-195" type="line"/>
      <point x="115" y="-143"/>
      <point x="182" y="-71"/>
      <point x="192" y="36" type="curve" smooth="yes"/>
      <point x="200" y="118" type="line"/>
      <point x="246" y="472" type="line"/>
    </contour>
    <contour>
      <point x="369" y="334" type="line"/>
      <point x="369" y="472" type="line"/>
      <point x="160" y="472" type="line"/>
      <point x="145" y="340" type="line"/>
      <point x="271" y="340" type="line"/>
    </contour>
    <contour>
      <point x="369" y="334" type="line"/>
      <point x="415" y="590" type="line"/>
      <point x="299" y="598" type="line"/>
      <point x="214" y="361" type="line"/>
    </contour>
  </outline>
</glyph>
<glyph name="Ghemiddlehook-cy" format="2">
  <advance width="596"/>
  <unicode hex="0494"/>
  <outline>
    <contour>
      <point x="328" y="-199" type="line"/>
      <point x="475" y="-106"/>
      <point x="543" y="4"/>
      <point x="564" y="180" type="curve" smooth="yes"/>
      <point x="587" y="364"/>
      <point x="538" y="434"/>
      <point x="390" y="436" type="curve"/>
      <point x="347" y="419"/>
      <point x="307" y="395"/>
      <point x="274" y="363" type="curve"/>
      <point x="250" y="360" type="line"/>
      <point x="239" y="229" type="line"/>
      <point x="278" y="252"/>
      <point x="309" y="265"/>
      <point x="341" y="265" type="curve" smooth="yes"/>
      <point x="385" y="265"/>
      <point x="394" y="242"/>
      <point x="385" y="163" type="curve" smooth="yes"/>
      <point x="370" y="43"/>
      <point x="328" y="-44"/>
      <point x="263" y="-99" type="curve"/>
      <point x="264" y="-118" type="line"/>
    </contour>
    <contour>
      <point x="31" y="0" type="line"/>
      <point x="226" y="0" type="line"/>
      <point x="244" y="210" type="line"/>
      <point x="308" y="647" type="line"/>
      <point x="110" y="647" type="line"/>
      <point x="64" y="190" type="line"/>
    </contour>
    <contour>
      <point x="236" y="493" type="line"/>
      <point x="377" y="493" type="line"/>
      <point x="510" y="487" type="line"/>
      <point x="538" y="633" type="line"/>
      <point x="530" y="647" type="line"/>
      <point x="255" y="647" type="line"/>
      <point x="237" y="504" type="line"/>
    </contour>
  </outline>
</glyph>
<glyph name="ghemiddlehook-cy" format="2">
  <advance width="487"/>
  <unicode hex="0495"/>
  <outline>
    <contour>
      <point x="235" y="-196" type="line"/>
      <point x="365" y="-144"/>
      <point x="429" y="-72"/>
      <point x="442" y="35" type="curve" smooth="yes"/>
      <point x="452" y="119" type="line"/>
      <point x="464" y="204" type="line"/>
      <point x="465" y="218" type="line"/>
      <point x="466" y="268"/>
      <point x="421" y="303"/>
      <point x="345" y="312" type="curve"/>
      <point x="332" y="311" type="line"/>
      <point x="295" y="290"/>
      <point x="259" y="264"/>
      <point x="224" y="231" type="curve"/>
      <point x="204" y="231" type="line"/>
      <point x="176" y="77" type="line"/>
      <point x="213" y="139"/>
      <point x="252" y="172"/>
      <point x="274" y="172" type="curve" smooth="yes"/>
      <point x="286" y="172"/>
      <point x="291" y="165"/>
      <point x="291" y="150" type="curve"/>
      <point x="290" y="137" type="line"/>
      <point x="272" y="25" type="line" smooth="yes"/>
      <point x="262" y="-37"/>
      <point x="234" y="-75"/>
      <point x="181" y="-100" type="curve"/>
      <point x="179" y="-116" type="line"/>
    </contour>
    <contour>
      <point x="15" y="-4" type="line"/>
      <point x="193" y="7" type="line"/>
      <point x="198" y="116" type="line"/>
      <point x="243" y="472" type="line"/>
      <point x="66" y="472" type="line"/>
      <point x="62" y="352" type="line"/>
    </contour>
    <contour>
      <point x="412" y="339" type="line"/>
      <point x="437" y="461" type="line"/>
      <point x="428" y="472" type="line"/>
      <point x="183" y="472" type="line"/>
      <point x="168" y="344" type="line"/>
      <point x="314" y="344" type="line"/>
    </contour>
  </outline>
</glyph>
<glyph name="kadescender-cy" format="2">
  <advance width="533"/>
  <unicode hex="049B"/>
  <outline>
    <contour>
      <point x="292" y="0" type="line"/>
      <point x="469" y="12" type="line"/>
      <point x="471" y="28" type="line"/>
      <point x="437" y="106"/>
      <point x="406" y="182"/>
      <point x="379" y="259" type="curve"/>
      <point x="519" y="472" type="line"/>
      <point x="331" y="472" type="line"/>
      <point x="304" y="416" type="line"/>
      <point x="207" y="257" type="line"/>
      <point x="208" y="249" type="line"/>
      <point x="223" y="168"/>
      <point x="246" y="91"/>
      <point x="276" y="14" type="curve"/>
    </contour>
    <contour>
      <point x="14" y="-4" type="line"/>
      <point x="192" y="7" type="line"/>
      <point x="197" y="116" type="line"/>
      <point x="243" y="476" type="line"/>
      <point x="65" y="465" type="line"/>
      <point x="61" y="352" type="line"/>
    </contour>
    <contour>
      <point x="404" y="-197" type="line"/>
      <point x="447" y="-149"/>
      <point x="473" y="-94"/>
      <point x="486" y="-29" type="curve" smooth="yes"/>
      <point x="513" y="111" type="line"/>
      <point x="500" y="135" type="line"/>
      <point x="292" y="135" type="line"/>
      <point x="292" y="0" type="line"/>
      <point x="354" y="0" type="line"/>
      <point x="343" y="-16" type="line" smooth="yes"/>
      <point x="322" y="-47"/>
      <point x="289" y="-82"/>
      <point x="261" y="-103" type="curve"/>
      <point x="261" y="-129" type="line"/>
    </contour>
  </outline>
</glyph>
<glyph name="kaverticalstroke-cy" format="2">
  <advance width="601"/>
  <unicode hex="049D"/>
  <outline>
    <contour>
      <point x="400" y="-12" type="line"/>
      <point x="457" y="-8"/>
      <point x="514" y="0"/>
      <point x="571" y="11" type="curve"/>
      <point x="573" y="28" type="line"/>
      <point x="539" y="104"/>
      <point x="509" y="181"/>
      <point x="481" y="259" type="curve"/>
      <point x="620" y="472" type="line"/>
      <point x="431" y="472" type="line"/>
      <point x="404" y="416" type="line"/>
      <point x="309" y="259" type="line"/>
      <point x="308" y="249" type="line"/>
      <point x="327" y="167"/>
      <point x="352" y="84"/>
      <point x="381" y="2" type="curve"/>
    </contour>
    <contour>
      <point x="14" y="-4" type="line"/>
      <point x="192" y="7" type="line"/>
      <point x="197" y="116" type="line"/>
      <point x="243" y="476" type="line"/>
      <point x="65" y="465" type="line"/>
      <point x="61" y="352" type="line"/>
    </contour>
    <contour>
      <point x="137" y="180" type="line"/>
      <point x="394" y="180" type="line"/>
      <point x="409" y="311" type="line"/>
      <point x="153" y="311" type="line"/>
    </contour>
    <contour>
      <point x="227" y="78" type="line"/>
      <point x="305" y="82" type="line"/>
      <point x="345" y="414" type="line"/>
      <point x="337" y="420" type="line"/>
      <point x="259" y="416" type="line"/>
      <point x="219" y="85" type="line"/>
    </contour>
  </outline>
</glyph>
<glyph name="Kabashkir-cy" format="2">
  <advance width="710"/>
  <unicode hex="04A0"/>
  <outline>
    <contour>
      <point x="758" y="647" type="line"/>
      <point x="550" y="647" type="line"/>
      <point x="507" y="577" type="line"/>
      <point x="340" y="344" type="line"/>
      <point x="342" y="336" type="line"/>
      <point x="385" y="222"/>
      <point x="432" y="113"/>
      <point x="480" y="4" type="curve"/>
      <point x="502" y="-12" type="line"/>
      <point x="567" y="-6"/>
      <point x="632" y="4"/>
      <point x="699" y="19" type="curve"/>
      <point x="699" y="38" type="line"/>
      <point x="640" y="135"/>
      <point x="583" y="235"/>
      <point x="533" y="337" type="curve"/>
    </contour>
    <contour>
      <point x="405" y="647" type="line"/>
      <point x="207" y="647" type="line"/>
      <point x="160" y="190" type="line"/>
      <point x="127" y="0" type="line"/>
      <point x="322" y="0" type="line"/>
      <point x="340" y="210" type="line"/>
    </contour>
    <contour>
      <point x="287" y="493" type="line"/>
      <point x="306" y="647" type="line"/>
      <point x="70" y="647" type="line"/>
      <point x="42" y="501" type="line"/>
      <point x="52" y="487" type="line"/>
      <point x="181" y="493" type="line"/>
    </contour>
  </outline>
</glyph>
<glyph name="Shha-cy" format="2">
  <advance width="602"/>
  <unicode hex="04BA"/>
  <outline>
    <contour>
      <point x="351" y="0" type="line"/>
      <point x="545" y="0" type="line"/>
      <point x="568" y="240" type="line"/>
      <point x="587" y="397"/>
      <point x="533" y="470"/>
      <point x="391" y="472" type="curve"/>
      <point x="348" y="455"/>
      <point x="308" y="431"/>
      <point x="275" y="399" type="curve"/>
      <point x="250" y="396" type="line"/>
      <point x="240" y="265" type="line"/>
      <point x="276" y="288"/>
      <point x="309" y="301"/>
      <point x="340" y="301" type="curve" smooth="yes"/>
      <point x="382" y="301"/>
      <point x="395" y="278"/>
      <point x="387" y="214" type="curve"/>
    </contour>
    <contour>
      <point x="26" y="0" type="line"/>
      <point x="221" y="0" type="line"/>
      <point x="239" y="210" type="line"/>
      <point x="304" y="647" type="line"/>
      <point x="106" y="647" type="line"/>
      <point x="59" y="190" type="line"/>
    </contour>
  </outline>
</glyph>
<glyph name="Obarred-cy" format="2">
  <advance width="658"/>
  <unicode hex="04E8"/>
  <outline>
    <contour>
      <point x="380" y="659" type="curve" smooth="yes"/>
      <point x="150" y="659"/>
      <point x="24" y="498"/>
      <point x="24" y="276" type="curve" smooth="yes"/>
      <point x="24" y="78"/>
      <point x="129" y="-12"/>
      <point x="299" y="-12" type="curve" smooth="yes"/>
      <point x="529" y="-12"/>
      <point x="655" y="152"/>
      <point x="655" y="374" type="curve" smooth="yes"/>
      <point x="655" y="571"/>
      <point x="550" y="659"/>
    </contour>
    <contour>
      <point x="357" y="499" type="curve" smooth="yes"/>
      <point x="428" y="499"/>
      <point x="443" y="464"/>
      <point x="443" y="362" type="curve" smooth="yes"/>
      <point x="443" y="170"/>
      <point x="390" y="136"/>
      <point x="320" y="136" type="curve" smooth="yes"/>
      <point x="249" y="136"/>
      <point x="234" y="171"/>
      <point x="234" y="273" type="curve" smooth="yes"/>
      <point x="234" y="465"/>
      <point x="287" y="499"/>
    </contour>
    <contour>
      <point x="545" y="400" type="line"/>
      <point x="138" y="378" type="line"/>
      <point x="108" y="260" type="line"/>
      <point x="122" y="239" type="line"/>
      <point x="531" y="261" type="line"/>
      <point x="559" y="379" type="line"/>
    </contour>
  </outline>
</glyph>
<glyph name="figuredash" format="2">
  <advance width="476"/>
  <unicode hex="2012"/>
  <outline>
    <contour>
      <point x="486" y="325" type="line"/>
      <point x="2" y="325" type="line"/>
      <point x="-21" y="208" type="line"/>
      <point x="-11" y="195" type="line"/>
      <point x="473" y="195" type="line"/>
      <point x="496" y="312" type="line"/>
    </contour>
  </outline>
</glyph>
<glyph name="minute" format="2">
  <advance width="250.132"/>
  <unicode hex="2032"/>
  <outline>
    <contour>
      <point x="254" y="646" type="line"/>
      <point x="102" y="637" type="line"/>
      <point x="79" y="369" type="line"/>
      <point x="93" y="358" type="line"/>
      <point x="182" y="372" type="line"/>
      <point x="263" y="634" type="line"/>
    </contour>
  </outline>
</glyph>
<glyph name="second" format="2">
  <advance width="448.132"/>
  <unicode hex="2033"/>
  <outline>
    <contour>
      <point x="452" y="646" type="line"/>
      <point x="300" y="637" type="line"/>
      <point x="277" y="369" type="line"/>
      <point x="291" y="358" type="line"/>
      <point x="380" y="372" type="line"/>
      <point x="461" y="634" type="line"/>
    </contour>
    <contour>
      <point x="254" y="646" type="line"/>
      <point x="102" y="637" type="line"/>
      <point x="79" y="369" type="line"/>
      <point x="93" y="358" type="line"/>
      <point x="182" y="372" type="line"/>
      <point x="263" y="634" type="line"/>
    </contour>
  </outline>
</glyph>
<glyph name="colonsign" format="2">
  <advance width="449"/>
  <unicode hex="20A1"/>
  <anchor x="246" y="0" name="bottom"/>
  <anchor x="314" y="513" name="top"/>
  <outline>
    <contour>
      <point x="279" y="431" type="line"/>
      <point x="175" y="431" type="line"/>
      <point x="110" y="82" type="line"/>
      <point x="214" y="82" type="line"/>
    </contour>
    <contour>
      <point x="214" y="82" type="line"/>
      <point x="110" y="82" type="line"/>
      <point x="73" y="-126" type="line"/>
      <point x="84" y="-140" type="line"/>
      <point x="174" y="-140" type="line"/>
    </contour>
    <contour>
      <point x="302" y="646" type="line"/>
      <point x="213" y="646" type="line"/>
      <point x="175" y="431" type="line"/>
      <point x="279" y="431" type="line"/>
      <point x="315" y="632" type="line"/>
    </contour>
    <contour>
      <point x="431" y="431" type="line"/>
      <point x="328" y="431" type="line"/>
      <point x="262" y="82" type="line"/>
      <point x="367" y="82" type="line"/>
    </contour>
    <contour>
      <point x="367" y="82" type="line"/>
      <point x="262" y="82" type="line"/>
      <point x="226" y="-126" type="line"/>
      <point x="236" y="-140" type="line"/>
      <point x="327" y="-140" type="line"/>
    </contour>
    <contour>
      <point x="455" y="646" type="line"/>
      <point x="366" y="646" type="line"/>
      <point x="328" y="431" type="line"/>
      <point x="431" y="431" type="line"/>
      <point x="468" y="632" type="line"/>
    </contour>
    <contour>
      <point x="342" y="522" type="curve" smooth="yes"/>
      <point x="139" y="522"/>
      <point x="18" y="405"/>
      <point x="18" y="210" type="curve" smooth="yes"/>
      <point x="18" y="68"/>
      <point x="99" y="-10"/>
      <point x="268" y="-10" type="curve" smooth="yes"/>
      <point x="303" y="-10"/>
      <point x="341" y="-9"/>
      <point x="381" y="-2" type="curve"/>
      <point x="414" y="144" type="line"/>
      <point x="400" y="153" type="line"/>
      <point x="371" y="147"/>
      <point x="329" y="143"/>
      <point x="302" y="143" type="curve" smooth="yes"/>
      <point x="244" y="143"/>
      <point x="217" y="173"/>
      <point x="217" y="242" type="curve" smooth="yes"/>
      <point x="217" y="337"/>
      <point x="241" y="372"/>
      <point x="317" y="372" type="curve" smooth="yes"/>
      <point x="346" y="372"/>
      <point x="387" y="364"/>
      <point x="413" y="351" type="curve"/>
      <point x="426" y="359" type="line"/>
      <point x="476" y="506" type="line"/>
      <point x="437" y="516"/>
      <point x="392" y="522"/>
    </contour>
  </outline>
</glyph>
<glyph name="franc" format="2">
  <advance width="441"/>
  <unicode hex="20A3"/>
  <outline>
    <contour>
      <point x="263" y="510" type="line"/>
      <point x="93" y="510" type="line"/>
      <point x="56" y="149" type="line"/>
      <point x="30" y="0" type="line"/>
      <point x="197" y="0" type="line"/>
      <point x="211" y="166" type="line"/>
    </contour>
    <contour>
      <point x="313" y="138" type="line"/>
      <point x="-2" y="138" type="line"/>
      <point x="-14" y="78" type="line"/>
      <point x="-9" y="70" type="line"/>
      <point x="307" y="70" type="line"/>
      <point x="319" y="129" type="line"/>
    </contour>
    <contour>
      <point x="398" y="317" type="line"/>
      <point x="294" y="314" type="line"/>
      <point x="188" y="314" type="line"/>
      <point x="174" y="196" type="line"/>
      <point x="173" y="189" type="line"/>
      <point x="268" y="189" type="line"/>
      <point x="381" y="186" type="line"/>
      <point x="406" y="306" type="line"/>
    </contour>
    <contour>
      <point x="468" y="510" type="line"/>
      <point x="205" y="510" type="line"/>
      <point x="190" y="393" type="line"/>
      <point x="190" y="385" type="line"/>
      <point x="310" y="385" type="line"/>
      <point x="450" y="379" type="line"/>
      <point x="475" y="499" type="line"/>
    </contour>
  </outline>
</glyph>
<glyph name="lira" format="2">
  <advance width="484"/>
  <unicode hex="20A4"/>
  <outline>
    <contour>
      <point x="384" y="597" type="curve" smooth="yes"/>
      <point x="224" y="597"/>
      <point x="126" y="523"/>
      <point x="111" y="392" type="curve" smooth="yes"/>
      <point x="90" y="208" type="line" smooth="yes"/>
      <point x="84" y="157"/>
      <point x="61" y="131"/>
      <point x="6" y="117" type="curve"/>
      <point x="-15" y="9" type="line"/>
      <point x="-10" y="0" type="line"/>
      <point x="264" y="-2" type="line" smooth="yes"/>
      <point x="420" y="-3" type="line"/>
      <point x="449" y="127" type="line"/>
      <point x="445" y="135" type="line"/>
      <point x="333" y="127" type="line"/>
      <point x="206" y="127" type="line"/>
      <point x="207" y="132" type="line"/>
      <point x="245" y="169"/>
      <point x="256" y="192"/>
      <point x="263" y="247" type="curve" smooth="yes"/>
      <point x="287" y="423" type="line" smooth="yes"/>
      <point x="291" y="457"/>
      <point x="311" y="473"/>
      <point x="351" y="473" type="curve" smooth="yes"/>
      <point x="382" y="473"/>
      <point x="418" y="463"/>
      <point x="464" y="441" type="curve"/>
      <point x="477" y="449" type="line"/>
      <point x="505" y="584" type="line"/>
      <point x="465" y="593"/>
      <point x="426" y="597"/>
    </contour>
    <contour>
      <point x="420" y="401" type="line"/>
      <point x="41" y="401" type="line"/>
      <point x="26" y="326" type="line"/>
      <point x="31" y="317" type="line"/>
      <point x="410" y="317" type="line"/>
      <point x="424" y="392" type="line"/>
    </contour>
    <contour>
      <point x="405" y="274" type="line"/>
      <point x="26" y="274" type="line"/>
      <point x="10" y="199" type="line"/>
      <point x="15" y="190" type="line"/>
      <point x="394" y="190" type="line"/>
      <point x="408" y="265" type="line"/>
    </contour>
  </outline>
</glyph>
<glyph name="peseta" format="2">
  <advance width="1338"/>
  <unicode hex="20A7"/>
  <anchor x="1125" y="0" name="bottom"/>
  <anchor x="768" y="236" name="center"/>
  <anchor x="1186" y="472" name="top"/>
  <anchor x="991" y="472" name="topright"/>
  <outline>
    <contour>
      <point x="408" y="648" type="curve"/>
      <point x="111" y="647" type="line"/>
      <point x="211" y="500" type="line"/>
      <point x="330" y="509" type="line"/>
      <point x="383" y="506"/>
      <point x="408" y="485"/>
      <point x="408" y="438" type="curve" smooth="yes"/>
      <point x="408" y="383"/>
      <point x="390" y="348"/>
      <point x="342" y="323" type="curve"/>
      <point x="144" y="334" type="line"/>
      <point x="125" y="183" type="line"/>
      <point x="307" y="183" type="line"/>
      <point x="496" y="183"/>
      <point x="621" y="301"/>
      <point x="621" y="471" type="curve" smooth="yes"/>
      <point x="621" y="584"/>
      <point x="540" y="648"/>
    </contour>
    <contour>
      <point x="315" y="647" type="line"/>
      <point x="111" y="647" type="line"/>
      <point x="65" y="190" type="line"/>
      <point x="32" y="0" type="line"/>
      <point x="233" y="0" type="line"/>
      <point x="251" y="210" type="line"/>
    </contour>
    <contour>
      <point x="779" y="-10" type="curve"/>
      <point x="842" y="10"/>
      <point x="890" y="55"/>
      <point x="930" y="130" type="curve"/>
      <point x="879" y="193" type="line"/>
      <point x="866" y="192" type="line"/>
      <point x="837" y="152"/>
      <point x="834" y="149"/>
      <point x="826" y="149" type="curve" smooth="yes"/>
      <point x="820" y="149"/>
      <point x="817" y="152"/>
      <point x="817" y="158" type="curve"/>
      <point x="818" y="166" type="line"/>
      <point x="882" y="588" type="line"/>
      <point x="870" y="598" type="line"/>
      <point x="700" y="560" type="line"/>
      <point x="679" y="355" type="line"/>
      <point x="647" y="137" type="line"/>
      <point x="644" y="107" type="line"/>
      <point x="641" y="36"/>
      <point x="694" y="-10"/>
    </contour>
    <contour>
      <point x="618" y="362" type="line"/>
      <point x="962" y="362" type="line"/>
      <point x="973" y="449" type="line"/>
      <point x="961" y="463" type="line"/>
      <point x="620" y="463" type="line"/>
      <point x="609" y="373" type="line"/>
    </contour>
    <contour>
      <point x="1217" y="480" type="curve"/>
      <point x="1096" y="480"/>
      <point x="988" y="415"/>
      <point x="984" y="300" type="curve"/>
      <point x="982" y="184"/>
      <point x="1150" y="160"/>
      <point x="1150" y="119" type="curve" smooth="yes"/>
      <point x="1150" y="111"/>
      <point x="1143" y="100"/>
      <point x="1124" y="100" type="curve" smooth="yes"/>
      <point x="1090" y="100"/>
      <point x="1038" y="125"/>
      <point x="999" y="170" type="curve"/>
      <point x="981" y="161" type="line"/>
      <point x="939" y="15" type="line"/>
      <point x="985" y="2"/>
      <point x="1031" y="-6"/>
      <point x="1079" y="-11" type="curve"/>
      <point x="1207" y="-11"/>
      <point x="1307" y="61"/>
      <point x="1307" y="163" type="curve" smooth="yes"/>
      <point x="1307" y="291"/>
      <point x="1145" y="299"/>
      <point x="1145" y="346" type="curve" smooth="yes"/>
      <point x="1145" y="357"/>
      <point x="1153" y="365"/>
      <point x="1168" y="365" type="curve" smooth="yes"/>
      <point x="1194" y="365"/>
      <point x="1237" y="346"/>
      <point x="1275" y="309" type="curve"/>
      <point x="1298" y="318" type="line"/>
      <point x="1339" y="456" type="line"/>
      <point x="1299" y="468"/>
      <point x="1259" y="476"/>
    </contour>
  </outline>
</glyph>
<glyph name="won" format="2">
  <advance width="865"/>
  <unicode hex="20A9"/>
  <anchor x="451" y="513" name="top"/>
  <outline>
    <contour>
      <point x="19" y="281" type="line"/>
      <point x="857" y="281" type="line"/>
      <point x="870" y="356" type="line"/>
      <point x="866" y="365" type="line"/>
      <point x="28" y="365" type="line"/>
      <point x="14" y="290" type="line"/>
    </contour>
    <contour>
      <point x="8" y="124" type="line"/>
      <point x="826" y="124" type="line"/>
      <point x="840" y="199" type="line"/>
      <point x="836" y="208" type="line"/>
      <point x="17" y="208" type="line"/>
      <point x="3" y="133" type="line"/>
    </contour>
    <contour>
      <point x="855" y="513" type="line"/>
      <point x="681" y="513" type="line"/>
      <point x="652" y="413" type="line"/>
      <point x="575" y="188" type="line"/>
      <point x="565" y="188" type="line"/>
      <point x="550" y="404" type="line"/>
      <point x="552" y="513" type="line"/>
      <point x="362" y="513" type="line"/>
      <point x="372" y="397" type="line"/>
      <point x="294" y="188" type="line"/>
      <point x="284" y="188" type="line"/>
      <point x="276" y="424" type="line"/>
      <point x="280" y="513" type="line"/>
      <point x="98" y="513" type="line"/>
      <point x="153" y="0" type="line"/>
      <point x="354" y="0" type="line"/>
      <point x="406" y="150" type="line"/>
      <point x="417" y="150" type="line"/>
      <point x="438" y="0" type="line"/>
      <point x="639" y="0" type="line"/>
    </contour>
  </outline>
</glyph>
<glyph name="kip" format="2">
  <advance width="581"/>
  <unicode hex="20AD"/>
  <anchor x="244" y="0" name="bottom"/>
  <anchor x="309" y="513" name="top"/>
  <outline>
    <contour>
      <point x="555" y="325" type="line"/>
      <point x="25" y="325" type="line"/>
      <point x="2" y="208" type="line"/>
      <point x="12" y="195" type="line"/>
      <point x="542" y="195" type="line"/>
      <point x="566" y="312" type="line"/>
    </contour>
    <contour>
      <point x="592" y="513" type="line"/>
      <point x="397" y="513" type="line"/>
      <point x="362" y="454" type="line"/>
      <point x="229" y="272" type="line"/>
      <point x="228" y="261" type="line"/>
      <point x="263" y="172"/>
      <point x="299" y="87"/>
      <point x="338" y="1" type="curve"/>
      <point x="357" y="-10" type="line"/>
      <point x="420" y="-5"/>
      <point x="482" y="5"/>
      <point x="546" y="19" type="curve"/>
      <point x="551" y="39" type="line"/>
      <point x="501" y="114"/>
      <point x="455" y="191"/>
      <point x="413" y="270" type="curve"/>
    </contour>
    <contour>
      <point x="286" y="513" type="line"/>
      <point x="97" y="513" type="line"/>
      <point x="62" y="149" type="line"/>
      <point x="34" y="0" type="line"/>
      <point x="220" y="0" type="line"/>
      <point x="233" y="168" type="line"/>
    </contour>
  </outline>
</glyph>
<glyph name="liraTurkish" format="2">
  <advance width="497"/>
  <unicode hex="20BA"/>
  <outline>
    <contour>
      <point x="53" y="0" type="line"/>
      <point x="354" y="0"/>
      <point x="431" y="32"/>
      <point x="516" y="192" type="curve"/>
      <point x="512" y="208" type="line"/>
      <point x="373" y="227" type="line"/>
      <point x="340" y="157"/>
      <point x="300" y="124"/>
      <point x="225" y="119" type="curve"/>
    </contour>
    <contour>
      <point x="24" y="136" type="line"/>
      <point x="163" y="186" type="line"/>
      <point x="159" y="169" type="line"/>
      <point x="367" y="245" type="line"/>
      <point x="357" y="325" type="line"/>
      <point x="351" y="329" type="line"/>
      <point x="178" y="266" type="line"/>
      <point x="181" y="282" type="line"/>
      <point x="7" y="221" type="line"/>
      <point x="16" y="139" type="line"/>
    </contour>
    <contour>
      <point x="53" y="0" type="line"/>
      <point x="238" y="59" type="line"/>
      <point x="251" y="168" type="line"/>
      <point x="305" y="513" type="line"/>
      <point x="116" y="513" type="line"/>
      <point x="80" y="149" type="line"/>
    </contour>
    <contour>
      <point x="42" y="286" type="line"/>
      <point x="181" y="336" type="line"/>
      <point x="177" y="319" type="line"/>
      <point x="385" y="395" type="line"/>
      <point x="375" y="475" type="line"/>
      <point x="370" y="479" type="line"/>
      <point x="196" y="416" type="line"/>
      <point x="200" y="432" type="line"/>
      <point x="25" y="371" type="line"/>
      <point x="34" y="289" type="line"/>
    </contour>
  </outline>
</glyph>
<glyph name="manat" format="2">
  <advance width="657"/>
  <unicode hex="20BC"/>
  <outline>
    <contour>
      <point x="-4" y="-9" type="curve"/>
      <point x="187" y="10" type="line"/>
      <point x="220" y="277"/>
      <point x="263" y="356"/>
      <point x="345" y="356" type="curve" smooth="yes"/>
      <point x="427" y="356"/>
      <point x="447" y="272"/>
      <point x="412" y="-9" type="curve"/>
      <point x="603" y="10" type="line"/>
      <point x="652" y="405"/>
      <point x="599" y="513"/>
      <point x="369" y="513" type="curve" smooth="yes"/>
      <point x="131" y="513"/>
      <point x="45" y="393"/>
    </contour>
    <contour>
      <point x="273" y="56" type="line"/>
      <point x="343" y="65" type="line"/>
      <point x="411" y="585" type="line"/>
      <point x="404" y="593" type="line"/>
      <point x="333" y="587" type="line"/>
      <point x="268" y="64" type="line"/>
    </contour>
  </outline>
</glyph>
<glyph name="ruble" format="2">
  <advance width="497"/>
  <unicode hex="20BD"/>
  <anchor x="241" y="0" name="bottom"/>
  <anchor x="302" y="503" name="top"/>
  <outline>
    <contour>
      <point x="359" y="513" type="curve"/>
      <point x="90" y="513" type="line"/>
      <point x="178" y="390" type="line"/>
      <point x="281" y="397" type="line"/>
      <point x="320" y="396"/>
      <point x="338" y="384"/>
      <point x="338" y="355" type="curve" smooth="yes"/>
      <point x="338" y="324"/>
      <point x="330" y="309"/>
      <point x="299" y="287" type="curve"/>
      <point x="123" y="297" type="line"/>
      <point x="108" y="172" type="line"/>
      <point x="263" y="171" type="line"/>
      <point x="411" y="171"/>
      <point x="521" y="259"/>
      <point x="521" y="382" type="curve" smooth="yes"/>
      <point x="521" y="466"/>
      <point x="463" y="513"/>
    </contour>
    <contour>
      <point x="265" y="513" type="line"/>
      <point x="90" y="513" type="line"/>
      <point x="57" y="175" type="line"/>
      <point x="29" y="0" type="line"/>
      <point x="202" y="0" type="line"/>
      <point x="215" y="192" type="line"/>
    </contour>
    <contour>
      <point x="306" y="128" type="line"/>
      <point x="-9" y="128" type="line"/>
      <point x="-21" y="68" type="line"/>
      <point x="-16" y="60" type="line"/>
      <point x="300" y="60" type="line"/>
      <point x="312" y="119" type="line"/>
    </contour>
  </outline>
</glyph>
<glyph name="literSign" format="2">
  <advance width="267"/>
  <unicode hex="2113"/>
  <anchor x="105" y="0" name="bottom"/>
  <anchor x="183" y="700" name="top"/>
  <anchor x="393" y="352" name="topright"/>
  <outline>
    <contour>
      <point x="278" y="704" type="line"/>
      <point x="99" y="693" type="line"/>
      <point x="96" y="580" type="line"/>
      <point x="17" y="-4" type="line"/>
      <point x="196" y="7" type="line"/>
      <point x="199" y="116" type="line"/>
    </contour>
  </outline>
</glyph>
<glyph name="numero" format="2">
  <advance width="938"/>
  <unicode hex="2116"/>
  <anchor x="277" y="0" name="bottom"/>
  <anchor x="338" y="513" name="top"/>
  <outline>
    <contour>
      <point x="598" y="516" type="line"/>
      <point x="428" y="506" type="line"/>
      <point x="406" y="273" type="line"/>
      <point x="395" y="273" type="line"/>
      <point x="286" y="513" type="line"/>
      <point x="87" y="513" type="line"/>
      <point x="52" y="150" type="line"/>
      <point x="24" y="0" type="line"/>
      <point x="190" y="0" type="line"/>
      <point x="207" y="189" type="line"/>
      <point x="214" y="240" type="line"/>
      <point x="223" y="240" type="line"/>
      <point x="332" y="0" type="line"/>
      <point x="531" y="0" type="line"/>
      <point x="545" y="171" type="line"/>
    </contour>
    <contour>
      <point x="826" y="518" type="line"/>
      <point x="826" y="518" type="line"/>
      <point x="710" y="512"/>
      <point x="637" y="432"/>
      <point x="637" y="309" type="curve" smooth="yes"/>
      <point x="637" y="233"/>
      <point x="676" y="193"/>
      <point x="739" y="181" type="curve"/>
      <point x="749" y="179" type="line"/>
      <point x="867" y="185"/>
      <point x="939" y="265"/>
      <point x="939" y="396" type="curve" smooth="yes"/>
      <point x="939" y="466"/>
      <point x="899" y="505"/>
      <point x="837" y="517" type="curve"/>
    </contour>
    <contour>
      <point x="806" y="437" type="curve" smooth="yes"/>
      <point x="826" y="437"/>
      <point x="832" y="425"/>
      <point x="832" y="388" type="curve" smooth="yes"/>
      <point x="832" y="299"/>
      <point x="819" y="258"/>
      <point x="771" y="258" type="curve" smooth="yes"/>
      <point x="750" y="258"/>
      <point x="743" y="270"/>
      <point x="743" y="308" type="curve" smooth="yes"/>
      <point x="743" y="396"/>
      <point x="756" y="437"/>
    </contour>
  </outline>
</glyph>
<glyph name="estimated" format="2">
  <advance width="789.791"/>
  <unicode hex="212E"/>
  <outline>
    <contour>
      <point x="416" y="651" type="curve" smooth="yes"/>
      <point x="213" y="651"/>
      <point x="47" y="503"/>
      <point x="47" y="319" type="curve" smooth="yes"/>
      <point x="47" y="136"/>
      <point x="213" y="-12"/>
      <point x="416" y="-12" type="curve" smooth="yes"/>
      <point x="534" y="-12"/>
      <point x="641" y="39"/>
      <point x="708" y="117" type="curve" smooth="yes"/>
      <point x="654" y="117" type="line" smooth="yes"/>
      <point x="597" y="50"/>
      <point x="512" y="8"/>
      <point x="417" y="8" type="curve" smooth="yes"/>
      <point x="328" y="8"/>
      <point x="247" y="45"/>
      <point x="191" y="105" type="curve" smooth="yes"/>
      <point x="186" y="111"/>
      <point x="182" y="118"/>
      <point x="182" y="126" type="curve" smooth="yes"/>
      <point x="182" y="307" type="line" smooth="yes"/>
      <point x="182" y="310"/>
      <point x="184" y="311"/>
      <point x="187" y="311" type="curve" smooth="yes"/>
      <point x="784" y="311" type="line"/>
      <point x="784" y="319" type="line" smooth="yes"/>
      <point x="784" y="503"/>
      <point x="619" y="651"/>
    </contour>
    <contour>
      <point x="417" y="631" type="curve" smooth="yes"/>
      <point x="504" y="631"/>
      <point x="583" y="595"/>
      <point x="640" y="538" type="curve" smooth="yes"/>
      <point x="646" y="532"/>
      <point x="650" y="525"/>
      <point x="650" y="516" type="curve" smooth="yes"/>
      <point x="650" y="334" type="line" smooth="yes"/>
      <point x="650" y="331"/>
      <point x="648" y="329"/>
      <point x="645" y="329" type="curve" smooth="yes"/>
      <point x="187" y="329" type="line" smooth="yes"/>
      <point x="184" y="329"/>
      <point x="182" y="331"/>
      <point x="182" y="334" type="curve" smooth="yes"/>
      <point x="182" y="512" type="line" smooth="yes"/>
      <point x="182" y="521"/>
      <point x="186" y="529"/>
      <point x="192" y="535" type="curve" smooth="yes"/>
      <point x="249" y="594"/>
      <point x="328" y="631"/>
    </contour>
  </outline>
</glyph>
<glyph name="leftRightArrow" format="2">
  <advance width="786"/>
  <unicode hex="2194"/>
  <outline>
    <contour>
      <point x="333" y="41" type="line"/>
      <point x="333" y="65" type="line"/>
      <point x="167" y="243" type="line"/>
      <point x="333" y="421" type="line"/>
      <point x="333" y="445" type="line"/>
      <point x="227" y="467" type="line"/>
      <point x="26" y="257" type="line"/>
      <point x="26" y="228" type="line"/>
      <point x="227" y="19" type="line"/>
    </contour>
    <contour>
      <point x="762" y="229" type="line"/>
      <point x="762" y="258" type="line"/>
      <point x="561" y="467" type="line"/>
      <point x="455" y="445" type="line"/>
      <point x="455" y="421" type="line"/>
      <point x="621" y="243" type="line"/>
      <point x="455" y="65" type="line"/>
      <point x="455" y="41" type="line"/>
      <point x="561" y="19" type="line"/>
    </contour>
    <contour>
      <point x="654" y="183" type="line"/>
      <point x="654" y="303" type="line"/>
      <point x="134" y="303" type="line"/>
      <point x="134" y="183" type="line"/>
    </contour>
  </outline>
</glyph>
<glyph name="partialdiff" format="2">
  <advance width="531.626"/>
  <unicode hex="2202"/>
  <outline>
    <contour>
      <point x="251" y="720" type="curve"/>
      <point x="240" y="720" type="line"/>
      <point x="86" y="621" type="line"/>
      <point x="84" y="607" type="line"/>
      <point x="258" y="547"/>
      <point x="340" y="462"/>
      <point x="340" y="307" type="curve" smooth="yes"/>
      <point x="340" y="199"/>
      <point x="320" y="122"/>
      <point x="252" y="122" type="curve" smooth="yes"/>
      <point x="215" y="122"/>
      <point x="197" y="150"/>
      <point x="197" y="197" type="curve" smooth="yes"/>
      <point x="197" y="269"/>
      <point x="221" y="306"/>
      <point x="279" y="306" type="curve" smooth="yes"/>
      <point x="306" y="306"/>
      <point x="327" y="297"/>
      <point x="356" y="281" type="curve"/>
      <point x="351" y="473" type="line"/>
      <point x="305" y="435" type="line"/>
      <point x="284" y="444"/>
      <point x="266" y="448"/>
      <point x="244" y="448" type="curve" smooth="yes"/>
      <point x="101" y="448"/>
      <point x="13" y="314"/>
      <point x="13" y="192" type="curve" smooth="yes"/>
      <point x="13" y="86"/>
      <point x="78" y="-12"/>
      <point x="230" y="-12" type="curve" smooth="yes"/>
      <point x="416" y="-12"/>
      <point x="530" y="122"/>
      <point x="530" y="317" type="curve" smooth="yes"/>
      <point x="530" y="490"/>
      <point x="428" y="627"/>
    </contour>
  </outline>
</glyph>
<glyph name="summation" format="2">
  <advance width="546.787"/>
  <unicode hex="2211"/>
  <outline>
    <contour>
      <point x="554" y="649" type="line"/>
      <point x="425" y="647" type="line"/>
      <point x="173" y="647" type="line"/>
      <point x="78" y="649" type="line"/>
      <point x="59" y="500" type="line"/>
      <point x="227" y="323" type="line"/>
      <point x="14" y="135" type="line"/>
      <point x="-2" y="-3" type="line"/>
      <point x="105" y="0" type="line"/>
      <point x="316" y="0" type="line"/>
      <point x="485" y="-2" type="line"/>
      <point x="515" y="140" type="line"/>
      <point x="505" y="155" type="line"/>
      <point x="377" y="146" type="line"/>
      <point x="257" y="146" type="line"/>
      <point x="443" y="310" type="line"/>
      <point x="446" y="338" type="line"/>
      <point x="298" y="501" type="line"/>
      <point x="426" y="501" type="line"/>
      <point x="535" y="494" type="line"/>
      <point x="564" y="635" type="line"/>
    </contour>
  </outline>
</glyph>
<glyph name="minus" format="2">
  <advance width="477.648"/>
  <unicode hex="2212"/>
  <outline>
    <contour>
      <point x="455" y="320" type="line"/>
      <point x="25" y="320" type="line"/>
      <point x="16" y="203" type="line"/>
      <point x="28" y="190" type="line"/>
      <point x="458" y="190" type="line"/>
      <point x="467" y="307" type="line"/>
    </contour>
  </outline>
</glyph>
<glyph name="radical" format="2">
  <advance width="493.8"/>
  <unicode hex="221A"/>
  <outline>
    <contour>
      <point x="615" y="710" type="line"/>
      <point x="475" y="710" type="line"/>
      <point x="459" y="698" type="line"/>
      <point x="248" y="165" type="line"/>
      <point x="237" y="165" type="line"/>
      <point x="216" y="465" type="line"/>
      <point x="211" y="472" type="line"/>
      <point x="-3" y="472" type="line"/>
      <point x="-23" y="347" type="line"/>
      <point x="-19" y="340" type="line"/>
      <point x="76" y="340" type="line"/>
      <point x="110" y="0" type="line"/>
      <point x="320" y="0" type="line"/>
    </contour>
  </outline>
</glyph>
<glyph name="infinity" format="2">
  <advance width="522"/>
  <unicode hex="221E"/>
  <outline>
    <contour>
      <point x="395" y="424" type="curve" smooth="yes"/>
      <point x="336" y="424"/>
      <point x="293" y="396"/>
      <point x="266" y="364" type="curve"/>
      <point x="240" y="406"/>
      <point x="210" y="424"/>
      <point x="165" y="424" type="curve" smooth="yes"/>
      <point x="74" y="424"/>
      <point x="6" y="353"/>
      <point x="6" y="232" type="curve" smooth="yes"/>
      <point x="6" y="147"/>
      <point x="49" y="92"/>
      <point x="128" y="92" type="curve" smooth="yes"/>
      <point x="184" y="92"/>
      <point x="229" y="117"/>
      <point x="258" y="152" type="curve"/>
      <point x="285" y="107"/>
      <point x="317" y="92"/>
      <point x="357" y="92" type="curve" smooth="yes"/>
      <point x="445" y="92"/>
      <point x="518" y="159"/>
      <point x="518" y="284" type="curve" smooth="yes"/>
      <point x="518" y="368"/>
      <point x="475" y="424"/>
    </contour>
    <contour>
      <point x="162" y="306" type="curve" smooth="yes"/>
      <point x="182" y="306"/>
      <point x="198" y="297"/>
      <point x="211" y="276" type="curve"/>
      <point x="193" y="241"/>
      <point x="173" y="216"/>
      <point x="145" y="216" type="curve" smooth="yes"/>
      <point x="125" y="216"/>
      <point x="113" y="228"/>
      <point x="113" y="252" type="curve" smooth="yes"/>
      <point x="113" y="285"/>
      <point x="130" y="306"/>
    </contour>
    <contour>
      <point x="379" y="300" type="curve" smooth="yes"/>
      <point x="398" y="300"/>
      <point x="410" y="288"/>
      <point x="410" y="265" type="curve" smooth="yes"/>
      <point x="410" y="230"/>
      <point x="392" y="209"/>
      <point x="363" y="209" type="curve" smooth="yes"/>
      <point x="342" y="209"/>
      <point x="326" y="219"/>
      <point x="314" y="240" type="curve"/>
      <point x="331" y="272"/>
      <point x="349" y="300"/>
    </contour>
  </outline>
</glyph>
<glyph name="integral" format="2">
  <advance width="319.905"/>
  <unicode hex="222B"/>
  <outline>
    <contour>
      <point x="363" y="710" type="curve" smooth="yes"/>
      <point x="213" y="710"/>
      <point x="116" y="639"/>
      <point x="100" y="509" type="curve"/>
      <point x="50" y="51" type="line" smooth="yes"/>
      <point x="44" y="-6"/>
      <point x="17" y="-39"/>
      <point x="-28" y="-63" type="curve"/>
      <point x="-29" y="-78" type="line"/>
      <point x="44" y="-161" type="line"/>
      <point x="167" y="-110"/>
      <point x="218" y="-45"/>
      <point x="229" y="56" type="curve" smooth="yes"/>
      <point x="286" y="543" type="line"/>
      <point x="290" y="571"/>
      <point x="305" y="577"/>
      <point x="323" y="577" type="curve" smooth="yes"/>
      <point x="342" y="577"/>
      <point x="370" y="571"/>
      <point x="409" y="554" type="curve"/>
      <point x="423" y="563" type="line"/>
      <point x="451" y="701" type="line"/>
      <point x="421" y="707"/>
      <point x="393" y="710"/>
    </contour>
  </outline>
</glyph>
<glyph name="notequal" format="2">
  <advance width="478.786"/>
  <unicode hex="2260"/>
  <outline>
    <contour>
      <point x="397" y="563" type="line"/>
      <point x="279" y="563" type="line"/>
      <point x="65" y="-39" type="line"/>
      <point x="72" y="-53" type="line"/>
      <point x="193" y="-53" type="line"/>
      <point x="407" y="550" type="line"/>
    </contour>
    <contour>
      <point x="469" y="426" type="line"/>
      <point x="39" y="426" type="line"/>
      <point x="30" y="309" type="line"/>
      <point x="42" y="296" type="line"/>
      <point x="472" y="296" type="line"/>
      <point x="481" y="413" type="line"/>
    </contour>
    <contour>
      <point x="443" y="213" type="line"/>
      <point x="13" y="213" type="line"/>
      <point x="4" y="96" type="line"/>
      <point x="16" y="83" type="line"/>
      <point x="446" y="83" type="line"/>
      <point x="455" y="200" type="line"/>
    </contour>
  </outline>
</glyph>
<glyph name="lozenge" format="2">
  <advance width="531.405"/>
  <unicode hex="25CA"/>
  <outline>
    <contour>
      <point x="391" y="651" type="line"/>
      <point x="238" y="644" type="line"/>
      <point x="43" y="301" type="line"/>
      <point x="37" y="252" type="line"/>
      <point x="147" y="-86" type="line"/>
      <point x="161" y="-93" type="line"/>
      <point x="313" y="-86" type="line"/>
      <point x="508" y="255" type="line"/>
      <point x="515" y="306" type="line"/>
      <point x="403" y="644" type="line"/>
    </contour>
    <contour>
      <point x="305" y="519" type="line"/>
      <point x="386" y="280" type="line"/>
      <point x="253" y="39" type="line"/>
      <point x="245" y="39" type="line"/>
      <point x="164" y="272" type="line"/>
      <point x="297" y="519" type="line"/>
    </contour>
  </outline>
</glyph>
<glyph name="rightanglebracket-math" format="2">
  <advance width="322"/>
  <unicode hex="27E9"/>
  <outline>
    <contour>
      <point x="89" y="-132" type="line"/>
      <point x="105" y="-127" type="line"/>
      <point x="315" y="227" type="line"/>
      <point x="322" y="301" type="line"/>
      <point x="198" y="655" type="line"/>
      <point x="185" y="660" type="line"/>
      <point x="59" y="620" type="line"/>
      <point x="141" y="265" type="line"/>
      <point x="-30" y="-92" type="line"/>
    </contour>
  </outline>
</glyph>
<glyph name="Saltillo" format="2">
  <advance width="189.88"/>
  <unicode hex="A78B"/>
  <outline>
    <contour>
      <point x="212" y="616" type="line"/>
      <point x="60" y="605" type="line"/>
      <point x="37" y="264" type="line"/>
      <point x="51" y="250" type="line"/>
      <point x="140" y="268" type="line"/>
      <point x="221" y="601" type="line"/>
    </contour>
    <contour>
      <point x="93" y="153" type="move"/>
    </contour>
  </outline>
</glyph>
<glyph name="Alpha.sups" format="2">
  <advance width="419"/>
  <anchor x="224" y="320" name="bottom"/>
  <anchor x="435" y="320" name="ogonek"/>
  <anchor x="279" y="772" name="top"/>
  <anchor x="98" y="772" name="topleft"/>
  <outline>
    <contour>
      <point x="353" y="772" type="line"/>
      <point x="209" y="772" type="line"/>
      <point x="7" y="320" type="line"/>
      <point x="125" y="320" type="line"/>
      <point x="147" y="395" type="line"/>
      <point x="262" y="663" type="line"/>
      <point x="270" y="663" type="line"/>
      <point x="305" y="388" type="line"/>
      <point x="309" y="320" type="line"/>
      <point x="430" y="320" type="line"/>
    </contour>
    <contour>
      <point x="325" y="498" type="line"/>
      <point x="240" y="496" type="line"/>
      <point x="146" y="498" type="line"/>
      <point x="136" y="406" type="line"/>
      <point x="222" y="409" type="line"/>
      <point x="314" y="408" type="line"/>
    </contour>
  </outline>
</glyph>
<glyph name="D.ss01" format="2">
  <advance width="671"/>
  <anchor x="292" y="0" name="bottom"/>
  <anchor x="332" y="324" name="center"/>
  <anchor x="372" y="647" name="top"/>
  <outline>
    <contour>
      <point x="266" y="0" type="line"/>
      <point x="487" y="0"/>
      <point x="622" y="121"/>
      <point x="649" y="341" type="curve" smooth="yes"/>
      <point x="674" y="540"/>
      <point x="579" y="647"/>
      <point x="388" y="647" type="curve"/>
      <point x="100" y="647" type="line"/>
      <point x="260" y="489" type="line"/>
      <point x="358" y="491" type="line"/>
      <point x="434" y="491"/>
      <point x="453" y="450"/>
      <point x="435" y="310" type="curve" smooth="yes"/>
      <point x="421" y="192"/>
      <point x="375" y="149"/>
      <point x="316" y="149" type="curve"/>
      <point x="210" y="152" type="line"/>
      <point x="18" y="0" type="line"/>
    </contour>
    <contour>
      <point x="-80" y="0" type="line"/>
      <point x="671" y="0" type="line"/>
      <point x="679" y="65" type="line"/>
      <point x="-72" y="65" type="line"/>
    </contour>
    <contour>
      <point x="19" y="0" type="line"/>
      <point x="220" y="0" type="line"/>
      <point x="238" y="210" type="line"/>
      <point x="303" y="647" type="line"/>
      <point x="99" y="647" type="line"/>
      <point x="53" y="190" type="line"/>
    </contour>
    <contour>
      <point x="-8" y="582" type="line"/>
      <point x="743" y="582" type="line"/>
      <point x="751" y="647" type="line"/>
      <point x="0" y="647" type="line"/>
    </contour>
  </outline>
</glyph>
<glyph name="Delta.sups" format="2">
  <advance width="393"/>
  <outline>
    <contour>
      <point x="17" y="320" type="line"/>
      <point x="395" y="320" type="line"/>
      <point x="405" y="397" type="line"/>
      <point x="338" y="772" type="line"/>
      <point x="193" y="772" type="line"/>
      <point x="27" y="397" type="line"/>
    </contour>
    <contour>
      <point x="140" y="413" type="line"/>
      <point x="246" y="663" type="line"/>
      <point x="254" y="663" type="line"/>
      <point x="289" y="413" type="line"/>
    </contour>
  </outline>
</glyph>
<glyph name="Epsilon.sups" format="2">
  <advance width="380"/>
  <anchor x="234" y="320" name="bottom"/>
  <anchor x="340" y="327" name="ogonek"/>
  <anchor x="248" y="772" name="top"/>
  <anchor x="26" y="772" name="topleft"/>
  <outline>
    <contour>
      <point x="231" y="772" type="line"/>
      <point x="109" y="772" type="line"/>
      <point x="76" y="454" type="line"/>
      <point x="53" y="320" type="line"/>
      <point x="173" y="320" type="line"/>
      <point x="186" y="465" type="line"/>
    </contour>
    <contour>
      <point x="371" y="417" type="line"/>
      <point x="256" y="413" type="line"/>
      <point x="145" y="413" type="line"/>
      <point x="133" y="327" type="line"/>
      <point x="133" y="320" type="line"/>
      <point x="359" y="320" type="line"/>
      <point x="377" y="408" type="line"/>
    </contour>
    <contour>
      <point x="354" y="596" type="line"/>
      <point x="279" y="594" type="line"/>
      <point x="173" y="595" type="line"/>
      <point x="162" y="508" type="line"/>
      <point x="162" y="501" type="line"/>
      <point x="260" y="502" type="line"/>
      <point x="341" y="500" type="line"/>
      <point x="360" y="588" type="line"/>
    </contour>
    <contour>
      <point x="419" y="772" type="line"/>
      <point x="190" y="772" type="line"/>
      <point x="178" y="685" type="line"/>
      <point x="178" y="678" type="line"/>
      <point x="295" y="679" type="line"/>
      <point x="406" y="675" type="line"/>
      <point x="425" y="763" type="line"/>
    </contour>
  </outline>
</glyph>
<glyph name="Eta.sups" format="2">
  <advance width="487"/>
  <anchor x="254" y="320" name="bottom"/>
  <anchor x="333" y="320" name="bottomright"/>
  <anchor x="287" y="546" name="center"/>
  <anchor x="313" y="772" name="top"/>
  <anchor x="26" y="772" name="topleft"/>
  <outline>
    <contour>
      <point x="510" y="772" type="line"/>
      <point x="388" y="772" type="line"/>
      <point x="356" y="454" type="line"/>
      <point x="333" y="320" type="line"/>
      <point x="453" y="320" type="line"/>
      <point x="466" y="465" type="line"/>
    </contour>
    <contour>
      <point x="231" y="772" type="line"/>
      <point x="109" y="772" type="line"/>
      <point x="76" y="454" type="line"/>
      <point x="53" y="320" type="line"/>
      <point x="173" y="320" type="line"/>
      <point x="186" y="465" type="line"/>
    </contour>
    <contour>
      <point x="381" y="594" type="line"/>
      <point x="289" y="593" type="line"/>
      <point x="190" y="595" type="line"/>
      <point x="178" y="495" type="line"/>
      <point x="270" y="498" type="line"/>
      <point x="369" y="496" type="line"/>
    </contour>
  </outline>
</glyph>
<glyph name="I.ss01" format="2">
  <advance width="321"/>
  <anchor x="220" y="0" name="ogonek"/>
  <anchor x="201" y="647" name="top"/>
  <outline>
    <contour>
      <point x="19" y="0" type="line"/>
      <point x="220" y="0" type="line"/>
      <point x="238" y="210" type="line"/>
      <point x="303" y="647" type="line"/>
      <point x="99" y="647" type="line"/>
      <point x="53" y="190" type="line"/>
    </contour>
    <contour>
      <point x="-80" y="0" type="line"/>
      <point x="321" y="0" type="line"/>
      <point x="329" y="65" type="line"/>
      <point x="-72" y="65" type="line"/>
    </contour>
    <contour>
      <point x="-8" y="582" type="line"/>
      <point x="393" y="582" type="line"/>
      <point x="401" y="647" type="line"/>
      <point x="0" y="647" type="line"/>
    </contour>
  </outline>
</glyph>
<glyph name="Iota.sups" format="2">
  <advance width="207"/>
  <anchor x="115" y="320" name="bottom"/>
  <anchor x="173" y="320" name="ogonek"/>
  <anchor x="171" y="772" name="top"/>
  <anchor x="26" y="772" name="topleft"/>
  <outline>
    <contour>
      <point x="231" y="772" type="line"/>
      <point x="109" y="772" type="line"/>
      <point x="76" y="454" type="line"/>
      <point x="53" y="320" type="line"/>
      <point x="173" y="320" type="line"/>
      <point x="186" y="465" type="line"/>
    </contour>
  </outline>
</glyph>
<glyph name="L.ss01.BRACKET.80" format="2">
  <advance width="514"/>
  <anchor x="217" y="0" name="bottom"/>
  <anchor x="257" y="324" name="center"/>
  <anchor x="297" y="647" name="top"/>
  <anchor x="534" y="647" name="topright"/>
  <outline>
    <contour>
      <point x="-80" y="0" type="line"/>
      <point x="514" y="0" type="line"/>
      <point x="522" y="65" type="line"/>
      <point x="-72" y="65" type="line"/>
    </contour>
    <contour>
      <point x="-8" y="582" type="line"/>
      <point x="586" y="582" type="line"/>
      <point x="594" y="647" type="line"/>
      <point x="0" y="647" type="line"/>
    </contour>
    <contour>
      <point x="300" y="647" type="line"/>
      <point x="96" y="647" type="line"/>
      <point x="50" y="190" type="line"/>
      <point x="16" y="0" type="line"/>
      <point x="217" y="0" type="line"/>
      <point x="235" y="210" type="line"/>
    </contour>
    <contour>
      <point x="421" y="164" type="line"/>
      <point x="160" y="164" type="line"/>
      <point x="142" y="11" type="line"/>
      <point x="140" y="0" type="line"/>
      <point x="402" y="0" type="line"/>
      <point x="431" y="150" type="line"/>
    </contour>
  </outline>
</glyph>
<glyph name="L.ss01" format="2">
  <advance width="514"/>
  <anchor x="217" y="0" name="bottom"/>
  <anchor x="257" y="324" name="center"/>
  <anchor x="297" y="647" name="top"/>
  <anchor x="534" y="647" name="topright"/>
  <outline>
    <contour>
      <point x="134" y="0" type="line"/>
      <point x="448" y="0" type="line"/>
      <point x="485" y="253" type="line"/>
      <point x="356" y="245" type="line"/>
      <point x="330" y="162" type="line"/>
      <point x="154" y="160" type="line"/>
    </contour>
    <contour>
      <point x="-80" y="0" type="line"/>
      <point x="514" y="0" type="line"/>
      <point x="522" y="65" type="line"/>
      <point x="-72" y="65" type="line"/>
    </contour>
    <contour>
      <point x="19" y="0" type="line"/>
      <point x="220" y="0" type="line"/>
      <point x="238" y="210" type="line"/>
      <point x="303" y="647" type="line"/>
      <point x="99" y="647" type="line"/>
      <point x="53" y="190" type="line"/>
    </contour>
    <contour>
      <point x="-8" y="582" type="line"/>
      <point x="586" y="582" type="line"/>
      <point x="594" y="647" type="line"/>
      <point x="0" y="647" type="line"/>
    </contour>
  </outline>
</glyph>
<glyph name="Mu.sups" format="2">
  <advance width="568"/>
  <anchor x="294" y="320" name="bottom"/>
  <anchor x="350" y="772" name="top"/>
  <outline>
    <contour>
      <point x="568" y="772" type="line"/>
      <point x="432" y="772" type="line"/>
      <point x="405" y="704" type="line"/>
      <point x="321" y="520" type="line"/>
      <point x="314" y="520" type="line"/>
      <point x="282" y="707" type="line"/>
      <point x="273" y="772" type="line"/>
      <point x="135" y="772" type="line"/>
      <point x="34" y="320" type="line"/>
      <point x="135" y="320" type="line"/>
      <point x="161" y="468" type="line"/>
      <point x="191" y="598" type="line"/>
      <point x="199" y="598" type="line"/>
      <point x="246" y="365" type="line"/>
      <point x="338" y="365" type="line"/>
      <point x="455" y="598" type="line"/>
      <point x="463" y="598" type="line"/>
      <point x="457" y="457" type="line"/>
      <point x="445" y="320" type="line"/>
      <point x="551" y="320" type="line"/>
    </contour>
  </outline>
</glyph>
<glyph name="Omicron.sups" format="2">
  <advance width="460"/>
  <anchor x="240" y="320" name="bottom"/>
  <anchor x="268" y="546" name="center"/>
  <anchor x="328" y="327" name="ogonek"/>
  <anchor x="297" y="772" name="top"/>
  <anchor x="47" y="772" name="topleft"/>
  <anchor x="513" y="772" name="topright"/>
  <outline>
    <contour>
      <point x="297" y="779" type="curve" smooth="yes"/>
      <point x="137" y="779"/>
      <point x="50" y="669"/>
      <point x="50" y="511" type="curve" smooth="yes"/>
      <point x="50" y="377"/>
      <point x="122" y="312"/>
      <point x="240" y="312" type="curve" smooth="yes"/>
      <point x="399" y="312"/>
      <point x="487" y="425"/>
      <point x="487" y="584" type="curve" smooth="yes"/>
      <point x="487" y="716"/>
      <point x="415" y="779"/>
    </contour>
    <contour>
      <point x="283" y="683" type="curve" smooth="yes"/>
      <point x="342" y="683"/>
      <point x="360" y="653"/>
      <point x="360" y="575" type="curve" smooth="yes"/>
      <point x="360" y="440"/>
      <point x="318" y="402"/>
      <point x="252" y="402" type="curve" smooth="yes"/>
      <point x="193" y="402"/>
      <point x="175" y="432"/>
      <point x="175" y="511" type="curve" smooth="yes"/>
      <point x="175" y="646"/>
      <point x="216" y="683"/>
    </contour>
  </outline>
</glyph>
<glyph name="Psi.sups" format="2">
  <advance width="535"/>
  <outline>
    <contour>
      <point x="284" y="401" type="curve"/>
      <point x="442" y="401"/>
      <point x="540" y="467"/>
      <point x="555" y="578" type="curve"/>
      <point x="564" y="644" type="line"/>
      <point x="582" y="772" type="line"/>
      <point x="473" y="772" type="line"/>
      <point x="452" y="595" type="line" smooth="yes"/>
      <point x="444" y="523"/>
      <point x="394" y="491"/>
      <point x="300" y="491" type="curve" smooth="yes"/>
      <point x="206" y="491"/>
      <point x="166" y="523"/>
      <point x="175" y="595" type="curve" smooth="yes"/>
      <point x="197" y="772" type="line"/>
      <point x="85" y="772" type="line"/>
      <point x="72" y="647" type="line"/>
      <point x="65" y="578" type="line" smooth="yes"/>
      <point x="54" y="467"/>
      <point x="128" y="401"/>
    </contour>
    <contour>
      <point x="222" y="320" type="line"/>
      <point x="337" y="320" type="line"/>
      <point x="349" y="465" type="line"/>
      <point x="392" y="772" type="line"/>
      <point x="277" y="772" type="line"/>
      <point x="244" y="454" type="line"/>
    </contour>
  </outline>
</glyph>
<glyph name="Rho.sups" format="2">
  <advance width="400"/>
  <anchor x="25" y="772" name="topleft"/>
  <outline>
    <contour>
      <point x="299" y="773" type="curve"/>
      <point x="109" y="772" type="line"/>
      <point x="168" y="682" type="line"/>
      <point x="255" y="687" type="line"/>
      <point x="299" y="685"/>
      <point x="318" y="668"/>
      <point x="318" y="630" type="curve" smooth="yes"/>
      <point x="318" y="586"/>
      <point x="298" y="556"/>
      <point x="258" y="541" type="curve"/>
      <point x="124" y="547" type="line"/>
      <point x="112" y="455" type="line"/>
      <point x="231" y="455" type="line"/>
      <point x="361" y="455"/>
      <point x="445" y="536"/>
      <point x="445" y="650" type="curve" smooth="yes"/>
      <point x="445" y="730"/>
      <point x="389" y="773"/>
    </contour>
    <contour>
      <point x="231" y="772" type="line"/>
      <point x="109" y="772" type="line"/>
      <point x="76" y="454" type="line"/>
      <point x="53" y="320" type="line"/>
      <point x="173" y="320" type="line"/>
      <point x="186" y="465" type="line"/>
    </contour>
  </outline>
</glyph>
<glyph name="Tau.sups" format="2">
  <advance width="343"/>
  <anchor x="181" y="320" name="bottom"/>
  <anchor x="214" y="546" name="center"/>
  <anchor x="237" y="772" name="top"/>
  <outline>
    <contour>
      <point x="296" y="760" type="line"/>
      <point x="178" y="760" type="line"/>
      <point x="145" y="454" type="line"/>
      <point x="122" y="320" type="line"/>
      <point x="242" y="320" type="line"/>
      <point x="255" y="465" type="line"/>
    </contour>
    <contour>
      <point x="405" y="772" type="line"/>
      <point x="71" y="772" type="line"/>
      <point x="53" y="684" type="line"/>
      <point x="59" y="675" type="line"/>
      <point x="151" y="679" type="line"/>
      <point x="303" y="679" type="line"/>
      <point x="392" y="675" type="line"/>
      <point x="410" y="763" type="line"/>
    </contour>
  </outline>
</glyph>
<glyph name="Theta.sups" format="2">
  <advance width="479"/>
  <outline>
    <contour>
      <point x="210" y="500" type="line"/>
      <point x="338" y="505" type="line"/>
      <point x="350" y="580" type="line"/>
      <point x="343" y="587" type="line"/>
      <point x="216" y="583" type="line"/>
      <point x="204" y="508" type="line"/>
    </contour>
    <contour>
      <point x="315" y="779" type="curve" smooth="yes"/>
      <point x="151" y="779"/>
      <point x="48" y="674"/>
      <point x="48" y="505" type="curve" smooth="yes"/>
      <point x="48" y="385"/>
      <point x="117" y="312"/>
      <point x="239" y="312" type="curve" smooth="yes"/>
      <point x="404" y="312"/>
      <point x="507" y="420"/>
      <point x="507" y="589" type="curve" smooth="yes"/>
      <point x="507" y="708"/>
      <point x="437" y="779"/>
    </contour>
    <contour>
      <point x="293" y="683" type="curve" smooth="yes"/>
      <point x="356" y="683"/>
      <point x="384" y="653"/>
      <point x="384" y="575" type="curve" smooth="yes"/>
      <point x="384" y="460"/>
      <point x="354" y="402"/>
      <point x="260" y="402" type="curve" smooth="yes"/>
      <point x="197" y="402"/>
      <point x="170" y="432"/>
      <point x="170" y="510" type="curve" smooth="yes"/>
      <point x="170" y="643"/>
      <point x="215" y="683"/>
    </contour>
  </outline>
</glyph>
<glyph name="V.ss01" format="2">
  <advance width="626"/>
  <outline>
    <contour>
      <point x="144" y="0" type="line"/>
      <point x="386" y="0" type="line"/>
      <point x="662" y="647" type="line"/>
      <point x="464" y="647" type="line"/>
      <point x="430" y="528" type="line"/>
      <point x="296" y="179" type="line"/>
      <point x="284" y="179" type="line"/>
      <point x="253" y="540" type="line"/>
      <point x="248" y="647" type="line"/>
      <point x="46" y="647" type="line"/>
    </contour>
    <contour>
      <point x="-80" y="0" type="line"/>
      <point x="626" y="0" type="line"/>
      <point x="634" y="65" type="line"/>
      <point x="-72" y="65" type="line"/>
    </contour>
    <contour>
      <point x="-8" y="582" type="line"/>
      <point x="698" y="582" type="line"/>
      <point x="706" y="647" type="line"/>
      <point x="0" y="647" type="line"/>
    </contour>
  </outline>
</glyph>
<glyph name="X.ss01" format="2">
  <advance width="659"/>
  <outline>
    <contour>
      <point x="-28" y="0" type="line"/>
      <point x="177" y="0" type="line"/>
      <point x="219" y="69" type="line"/>
      <point x="307" y="184" type="line"/>
      <point x="352" y="79" type="line"/>
      <point x="375" y="0" type="line"/>
      <point x="612" y="0" type="line"/>
      <point x="460" y="342" type="line"/>
      <point x="684" y="647" type="line"/>
      <point x="473" y="647" type="line"/>
      <point x="433" y="577" type="line"/>
      <point x="354" y="464" type="line"/>
      <point x="310" y="566" type="line"/>
      <point x="286" y="647" type="line"/>
      <point x="48" y="647" type="line"/>
      <point x="203" y="311" type="line"/>
    </contour>
    <contour>
      <point x="-80" y="0" type="line"/>
      <point x="659" y="0" type="line"/>
      <point x="667" y="65" type="line"/>
      <point x="-72" y="65" type="line"/>
    </contour>
    <contour>
      <point x="-8" y="582" type="line"/>
      <point x="731" y="582" type="line"/>
      <point x="739" y="647" type="line"/>
      <point x="0" y="647" type="line"/>
    </contour>
  </outline>
</glyph>
<glyph name="Xi.sups" format="2">
  <advance width="389"/>
  <outline>
    <contour>
      <point x="47" y="320" type="line"/>
      <point x="361" y="320" type="line"/>
      <point x="384" y="417" type="line"/>
      <point x="377" y="426" type="line"/>
      <point x="215" y="422" type="line"/>
      <point x="61" y="426" type="line"/>
      <point x="52" y="417" type="line"/>
    </contour>
    <contour>
      <point x="102" y="495" type="line"/>
      <point x="231" y="497" type="line"/>
      <point x="345" y="495" type="line"/>
      <point x="367" y="591" type="line"/>
      <point x="361" y="600" type="line"/>
      <point x="246" y="598" type="line"/>
      <point x="117" y="600" type="line"/>
      <point x="95" y="504" type="line"/>
    </contour>
    <contour>
      <point x="88" y="666" type="line"/>
      <point x="255" y="670" type="line"/>
      <point x="404" y="666" type="line"/>
      <point x="426" y="763" type="line"/>
      <point x="420" y="772" type="line"/>
      <point x="104" y="772" type="line"/>
      <point x="82" y="676" type="line"/>
    </contour>
  </outline>
</glyph>
<glyph name="_softsign-cy.cond" format="2">
  <advance width="452"/>
  <outline>
    <contour>
      <point x="79" y="-119" type="move"/>
    </contour>
    <component base="softsign-cy"/>
  </outline>
</glyph>
<glyph name="acutecomb.case" format="2">
  <anchor x="218" y="472" name="_top"/>
  <anchor x="200" y="680" name="top"/>
  <outline>
    <contour>
      <point x="318" y="743" type="line"/>
      <point x="247" y="701"/>
      <point x="176" y="662"/>
      <point x="93" y="620" type="curve"/>
      <point x="123" y="541" type="line"/>
      <point x="140" y="537" type="line"/>
      <point x="217" y="557"/>
      <point x="292" y="579"/>
      <point x="378" y="606" type="curve"/>
      <point x="384" y="622" type="line"/>
      <point x="335" y="739" type="line"/>
    </contour>
  </outline>
</glyph>
<glyph name="alpha.sups" format="2">
  <advance width="344"/>
  <anchor x="185" y="320" name="bottom"/>
  <anchor x="234" y="648" name="top"/>
  <outline>
    <contour>
      <point x="126" y="313" type="curve"/>
      <point x="141" y="313" type="line"/>
      <point x="168" y="341"/>
      <point x="190" y="373"/>
      <point x="210" y="408" type="curve"/>
      <point x="225" y="408" type="line"/>
      <point x="247" y="565" type="line"/>
      <point x="205" y="463"/>
      <point x="171" y="412"/>
      <point x="154" y="412" type="curve" smooth="yes"/>
      <point x="145" y="412"/>
      <point x="138" y="427"/>
      <point x="138" y="469" type="curve" smooth="yes"/>
      <point x="138" y="531"/>
      <point x="157" y="572"/>
      <point x="193" y="572" type="curve"/>
      <point x="271" y="545" type="line"/>
      <point x="283" y="598" type="line"/>
      <point x="201" y="650" type="line"/>
      <point x="196" y="650" type="line"/>
      <point x="97" y="612"/>
      <point x="39" y="524"/>
      <point x="39" y="430" type="curve" smooth="yes"/>
      <point x="39" y="373"/>
      <point x="59" y="332"/>
    </contour>
    <contour>
      <point x="179" y="482" type="move"/>
    </contour>
    <contour>
      <point x="207" y="317" type="line"/>
      <point x="316" y="324" type="line"/>
      <point x="319" y="400" type="line"/>
      <point x="352" y="651" type="line"/>
      <point x="252" y="645" type="line"/>
    </contour>
  </outline>
</glyph>
